<svg width="48" height="46" viewBox="0 0 48 46" fill="none" xmlns="http://www.w3.org/2000/svg" xmlns:xlink="http://www.w3.org/1999/xlink">
<line x1="7.5" y1="20" x2="40.5" y2="20" stroke="#FFFFFF" stroke-width="2" stroke-miterlimit="3.999327" stroke-linecap="round" stroke-linejoin="round"/>
<path d="M28.357,8.069C27.545,7.32 26.28,7.37 25.53,8.182C24.781,8.994 24.832,10.259 25.643,11.008L28.357,8.069ZM40.5,22L41.857,23.47C42.267,23.091 42.5,22.558 42.5,22C42.5,21.442 42.267,20.909 41.857,20.53L40.5,22ZM25.643,32.992C24.832,33.741 24.781,35.006 25.53,35.818C26.28,36.63 27.545,36.68 28.357,35.931L25.643,32.992ZM25.643,11.008L39.143,23.47L41.857,20.53L28.357,8.069L25.643,11.008ZM39.143,20.53L25.643,32.992L28.357,35.931L41.857,23.47L39.143,20.53Z" fill="#FFFFFF"/>
</svg>
