<svg width="68" height="68" viewBox="0 0 68 68" fill="none" xmlns="http://www.w3.org/2000/svg" xmlns:xlink="http://www.w3.org/1999/xlink">
<path d="M21.672,44.003C22.257,44.588 23.207,44.588 23.793,44.003C24.379,43.417 24.379,42.467 23.793,41.881L21.672,44.003ZM13.732,33.942L12.672,32.881C12.086,33.467 12.086,34.417 12.672,35.003L13.732,33.942ZM23.793,26.003C24.379,25.417 24.379,24.467 23.793,23.881C23.207,23.296 22.257,23.296 21.672,23.881L23.793,26.003ZM23.793,41.881L14.793,32.881L12.672,35.003L21.672,44.003L23.793,41.881ZM14.793,35.003L23.793,26.003L21.672,23.881L12.672,32.881L14.793,35.003Z" transform="rotate(-64.389 18.232 33.942)" fill="#72777A"/>
<path d="M26.251,44.635C25.422,44.635 24.751,45.306 24.751,46.135C24.751,46.963 25.422,47.635 26.251,47.635L26.251,44.635ZM53.251,35.635L54.751,35.635L53.251,35.635ZM53.251,35.635L51.751,35.635L51.751,35.635L53.251,35.635ZM42.751,25.135L42.751,26.635L42.751,26.635L42.751,25.135ZM17.251,23.635C16.422,23.635 15.751,24.306 15.751,25.135C15.751,25.963 16.422,26.635 17.251,26.635L17.251,23.635ZM26.251,47.635L42.751,47.635L42.751,44.635L26.251,44.635L26.251,47.635ZM42.751,47.635C45.933,47.635 48.986,46.371 51.236,44.12L49.115,41.999C47.427,43.687 45.138,44.635 42.751,44.635L42.751,47.635ZM51.236,44.12C53.487,41.87 54.751,38.817 54.751,35.635L51.751,35.635C51.751,38.022 50.803,40.311 49.115,41.999L51.236,44.12ZM54.751,35.635L54.751,35.635L51.751,35.635L51.751,35.635L54.751,35.635ZM54.751,35.635C54.751,34.059 54.44,32.498 53.837,31.043L51.066,32.191C51.518,33.283 51.751,34.453 51.751,35.635L54.751,35.635ZM53.837,31.043C53.234,29.587 52.35,28.264 51.236,27.149L49.115,29.271C49.95,30.107 50.613,31.099 51.066,32.191L53.837,31.043ZM51.236,27.149C50.122,26.035 48.799,25.151 47.343,24.548L46.195,27.32C47.287,27.772 48.279,28.435 49.115,29.271L51.236,27.149ZM47.343,24.548C45.887,23.945 44.327,23.635 42.751,23.635L42.751,26.635C43.933,26.635 45.103,26.868 46.195,27.32L47.343,24.548ZM42.751,23.635L17.251,23.635L17.251,26.635L42.751,26.635L42.751,23.635Z" transform="rotate(-64.389 35.251 35.635)" fill="#72777A"/>
</svg>
