<svg width="48" height="48" viewBox="0 0 48 48" fill="none" xmlns="http://www.w3.org/2000/svg" xmlns:xlink="http://www.w3.org/1999/xlink">
<path d="M13.939,26.561C14.525,27.146 15.475,27.146 16.061,26.561C16.646,25.975 16.646,25.025 16.061,24.439L13.939,26.561ZM6,16.5L4.939,15.439C4.354,16.025 4.354,16.975 4.939,17.561L6,16.5ZM16.061,8.561C16.646,7.975 16.646,7.025 16.061,6.439C15.475,5.854 14.525,5.854 13.939,6.439L16.061,8.561ZM16.061,24.439L7.061,15.439L4.939,17.561L13.939,26.561L16.061,24.439ZM7.061,17.561L16.061,8.561L13.939,6.439L4.939,15.439L7.061,17.561Z" fill="#72777A"/>
<path d="M15,36C14.172,36 13.5,36.672 13.5,37.5C13.5,38.328 14.172,39 15,39L15,36ZM42,27L43.5,27L42,27ZM42,27L40.5,27L40.5,27L42,27ZM31.5,16.5L31.5,18L31.5,18L31.5,16.5ZM6,15C5.172,15 4.5,15.672 4.5,16.5C4.5,17.328 5.172,18 6,18L6,15ZM15,39L31.5,39L31.5,36L15,36L15,39ZM31.5,39C34.683,39 37.735,37.736 39.985,35.485L37.864,33.364C36.176,35.052 33.887,36 31.5,36L31.5,39ZM39.985,35.485C42.236,33.235 43.5,30.183 43.5,27L40.5,27C40.5,29.387 39.552,31.676 37.864,33.364L39.985,35.485ZM43.5,27L43.5,27L40.5,27L40.5,27L43.5,27ZM43.5,27C43.5,25.424 43.19,23.864 42.587,22.408L39.815,23.556C40.267,24.648 40.5,25.818 40.5,27L43.5,27ZM42.587,22.408C41.984,20.952 41.1,19.629 39.985,18.515L37.864,20.636C38.7,21.472 39.363,22.464 39.815,23.556L42.587,22.408ZM39.985,18.515C38.871,17.4 37.548,16.516 36.092,15.913L34.944,18.685C36.036,19.137 37.028,19.8 37.864,20.636L39.985,18.515ZM36.092,15.913C34.636,15.31 33.076,15 31.5,15L31.5,18C32.682,18 33.852,18.233 34.944,18.685L36.092,15.913ZM31.5,15L6,15L6,18L31.5,18L31.5,15Z" fill="#72777A"/>
</svg>
