<svg width="34" height="22" viewBox="0 0 34 22" fill="none" xmlns="http://www.w3.org/2000/svg" xmlns:xlink="http://www.w3.org/1999/xlink">
<path d="M31.485,-0.484L29.485,-0.484C28.381,-0.484 27.485,0.412 27.485,1.516L27.485,18.85C27.485,19.954 28.381,20.85 29.485,20.85L31.485,20.85C32.59,20.85 33.485,19.954 33.485,18.85L33.485,1.516C33.485,0.412 32.59,-0.484 31.485,-0.484ZM20.152,4.183L22.152,4.183C23.257,4.183 24.152,5.078 24.152,6.183L24.152,18.85C24.152,19.954 23.257,20.85 22.152,20.85L20.152,20.85C19.047,20.85 18.152,19.954 18.152,18.85L18.152,6.183C18.152,5.078 19.047,4.183 20.152,4.183ZM12.819,8.85L10.819,8.85C9.714,8.85 8.819,9.745 8.819,10.85L8.819,18.85C8.819,19.954 9.714,20.85 10.819,20.85L12.819,20.85C13.923,20.85 14.819,19.954 14.819,18.85L14.819,10.85C14.819,9.745 13.923,8.85 12.819,8.85ZM3.485,12.85L1.485,12.85C0.381,12.85 -0.515,13.745 -0.515,14.85L-0.515,18.85C-0.515,19.954 0.381,20.85 1.485,20.85L3.485,20.85C4.59,20.85 5.485,19.954 5.485,18.85L5.485,14.85C5.485,13.745 4.59,12.85 3.485,12.85Z" clip-rule="evenodd" fill-rule="evenodd" transform="rotate(-64.389 16.485 10.183)" fill="#FFFFFF"/>
</svg>
