<svg width="34" height="22" viewBox="0 0 34 22" fill="none" xmlns="http://www.w3.org/2000/svg" xmlns:xlink="http://www.w3.org/1999/xlink">
<path d="M31.729,-0.618L29.729,-0.618C28.624,-0.618 27.729,0.277 27.729,1.382L27.729,18.715C27.729,19.82 28.624,20.715 29.729,20.715L31.729,20.715C32.834,20.715 33.729,19.82 33.729,18.715L33.729,1.382C33.729,0.277 32.834,-0.618 31.729,-0.618ZM20.396,4.049L22.396,4.049C23.5,4.049 24.396,4.944 24.396,6.049L24.396,18.715C24.396,19.82 23.5,20.715 22.396,20.715L20.396,20.715C19.291,20.715 18.396,19.82 18.396,18.715L18.396,6.049C18.396,4.944 19.291,4.049 20.396,4.049ZM13.062,8.715L11.062,8.715C9.958,8.715 9.062,9.611 9.062,10.715L9.062,18.715C9.062,19.82 9.958,20.715 11.062,20.715L13.062,20.715C14.167,20.715 15.062,19.82 15.062,18.715L15.062,10.715C15.062,9.611 14.167,8.715 13.062,8.715ZM3.729,12.715L1.729,12.715C0.624,12.715 -0.271,13.611 -0.271,14.715L-0.271,18.715C-0.271,19.82 0.624,20.715 1.729,20.715L3.729,20.715C4.833,20.715 5.729,19.82 5.729,18.715L5.729,14.715C5.729,13.611 4.833,12.715 3.729,12.715Z" clip-rule="evenodd" fill-rule="evenodd" transform="rotate(-63.346 16.729 10.049)" fill="#FFFFFF"/>
</svg>
