<svg width="86" height="62" viewBox="0 0 86 62" fill="none" xmlns="http://www.w3.org/2000/svg" xmlns:xlink="http://www.w3.org/1999/xlink">
<g opacity="0.35" style="isolation:isolate">
<rect  x="33.088" y="26.853" width="42" height="20.667" rx="4.333" transform="rotate(-64.389 33.088 26.853)" stroke="#FFFFFF" stroke-width="1" stroke-miterlimit="3.999327"/>
</g>
<g opacity="0.4" style="isolation:isolate">
<path d="M76.471,6.914L76.471,14.914C78.08,14.236 79.127,12.66 79.127,10.914C79.127,9.168 78.08,7.592 76.471,6.914Z" transform="rotate(-64.389 77.799 10.914)" fill="#FFFFFF"/>
</g>
<rect  x="37.225" y="27.793" width="36" height="14.667" rx="2.667" transform="rotate(-64.389 37.225 27.793)" fill="#FFFFFF"/>
<path d="M16.13,42.91C20.579,42.91 24.859,44.619 28.083,47.682C28.326,47.918 28.714,47.915 28.954,47.675L31.275,45.334C31.396,45.213 31.463,45.048 31.462,44.876C31.461,44.704 31.392,44.54 31.269,44.42C22.806,36.315 9.453,36.315 0.989,44.42C0.866,44.54 0.797,44.704 0.796,44.876C0.795,45.047 0.862,45.212 0.983,45.334L3.305,47.675C3.544,47.916 3.932,47.919 4.175,47.682C7.4,44.618 11.68,42.91 16.13,42.91ZM16.13,50.525C18.575,50.525 20.932,51.433 22.744,53.073C22.989,53.305 23.375,53.3 23.614,53.061L25.933,50.721C26.055,50.598 26.123,50.431 26.121,50.258C26.119,50.085 26.048,49.92 25.924,49.8C20.405,44.671 11.859,44.671 6.341,49.8C6.216,49.92 6.145,50.085 6.144,50.258C6.142,50.431 6.21,50.598 6.332,50.721L8.65,53.061C8.889,53.3 9.275,53.305 9.52,53.073C11.331,51.434 13.687,50.526 16.13,50.525ZM20.774,55.649C20.778,55.823 20.71,55.99 20.586,56.111L16.575,60.155C16.457,60.274 16.297,60.341 16.13,60.341C15.963,60.341 15.802,60.274 15.685,60.155L11.674,56.111C11.55,55.99 11.481,55.822 11.485,55.649C11.489,55.475 11.564,55.311 11.693,55.195C14.254,53.03 18.006,53.03 20.567,55.195C20.696,55.311 20.771,55.475 20.774,55.649Z" clip-rule="evenodd" fill-rule="evenodd" transform="rotate(-64.389 16.129 49.341)" fill="#FFFFFF"/>
</svg>
