<svg width="732" height="628" viewBox="0 0 732 628" fill="none" xmlns="http://www.w3.org/2000/svg" xmlns:xlink="http://www.w3.org/1999/xlink">
<path d="M13.809,149.993L26.395,140.958C38.98,136.441 64.151,118.371 86.175,122.889C111.346,127.406 136.517,149.993 161.687,177.097C186.858,199.684 208.883,231.305 234.053,222.27C259.223,217.753 284.395,172.579 309.565,181.614C334.735,195.166 356.761,258.409 381.931,271.961C407.101,280.996 432.273,235.822 457.443,217.753C479.467,195.166 504.639,195.166 517.223,195.166L529.809,195.166L529.809,326.17L517.223,326.17C504.639,326.17 479.467,326.17 457.443,326.17C432.273,326.17 407.101,326.17 381.931,326.17C356.761,326.17 334.735,326.17 309.565,326.17C284.395,326.17 259.223,326.17 234.053,326.17C208.883,326.17 186.858,326.17 161.687,326.17C136.517,326.17 111.346,326.17 86.175,326.17C64.151,326.17 38.98,326.17 26.395,326.17L13.809,326.17L13.809,149.993Z" clip-rule="evenodd" fill-rule="evenodd" transform="rotate(-64.389 271.809 224.17)" fill="url(#pf_0_16414_838)"/>
<path d="M218.022,467.178L230.51,459.029C242.998,454.954 267.974,438.657 289.827,442.731C314.803,446.806 339.778,467.178 364.754,491.625C389.73,511.997 411.583,540.519 436.558,532.37C461.534,528.295 486.51,487.55 511.486,495.699C536.462,507.923 558.314,564.965 583.29,577.189C608.266,585.338 633.242,544.593 658.218,528.295C680.07,507.923 705.046,507.923 717.534,507.923L730.022,507.923L730.022,626.083L717.534,626.083C705.046,626.083 680.07,626.083 658.218,626.083C633.242,626.083 608.266,626.083 583.29,626.083C558.314,626.083 536.462,626.083 511.486,626.083C486.51,626.083 461.534,626.083 436.558,626.083C411.583,626.083 389.73,626.083 364.754,626.083C339.778,626.083 314.803,626.083 289.827,626.083C267.974,626.083 242.998,626.083 230.51,626.083L218.022,626.083L218.022,467.178Z" clip-rule="evenodd" fill-rule="evenodd" transform="rotate(-64.389 474.022 534.083)" fill="url(#pf_0_16414_839)"/>
<defs>
<linearGradient id="pf_0_16414_838" x1="217.464" y1="137.853" x2="326.155" y2="310.486" gradientUnits="userSpaceOnUse">
<stop stop-color="#FFFFFF" stop-opacity="0.36"/>
<stop offset="1" stop-color="#FA6F48" stop-opacity="0"/>
</linearGradient>
<linearGradient id="pf_0_16414_839" x1="425.005" y1="456.228" x2="523.04" y2="611.937" gradientUnits="userSpaceOnUse">
<stop stop-color="#FFFFFF" stop-opacity="0.36"/>
<stop offset="1" stop-color="#FA6F48" stop-opacity="0"/>
</linearGradient>
</defs>
</svg>
