<svg width="84" height="60" viewBox="0 0 84 60" fill="none" xmlns="http://www.w3.org/2000/svg" xmlns:xlink="http://www.w3.org/1999/xlink">
<g opacity="0.35" style="isolation:isolate">
<rect  x="31.742" y="25.199" width="42" height="20.667" rx="4.333" transform="rotate(-63.346 31.742 25.199)" stroke="#FFFFFF" stroke-width="1" stroke-miterlimit="3.999327"/>
</g>
<g opacity="0.4" style="isolation:isolate">
<path d="M75.268,5.668L75.268,13.668C76.877,12.991 77.924,11.414 77.924,9.668C77.924,7.922 76.877,6.346 75.268,5.668Z" transform="rotate(-63.346 76.596 9.668)" fill="#FFFFFF"/>
</g>
<rect  x="35.871" y="26.177" width="36" height="14.667" rx="2.667" transform="rotate(-63.346 35.871 26.177)" fill="#FFFFFF"/>
<path d="M14.58,41.101C19.03,41.102 23.309,42.81 26.534,45.873C26.776,46.109 27.165,46.106 27.404,45.866L29.725,43.526C29.846,43.404 29.914,43.239 29.913,43.067C29.912,42.895 29.842,42.731 29.72,42.611C21.256,34.506 7.903,34.506 -0.561,42.611C-0.683,42.731 -0.753,42.895 -0.754,43.067C-0.755,43.239 -0.688,43.404 -0.567,43.526L1.755,45.866C1.994,46.107 2.383,46.11 2.625,45.873C5.85,42.81 10.13,41.101 14.58,41.101ZM14.58,48.717C17.025,48.716 19.382,49.624 21.194,51.264C21.44,51.497 21.826,51.491 22.065,51.252L24.383,48.912C24.505,48.789 24.573,48.622 24.571,48.449C24.569,48.276 24.498,48.111 24.374,47.991C18.855,42.862 10.309,42.862 4.791,47.991C4.667,48.111 4.595,48.276 4.594,48.45C4.592,48.623 4.66,48.789 4.782,48.912L7.1,51.252C7.339,51.491 7.725,51.497 7.97,51.264C9.781,49.625 12.137,48.718 14.58,48.717ZM19.225,53.84C19.228,54.014 19.16,54.181 19.036,54.303L15.025,58.347C14.908,58.466 14.747,58.532 14.58,58.532C14.413,58.532 14.253,58.466 14.135,58.347L10.124,54.303C10,54.181 9.932,54.014 9.935,53.84C9.939,53.666 10.014,53.502 10.143,53.386C12.704,51.221 16.456,51.221 19.017,53.386C19.146,53.502 19.221,53.667 19.225,53.84Z" clip-rule="evenodd" fill-rule="evenodd" transform="rotate(-63.346 14.579 47.532)" fill="#FFFFFF"/>
</svg>
