<svg width="32" height="32" viewBox="0 0 32 32" fill="none" xmlns="http://www.w3.org/2000/svg" xmlns:xlink="http://www.w3.org/1999/xlink">
<path d="M4,7L4,5C2.895,5 2,5.895 2,7L4,7ZM28,7L30,7C30,5.895 29.105,5 28,5L28,7ZM4,9L28,9L28,5L4,5L4,9ZM26,7L26,24L30,24L30,7L26,7ZM26,24C26,23.735 26.105,23.48 26.293,23.293L29.121,26.121C29.684,25.559 30,24.796 30,24L26,24ZM26.293,23.293C26.48,23.105 26.735,23 27,23L27,27C27.796,27 28.559,26.684 29.121,26.121L26.293,23.293ZM27,23L5,23L5,27L27,27L27,23ZM5,23C5.265,23 5.52,23.105 5.707,23.293L2.879,26.121C3.441,26.684 4.204,27 5,27L5,23ZM5.707,23.293C5.895,23.48 6,23.735 6,24L2,24C2,24.796 2.316,25.559 2.879,26.121L5.707,23.293ZM6,24L6,7L2,7L2,24L6,24Z" fill="#72777A"/>
<path d="M29.351,8.474C30.166,7.728 30.221,6.463 29.474,5.649C28.728,4.834 27.463,4.779 26.649,5.526L29.351,8.474ZM16,18L14.649,19.474C15.413,20.175 16.587,20.175 17.351,19.474L16,18ZM5.351,5.526C4.537,4.779 3.272,4.834 2.526,5.649C1.779,6.463 1.834,7.728 2.649,8.474L5.351,5.526ZM26.649,5.526L14.649,16.526L17.351,19.474L29.351,8.474L26.649,5.526ZM17.351,16.526L5.351,5.526L2.649,8.474L14.649,19.474L17.351,16.526Z" fill="#72777A"/>
</svg>
