<svg width="34" height="34" viewBox="0 0 34 34" fill="none" xmlns="http://www.w3.org/2000/svg" xmlns:xlink="http://www.w3.org/1999/xlink">
<path d="M15.969,34C25.266,34 32.942,26.324 32.942,17.031C32.942,7.747 25.253,0.058 15.956,0.058C6.675,0.058 -1,7.747 -1,17.031C-1,26.324 6.689,34 15.969,34Z" fill="#757880"/>
<path d="M8.682,26.193C8.252,26.193 7.87,25.808 7.87,25.378C7.87,24.952 8.252,24.62 8.682,24.62L8.979,24.62L8.979,9.437C8.979,8.035 9.757,7.271 11.146,7.271L18.532,7.271C19.937,7.271 20.699,8.035 20.699,9.437L20.699,21.115L23.142,21.115C23.639,21.115 23.912,20.868 23.912,20.358L23.912,16.035L22.549,14.447C22.062,13.881 22.029,13.384 22.463,12.785L23.693,11.067L22.52,9.195C22.044,8.395 23.201,7.687 23.698,8.478L24.845,10.344C25.111,10.801 25.286,11.258 25.286,11.821L25.286,20.371C25.286,21.767 24.547,22.512 23.133,22.512L20.699,22.512L20.699,24.62L20.983,24.62C21.45,24.62 21.808,24.955 21.808,25.378C21.808,25.808 21.45,26.193 20.983,26.193L8.682,26.193ZM11.247,15.699C11.247,16.207 11.599,16.537 12.151,16.537L17.538,16.537C18.095,16.537 18.445,16.207 18.445,15.699L18.445,10.393C18.445,9.888 18.095,9.571 17.538,9.571L12.151,9.571C11.599,9.571 11.247,9.888 11.247,10.393L11.247,15.699Z" fill="#E9EAF4"/>
</svg>
