<svg width="100" height="102" viewBox="0 0 100 102" fill="none" xmlns="http://www.w3.org/2000/svg" xmlns:xlink="http://www.w3.org/1999/xlink">
<path d="M96.739,22.174L81.522,22.174C76.128,22.174 71.739,26.65 71.739,32.152L71.739,65.413C71.739,67.247 70.276,68.739 68.478,68.739L65.217,68.739L65.217,9.978C65.217,4.476 60.829,0 55.435,0L16.304,0C10.91,0 6.522,4.476 6.522,9.978L6.522,95.348L3.261,95.348C1.46,95.348 0,96.837 0,98.674C0,100.511 1.46,102 3.261,102C5.034,102 66.759,102 68.478,102C70.279,102 71.739,100.511 71.739,98.674C71.739,96.837 70.279,95.348 68.478,95.348L65.217,95.348L65.217,75.391L68.478,75.391C73.872,75.391 78.261,70.915 78.261,65.413L78.261,42.13L81.522,42.13C86.916,42.13 91.304,37.654 91.304,32.152L91.304,28.826L96.739,28.826C98.54,28.826 100,27.337 100,25.5C100,23.663 98.54,22.174 96.739,22.174ZM58.696,95.348L13.044,95.348L13.044,46.565L58.696,46.565L58.696,95.348ZM58.696,39.913L13.044,39.913L13.044,9.978C13.044,8.144 14.506,6.652 16.304,6.652L55.435,6.652C57.233,6.652 58.696,8.144 58.696,9.978L58.696,39.913L58.696,39.913ZM84.783,32.152C84.783,33.986 83.32,35.478 81.522,35.478L78.261,35.478L78.261,32.152C78.261,30.318 79.724,28.826 81.522,28.826L84.783,28.826L84.783,32.152Z" fill="#FF3E47"/>
<path d="M44.347,67.089L38.694,57.099C38.111,56.069 37.034,55.435 35.869,55.435C34.704,55.435 33.628,56.069 33.045,57.099L27.392,67.089C26.538,68.598 26.087,70.319 26.087,72.065C26.087,77.567 30.475,82.044 35.869,82.044C41.264,82.044 45.652,77.567 45.652,72.065C45.652,69.677 44.9,68.216 44.347,67.089ZM35.87,75.392C34.072,75.392 32.609,73.899 32.609,72.065C32.609,70.911 32.799,70.842 35.87,65.415C38.947,70.852 39.131,70.915 39.131,72.065C39.131,73.899 37.668,75.392 35.87,75.392Z" fill="#FF3E47"/>
</svg>
