<svg width="24" height="34" viewBox="0 0 24 34" fill="none" xmlns="http://www.w3.org/2000/svg" xmlns:xlink="http://www.w3.org/1999/xlink">
<path d="M12.001,0.635C4.679,0.635 0,5.163 0,12.438L0,20.747C0,28.024 4.679,32.539 12.001,32.539C19.321,32.539 24,28.024 24,20.747L24,12.438C24,5.163 19.321,0.635 12.001,0.635Z" fill="#757880"/>
<g style="isolation:isolate">
<path d="M11.478,22.533C13.986,22.532 15.652,20.845 15.652,18.317C15.652,17.085 15.177,15.815 14.752,14.877C14.131,13.464 13.111,11.926 12.229,10.521C12.021,10.196 11.764,10.026 11.478,10.026C11.198,10.026 10.936,10.196 10.728,10.521C9.836,11.94 8.807,13.495 8.182,14.921C7.775,15.845 7.304,17.097 7.304,18.317C7.304,20.845 8.972,22.532 11.478,22.533Z" fill="#E9EAF4"/>
</g>
</svg>
