<svg width="62" height="60" viewBox="0 0 62 60" fill="none" xmlns="http://www.w3.org/2000/svg" xmlns:xlink="http://www.w3.org/1999/xlink">
<path d="M59.978,13.043L50.543,13.043C47.199,13.043 44.478,15.677 44.478,18.913L44.478,38.478C44.478,39.557 43.571,40.435 42.456,40.435L40.435,40.435L40.435,5.87C40.435,2.633 37.714,0 34.37,0L10.109,0C6.764,0 4.043,2.633 4.043,5.87L4.043,56.087L2.022,56.087C0.905,56.087 0,56.963 0,58.043C0,59.124 0.905,60 2.022,60C3.121,60 41.39,60 42.457,60C43.573,60 44.478,59.124 44.478,58.043C44.478,56.963 43.573,56.087 42.457,56.087L40.435,56.087L40.435,44.348L42.457,44.348C45.801,44.348 48.522,41.715 48.522,38.478L48.522,24.783L50.544,24.783C53.888,24.783 56.609,22.149 56.609,18.913L56.609,16.956L59.978,16.956C61.095,16.956 62,16.08 62,15C62,13.919 61.095,13.043 59.978,13.043ZM36.391,56.087L8.087,56.087L8.087,27.391L36.391,27.391L36.391,56.087ZM36.391,23.478L8.087,23.478L8.087,5.87C8.087,4.791 8.994,3.913 10.109,3.913L34.37,3.913C35.484,3.913 36.391,4.791 36.391,5.87L36.391,23.478L36.391,23.478ZM52.565,18.913C52.565,19.992 51.658,20.87 50.543,20.87L48.522,20.87L48.522,18.913C48.522,17.834 49.429,16.956 50.543,16.956L52.565,16.956L52.565,18.913Z" fill="#404446"/>
<path d="M27.495,39.464L23.99,33.587C23.629,32.982 22.961,32.609 22.239,32.609C21.517,32.609 20.849,32.982 20.488,33.587L16.983,39.464C16.454,40.352 16.174,41.364 16.174,42.391C16.174,45.628 18.895,48.261 22.239,48.261C25.583,48.261 28.304,45.628 28.304,42.391C28.304,40.987 27.838,40.127 27.495,39.464ZM22.239,44.348C21.124,44.348 20.217,43.47 20.217,42.391C20.217,41.712 20.335,41.672 22.239,38.479C24.147,41.678 24.261,41.715 24.261,42.391C24.261,43.47 23.354,44.348 22.239,44.348Z" fill="#404446"/>
</svg>
