<svg width="130" height="126" viewBox="0 0 130 126" fill="none" xmlns="http://www.w3.org/2000/svg" xmlns:xlink="http://www.w3.org/1999/xlink">
<path d="M125.761,27.391L105.978,27.391C98.966,27.391 93.261,32.921 93.261,39.717L93.261,80.804C93.261,83.07 91.359,84.913 89.022,84.913L84.782,84.913L84.782,12.326C84.783,5.529 79.078,0 72.065,0L21.196,0C14.183,0 8.478,5.529 8.478,12.326L8.478,117.783L4.239,117.783C1.898,117.783 0,119.622 0,121.891C0,124.16 1.898,126 4.239,126C6.545,126 86.786,126 89.022,126C91.363,126 93.261,124.16 93.261,121.891C93.261,119.622 91.363,117.782 89.022,117.782L84.783,117.782L84.783,93.13L89.022,93.13C96.034,93.13 101.739,87.601 101.739,80.804L101.739,52.043L105.978,52.043C112.991,52.043 118.696,46.514 118.696,39.717L118.696,35.609L125.761,35.609C128.102,35.609 130,33.769 130,31.5C130,29.231 128.102,27.391 125.761,27.391ZM76.304,117.783L16.957,117.783L16.957,57.522L76.304,57.522L76.304,117.783ZM76.304,49.304L16.957,49.304L16.957,12.326C16.957,10.061 18.858,8.217 21.196,8.217L72.065,8.217C74.403,8.217 76.305,10.061 76.305,12.326L76.305,49.304L76.304,49.304ZM110.217,39.717C110.217,41.983 108.316,43.826 105.978,43.826L101.739,43.826L101.739,39.717C101.739,37.452 103.641,35.609 105.978,35.609L110.217,35.609L110.217,39.717Z" fill="#FFFFFF"/>
<path d="M57.651,82.874L50.302,70.533C49.544,69.262 48.145,68.479 46.63,68.479C45.116,68.479 43.716,69.262 42.959,70.533L35.61,82.874C34.5,84.739 33.913,86.865 33.913,89.022C33.913,95.819 39.618,101.348 46.63,101.348C53.642,101.348 59.348,95.819 59.348,89.022C59.348,86.072 58.37,84.266 57.651,82.874ZM46.63,93.131C44.293,93.131 42.391,91.288 42.391,89.022C42.391,87.595 42.638,87.511 46.63,80.806C50.631,87.523 50.87,87.601 50.87,89.022C50.87,91.288 48.968,93.131 46.63,93.131Z" fill="#FFFFFF"/>
</svg>
