<svg width="32" height="34" viewBox="0 0 32 34" fill="none" xmlns="http://www.w3.org/2000/svg" xmlns:xlink="http://www.w3.org/1999/xlink">
<path d="M3.392,15.337C3.392,9.566 8.07,4.888 13.84,4.888C19.61,4.888 24.288,9.566 24.288,15.337C24.288,18.134 23.189,20.674 21.4,22.55C21.336,22.6 21.275,22.654 21.217,22.712C21.158,22.771 21.104,22.832 21.054,22.896C19.179,24.687 16.638,25.786 13.84,25.786C8.07,25.786 3.392,21.108 3.392,15.337ZM22.546,26.87C20.125,28.701 17.109,29.786 13.84,29.786C5.86,29.786 -0.608,23.317 -0.608,15.337C-0.608,7.357 5.86,0.888 13.84,0.888C21.82,0.888 28.288,7.357 28.288,15.337C28.288,18.605 27.203,21.62 25.374,24.041L30.814,29.481C31.595,30.262 31.595,31.529 30.814,32.31C30.033,33.091 28.766,33.091 27.985,32.31L22.546,26.87Z" clip-rule="evenodd" fill-rule="evenodd" transform="rotate(-64.389 15.396 16.892)" fill="#FF3E47"/>
</svg>
