<svg width="34" height="34" viewBox="0 0 34 34" fill="none" xmlns="http://www.w3.org/2000/svg" xmlns:xlink="http://www.w3.org/1999/xlink">
<path d="M4,14.449C4,8.678 8.678,4 14.448,4C20.218,4 24.896,8.678 24.896,14.449C24.896,17.246 23.797,19.787 22.008,21.662C21.944,21.712 21.883,21.766 21.825,21.824C21.766,21.883 21.712,21.944 21.662,22.008C19.787,23.799 17.246,24.899 14.448,24.899C8.678,24.899 4,20.221 4,14.449ZM23.154,25.982C20.733,27.813 17.717,28.899 14.448,28.899C6.468,28.899 0,22.429 0,14.449C0,6.469 6.468,0 14.448,0C22.428,0 28.896,6.469 28.896,14.449C28.896,17.717 27.811,20.732 25.982,23.153L31.422,28.594C32.203,29.375 32.203,30.641 31.422,31.422C30.641,32.203 29.374,32.203 28.593,31.422L23.154,25.982Z" clip-rule="evenodd" fill-rule="evenodd" fill="#FF3E47"/>
</svg>
