<svg width="24" height="40" viewBox="0 0 24 40" fill="none" xmlns="http://www.w3.org/2000/svg" xmlns:xlink="http://www.w3.org/1999/xlink">
<path d="M0,19.878C0,20.642 0.292,21.293 0.898,21.877L18.418,39.015C18.89,39.509 19.519,39.756 20.237,39.756C21.697,39.756 22.843,38.633 22.843,37.15C22.843,36.432 22.551,35.78 22.057,35.286L6.267,19.878L22.057,4.47C22.551,3.953 22.843,3.302 22.843,2.583C22.843,1.123 21.697,0 20.237,0C19.519,0 18.89,0.247 18.418,0.741L0.898,17.879C0.292,18.463 0.022,19.114 0,19.878Z" fill="#FFFFFF"/>
</svg>
