<svg width="36" height="24" viewBox="0 0 36 24" fill="none" xmlns="http://www.w3.org/2000/svg" xmlns:xlink="http://www.w3.org/1999/xlink">
<path d="M20,6C20,4.895 20.895,4 22,4L24,4C25.105,4 26,4.895 26,6L26,22C26,23.105 25.105,24 24,24L22,24C20.895,24 20,23.105 20,22L20,6Z" fill="#FFFFFF"/>
<path d="M30,2C30,0.895 30.895,0 32,0L34,0C35.105,0 36,0.895 36,2L36,22C36,23.105 35.105,24 34,24L32,24C30.895,24 30,23.105 30,22L30,2Z" fill="#FFFFFF"/>
<path d="M10,13C10,11.895 10.895,11 12,11L14,11C15.105,11 16,11.895 16,13L16,22C16,23.105 15.105,24 14,24L12,24C10.895,24 10,23.105 10,22L10,13Z" fill="#FFFFFF"/>
<path d="M0,18C0,16.895 0.895,16 2,16L4,16C5.105,16 6,16.895 6,18L6,22C6,23.105 5.105,24 4,24L2,24C0.895,24 0,23.105 0,22L0,18Z" fill="#FFFFFF"/>
</svg>
