<svg width="48" height="8" viewBox="0 0 48 8" fill="none" xmlns="http://www.w3.org/2000/svg" xmlns:xlink="http://www.w3.org/1999/xlink">
<g opacity="0.9">
<path d="M7.812,2.884L7.812,4.676L5.264,4.564L6.748,6.608L5.152,7.56L3.892,5.264L2.632,7.56L1.064,6.608L2.52,4.564L0,4.676L0,2.884L2.52,3.024L1.064,0.952L2.632,0L3.892,2.296L5.152,0L6.748,0.952L5.264,3.024L7.812,2.884Z" fill="#FFFFFF"/>
<path d="M20.832,2.884L20.832,4.676L18.284,4.564L19.768,6.608L18.172,7.56L16.912,5.264L15.652,7.56L14.084,6.608L15.54,4.564L13.02,4.676L13.02,2.884L15.54,3.024L14.084,0.952L15.652,0L16.912,2.296L18.172,0L19.768,0.952L18.284,3.024L20.832,2.884Z" fill="#FFFFFF"/>
<path d="M33.851,2.884L33.851,4.676L31.303,4.564L32.787,6.608L31.191,7.56L29.931,5.264L28.671,7.56L27.103,6.608L28.559,4.564L26.039,4.676L26.039,2.884L28.559,3.024L27.103,0.952L28.671,0L29.931,2.296L31.191,0L32.787,0.952L31.303,3.024L33.851,2.884Z" fill="#FFFFFF"/>
<path d="M46.871,2.884L46.871,4.676L44.323,4.564L45.807,6.608L44.211,7.56L42.951,5.264L41.691,7.56L40.123,6.608L41.579,4.564L39.059,4.676L39.059,2.884L41.579,3.024L40.123,0.952L41.691,0L42.951,2.296L44.211,0L45.807,0.952L44.323,3.024L46.871,2.884Z" fill="#FFFFFF"/>
</g>
</svg>
