<svg width="348" height="14" viewBox="0 0 348 14" fill="none" xmlns="http://www.w3.org/2000/svg" xmlns:xlink="http://www.w3.org/1999/xlink">
<path d="M0.167,6.5C0.167,9.446 2.554,11.833 5.5,11.833C8.446,11.833 10.833,9.446 10.833,6.5C10.833,3.554 8.446,1.167 5.5,1.167C2.554,1.167 0.167,3.554 0.167,6.5ZM347.208,7.207C347.598,6.817 347.598,6.183 347.208,5.793L340.844,-0.571C340.452,-0.962 339.82,-0.962 339.428,-0.571C339.038,-0.181 339.038,0.453 339.428,0.843L345.086,6.5L339.428,12.157C339.038,12.547 339.038,13.181 339.428,13.571C339.82,13.962 340.452,13.962 340.844,13.571L347.208,7.207ZM5.5,7.5L346.5,7.5L346.5,5.5L5.5,5.5L5.5,7.5Z" transform="rotate(180 176 6.5)" fill="#000000"/>
</svg>
