<svg width="42" height="16" viewBox="0 0 42 16" fill="none" xmlns="http://www.w3.org/2000/svg" xmlns:xlink="http://www.w3.org/1999/xlink">
<path d="M0.667,7C0.667,9.946 3.054,12.333 6,12.333C8.946,12.333 11.333,9.946 11.333,7C11.333,4.054 8.946,1.667 6,1.667C3.054,1.667 0.667,4.054 0.667,7ZM40.707,7.707C41.098,7.317 41.098,6.683 40.707,6.293L34.343,-0.071C33.953,-0.462 33.319,-0.462 32.929,-0.071C32.538,0.319 32.538,0.953 32.929,1.343L38.586,7L32.929,12.657C32.538,13.047 32.538,13.681 32.929,14.071C33.319,14.462 33.953,14.462 34.343,14.071L40.707,7.707ZM6,8L40,8L40,6L6,6L6,8Z" transform="rotate(180 23 7)" fill="#000000"/>
</svg>
