<svg width="32" height="32" viewBox="0 0 32 32" fill="none" xmlns="http://www.w3.org/2000/svg" xmlns:xlink="http://www.w3.org/1999/xlink">
<path d="M16.499,17.5C16.499,17.776 16.275,18 15.999,18L15.999,22C18.485,22 20.499,19.985 20.499,17.5L16.499,17.5ZM15.999,18C15.723,18 15.499,17.776 15.499,17.5L11.499,17.5C11.499,19.985 13.514,22 15.999,22L15.999,18ZM15.499,17.5C15.499,17.224 15.723,17 15.999,17L15.999,13C13.514,13 11.499,15.015 11.499,17.5L15.499,17.5ZM15.999,17C16.275,17 16.499,17.224 16.499,17.5L20.499,17.5C20.499,15.015 18.485,13 15.999,13L15.999,17Z" fill="#72777A"/>
<line x1="13.999" y1="20" x2="13.999" y2="23" stroke="#72777A" stroke-width="2" stroke-miterlimit="3.999327" stroke-linecap="round" stroke-linejoin="round"/>
<path d="M5.999,13L25.999,13L25.999,9L5.999,9L5.999,13ZM25.999,13C25.447,13 24.999,12.552 24.999,12L28.999,12C28.999,10.343 27.656,9 25.999,9L25.999,13ZM24.999,12L24.999,26L28.999,26L28.999,12L24.999,12ZM24.999,26C24.999,25.448 25.447,25 25.999,25L25.999,29C27.656,29 28.999,27.657 28.999,26L24.999,26ZM25.999,25L5.999,25L5.999,29L25.999,29L25.999,25ZM5.999,25C6.552,25 6.999,25.448 6.999,26L2.999,26C2.999,27.657 4.342,29 5.999,29L5.999,25ZM6.999,26L6.999,12L2.999,12L2.999,26L6.999,26ZM6.999,12C6.999,12.552 6.552,13 5.999,13L5.999,9C4.342,9 2.999,10.343 2.999,12L6.999,12Z" fill="#72777A"/>
<path d="M9.499,11C9.499,12.105 10.395,13 11.499,13C12.604,13 13.499,12.105 13.499,11L9.499,11ZM11.499,6.5L9.499,6.5L11.499,6.5ZM15.999,2L15.999,0L15.999,2ZM18.499,11C18.499,12.105 19.395,13 20.499,13C21.604,13 22.499,12.105 22.499,11L18.499,11ZM13.499,11L13.499,6.5L9.499,6.5L9.499,11L13.499,11ZM13.499,6.5C13.499,5.837 13.763,5.201 14.232,4.732L11.403,1.904C10.184,3.123 9.499,4.776 9.499,6.5L13.499,6.5ZM14.232,4.732C14.7,4.263 15.336,4 15.999,4L15.999,0C14.275,0 12.622,0.685 11.403,1.904L14.232,4.732ZM15.999,4C16.662,4 17.298,4.263 17.767,4.732L20.595,1.904C19.376,0.685 17.723,0 15.999,0L15.999,4ZM17.767,4.732C18.236,5.201 18.499,5.837 18.499,6.5L22.499,6.5C22.499,4.776 21.814,3.123 20.595,1.904L17.767,4.732ZM18.499,6.5L18.499,11L22.499,11L22.499,6.5L18.499,6.5Z" fill="#72777A"/>
</svg>
