<svg width="952" height="1418" viewBox="0 0 952 1418" fill="none" xmlns="http://www.w3.org/2000/svg" xmlns:xlink="http://www.w3.org/1999/xlink">
<mask id="mask_0_16413_588" style="mask-type:alpha" maskUnits="userSpaceOnUse" x="120" y="640" width="163" height="206">
<rect  x="120" y="640" width="326" height="412" rx="32" fill="#C4C4C4"/>
</mask>
<rect  x="118" y="638" width="328" height="414" rx="31" stroke="#1D1E22" stroke-width="1" stroke-miterlimit="3.999327"/>
<g mask="url(#mask_0_16413_588)">
<path d="M939.843,284.396L846.863,171.141L821.077,170.537L821.077,502.156L822.395,502.642L821.077,506.216L821.077,1085.944L931.989,1014.444L939.305,1025.794L819.549,1102.996L821.425,1105.856L624.733,1234.944L624.603,1235.798L617.927,1244.212L569.635,1305.082L596.887,1342.33L585.989,1350.302L560.929,1316.054L557.429,1320.464L538.579,1321.008L491.535,1322.362L346.169,1417.764L338.759,1406.474L465.793,1323.102L94.502,1333.792L93.672,1304.956L0.719,1308.11L-0.197,1281.116L92.895,1277.958L92.171,1252.802L279.179,1247.418L217.061,1126.036L144.667,984.576L119.343,1003.384L118.474,1004.028L117.572,1004.626L59.998,1042.792L15.23,975.26L71.903,937.692L209.389,835.582L87.887,669.518L85.709,666.542L87.038,663.1L223.191,310.362L65.974,252.358L65.972,252.358L75.319,227.02L75.321,227.02L232.923,285.144L282.029,157.925L75.564,153.094L76.206,125.67L63.805,125.341L64.522,98.343L76.838,98.67L77.46,72.093L313.031,77.605L320.421,58.46L333.019,63.322L327.377,77.94L549.605,83.14L553.613,43.186L580.485,45.882L576.685,83.774L779.023,88.508L714.023,9.337L724.461,0.768L796.837,88.925L897.081,91.27L896.423,119.395L908.173,119.395L908.173,146.403L895.791,146.403L895.185,172.271L864.677,171.558L950.281,275.826L939.843,284.396ZM568.577,164.63L679.539,167.226L698.095,456.784L544.941,400.28L568.577,164.63ZM541.497,163.996L518.773,390.568L359.425,331.798L420.001,161.153L541.497,163.996ZM346.753,327.126L405.789,160.821L296.375,158.261L245.595,289.818L346.753,327.126ZM235.861,315.036L332.211,350.584L285.529,575.422L181.383,469.376L173.177,477.434L235.861,315.036ZM357.833,360.036L504.957,414.316L392.191,653.628L309.095,594.772L357.833,360.036ZM517.675,419.008L403.383,661.556L496.113,727.238L647.093,466.754L517.675,419.008ZM659.899,471.478L659.947,471.506L504.087,740.408L503.235,741.88L615.217,824.152L680.529,481.776L695.597,484.65L659.899,471.478ZM758.069,507.698L646.959,1090.162L627.491,1216.982L807.573,1098.794L807.573,1098.33L807.573,525.962L758.069,507.698ZM807.573,497.174L807.573,170.221L706.641,167.86L725.815,467.01L807.573,497.174ZM505.935,1240.89L294.127,1246.988L233.051,1127.642L396.293,1091.036L505.935,1240.89ZM336.939,1009.91L387.595,1079.146L226.699,1115.226L155.659,976.412L257.235,900.974L270.797,919.512L336.939,1009.91ZM167.045,493.322L100.964,664.522L230.141,841.074L278.917,607.234L167.045,493.322ZM251.609,870.416L274.983,902.364L386.345,666.036L306.097,609.196L251.609,870.416ZM547.777,1202.268L520.013,1237.262L350.439,1005.494L462.365,812.394L598.397,912.334L567.233,1075.698L567.095,1076.418L566.985,1077.142L547.777,1202.268ZM341.731,993.592L489.313,738.97L397.537,673.964L284.063,914.776L341.731,993.592Z" clip-rule="evenodd" fill-rule="evenodd" transform="rotate(0 475.042 709.266)" fill="#1D1E22"/>
</g>
<circle cx="394" cy="712" r="8" stroke="#838990" stroke-width="2" stroke-miterlimit="3.999327"/>
<circle cx="154" cy="782" r="8" stroke="#838990" stroke-width="2" stroke-miterlimit="3.999327"/>
<path d="M295.999,962.663L294.109,963.317L294.109,963.317L295.999,962.663ZM298.85,962.613L296.939,962.025L296.939,962.025L298.85,962.613ZM303.267,948.259L305.179,948.847L305.179,948.847L303.267,948.259ZM304.259,947.266L304.848,949.178L304.848,949.178L304.259,947.266ZM318.614,942.85L318.026,940.938L318.614,942.85ZM318.663,939.999L319.317,938.109L319.317,938.109L318.663,939.999ZM286.919,929.01L286.265,930.9L286.265,930.9L286.919,929.01ZM283.121,931.573L294.109,963.317L297.889,962.008L286.901,930.264L283.121,931.573ZM294.109,963.317C294.351,964.014 294.806,964.618 295.411,965.041L297.703,961.762C297.789,961.823 297.855,961.909 297.889,962.008L294.109,963.317ZM295.411,965.041C296.016,965.463 296.739,965.684 297.477,965.671L297.408,961.672C297.513,961.67 297.617,961.702 297.703,961.762L295.411,965.041ZM297.477,965.671C298.215,965.659 298.93,965.413 299.52,964.969L297.116,961.772C297.2,961.709 297.302,961.674 297.408,961.672L297.477,965.671ZM299.52,964.969C300.11,964.526 300.545,963.907 300.762,963.201L296.939,962.025C296.97,961.924 297.032,961.836 297.116,961.772L299.52,964.969ZM300.762,963.201L305.179,948.847L301.355,947.671L296.939,962.025L300.762,963.201ZM305.179,948.847C305.155,948.925 305.112,948.996 305.054,949.054L302.226,946.225C301.822,946.629 301.523,947.125 301.355,947.671L305.179,948.847ZM305.054,949.054C304.997,949.111 304.926,949.154 304.848,949.178L303.671,945.355C303.126,945.523 302.629,945.822 302.226,946.225L305.054,949.054ZM304.848,949.178L319.202,944.761L318.026,940.938L303.671,945.355L304.848,949.178ZM319.202,944.761C319.907,944.544 320.526,944.11 320.97,943.52L317.773,941.116C317.836,941.031 317.925,940.969 318.026,940.938L319.202,944.761ZM320.97,943.52C321.413,942.93 321.659,942.215 321.672,941.477L317.673,941.407C317.674,941.302 317.71,941.2 317.773,941.116L320.97,943.52ZM321.672,941.477C321.685,940.739 321.464,940.016 321.041,939.411L317.763,941.703C317.702,941.616 317.671,941.513 317.673,941.407L321.672,941.477ZM321.041,939.411C320.618,938.806 320.015,938.35 319.317,938.109L318.009,941.889C317.909,941.854 317.823,941.789 317.763,941.703L321.041,939.411ZM319.317,938.109L287.573,927.12L286.265,930.9L318.009,941.889L319.317,938.109ZM287.573,927.12C286.952,926.905 286.284,926.87 285.644,927.017L286.54,930.915C286.449,930.936 286.353,930.931 286.265,930.9L287.573,927.12ZM285.644,927.017C285.003,927.164 284.418,927.488 283.953,927.953L286.782,930.781C286.715,930.848 286.632,930.894 286.54,930.915L285.644,927.017ZM283.953,927.953C283.489,928.417 283.164,929.003 283.017,929.643L286.915,930.54C286.894,930.631 286.848,930.715 286.782,930.781L283.953,927.953ZM283.017,929.643C282.87,930.283 282.906,930.952 283.121,931.573L286.901,930.264C286.931,930.353 286.936,930.448 286.915,930.54L283.017,929.643Z" fill="#FF3E47"/>
</svg>
