<svg width="950" height="1418" viewBox="0 0 950 1418" fill="none" xmlns="http://www.w3.org/2000/svg" xmlns:xlink="http://www.w3.org/1999/xlink">
<mask id="mask_0_16414_1004" style="mask-type:alpha" maskUnits="userSpaceOnUse" x="136.125977" y="665.623188" width="246.887412" height="260.904706">
<rect  x="136.126" y="836.797" width="326" height="412" rx="32" transform="rotate(-63.346 136.126 836.797)" fill="#C4C4C4"/>
</mask>
<rect  x="134.75" y="836.471" width="328" height="414" rx="31" transform="rotate(-63.346 134.75 836.471)" stroke="#1D1E22" stroke-width="1" stroke-miterlimit="3.999327"/>
<g mask="url(#mask_0_16414_1004)">
<path d="M939.457,284.453L846.477,171.198L820.691,170.595L820.691,502.213L822.009,502.699L820.691,506.273L820.691,1086.001L931.603,1014.501L938.919,1025.851L819.163,1103.053L821.039,1105.913L624.347,1235.001L624.217,1235.855L617.541,1244.269L569.249,1305.139L596.501,1342.387L585.603,1350.359L560.543,1316.111L557.043,1320.521L538.193,1321.065L491.149,1322.419L345.783,1417.821L338.373,1406.531L465.407,1323.159L94.117,1333.849L93.287,1305.013L0.333,1308.167L-0.583,1281.173L92.51,1278.015L91.785,1252.859L278.793,1247.475L216.675,1126.093L144.282,984.633L118.957,1003.441L118.089,1004.085L117.187,1004.683L59.613,1042.849L14.845,975.317L71.517,937.749L209.003,835.639L87.502,669.575L85.324,666.599L86.652,663.157L222.805,310.419L65.588,252.415L65.587,252.415L74.934,227.077L74.935,227.077L232.537,285.201L281.643,157.983L75.179,153.152L75.821,125.728L63.42,125.398L64.137,98.4L76.452,98.727L77.074,72.151L312.645,77.662L320.035,58.517L332.633,63.38L326.991,77.998L549.219,83.198L553.227,43.244L580.099,45.939L576.299,83.831L778.637,88.565L713.637,9.394L724.075,0.825L796.451,88.982L896.695,91.328L896.037,119.453L907.787,119.453L907.787,146.46L895.405,146.46L894.799,172.329L864.291,171.615L949.895,275.883L939.457,284.453ZM568.191,164.687L679.153,167.283L697.709,456.841L544.555,400.337L568.191,164.687ZM541.111,164.054L518.387,390.625L359.039,331.855L419.615,161.211L541.111,164.054ZM346.367,327.183L405.403,160.878L295.989,158.318L245.209,289.875L346.367,327.183ZM235.475,315.093L331.825,350.641L285.143,575.479L180.998,469.433L172.792,477.491L235.475,315.093ZM357.447,360.093L504.571,414.373L391.805,653.685L308.709,594.829L357.447,360.093ZM517.289,419.065L402.997,661.613L495.727,727.295L646.707,466.811L517.289,419.065ZM659.513,471.535L659.561,471.563L503.701,740.465L502.849,741.937L614.831,824.209L680.143,481.833L695.211,484.707L659.513,471.535ZM757.683,507.755L646.573,1090.219L627.105,1217.039L807.187,1098.851L807.187,1098.387L807.187,526.019L757.683,507.755ZM807.187,497.231L807.187,170.279L706.255,167.918L725.429,467.067L807.187,497.231ZM505.549,1240.947L293.741,1247.045L232.665,1127.699L395.907,1091.093L505.549,1240.947ZM336.553,1009.967L387.209,1079.203L226.313,1115.283L155.273,976.469L256.849,901.031L270.411,919.569L336.553,1009.967ZM166.66,493.379L100.579,664.579L229.755,841.131L278.531,607.291L166.66,493.379ZM251.223,870.473L274.597,902.421L385.959,666.093L305.711,609.253L251.223,870.473ZM547.391,1202.325L519.627,1237.319L350.053,1005.551L461.979,812.451L598.011,912.391L566.847,1075.755L566.709,1076.475L566.599,1077.199L547.391,1202.325ZM341.345,993.649L488.927,739.027L397.151,674.021L283.677,914.833L341.345,993.649Z" clip-rule="evenodd" fill-rule="evenodd" transform="rotate(-63.346 474.656 709.323)" fill="#1D1E22"/>
</g>
<circle cx="407.121" cy="754.203" r="8" transform="rotate(-63.346 407.121 754.203)" stroke="#838990" stroke-width="2" stroke-miterlimit="3.999327"/>
<circle cx="239.622" cy="939.795" r="8" transform="rotate(-63.346 239.622 939.795)" stroke="#838990" stroke-width="2" stroke-miterlimit="3.999327"/>
<path d="M445.803,1018.118L443.913,1018.772L443.913,1018.772L445.803,1018.118ZM448.654,1018.068L446.742,1017.48L446.742,1017.48L448.654,1018.068ZM453.071,1003.714L454.982,1004.302L454.982,1004.302L453.071,1003.714ZM454.063,1002.721L454.651,1004.633L454.651,1004.633L454.063,1002.721ZM468.417,998.305L467.829,996.393L468.417,998.305ZM468.467,995.453L469.121,993.564L469.121,993.564L468.467,995.453ZM436.722,984.465L436.068,986.355L436.068,986.355L436.722,984.465ZM432.924,987.027L443.913,1018.772L447.693,1017.463L436.704,985.719L432.924,987.027ZM443.913,1018.772C444.154,1019.469 444.61,1020.073 445.215,1020.496L447.507,1017.217C447.593,1017.278 447.658,1017.364 447.693,1017.463L443.913,1018.772ZM445.215,1020.496C445.82,1020.918 446.543,1021.139 447.281,1021.126L447.211,1017.127C447.317,1017.125 447.42,1017.157 447.507,1017.217L445.215,1020.496ZM447.281,1021.126C448.019,1021.114 448.734,1020.868 449.324,1020.424L446.92,1017.227C447.004,1017.164 447.106,1017.129 447.211,1017.127L447.281,1021.126ZM449.324,1020.424C449.914,1019.981 450.348,1019.362 450.565,1018.656L446.742,1017.48C446.773,1017.379 446.835,1017.291 446.92,1017.227L449.324,1020.424ZM450.565,1018.656L454.982,1004.302L451.159,1003.126L446.742,1017.48L450.565,1018.656ZM454.982,1004.302C454.958,1004.38 454.915,1004.451 454.858,1004.509L452.029,1001.68C451.626,1002.084 451.327,1002.58 451.159,1003.126L454.982,1004.302ZM454.858,1004.509C454.8,1004.566 454.729,1004.609 454.651,1004.633L453.475,1000.81C452.929,1000.978 452.433,1001.276 452.029,1001.68L454.858,1004.509ZM454.651,1004.633L469.005,1000.216L467.829,996.393L453.475,1000.81L454.651,1004.633ZM469.005,1000.216C469.711,999.999 470.33,999.565 470.773,998.975L467.577,996.57C467.64,996.486 467.728,996.424 467.829,996.393L469.005,1000.216ZM470.773,998.975C471.217,998.385 471.463,997.67 471.476,996.932L467.476,996.862C467.478,996.757 467.513,996.655 467.577,996.57L470.773,998.975ZM471.476,996.932C471.488,996.194 471.268,995.471 470.845,994.866L467.566,997.157C467.506,997.071 467.474,996.968 467.476,996.862L471.476,996.932ZM470.845,994.866C470.422,994.261 469.819,993.805 469.121,993.564L467.813,997.343C467.713,997.309 467.627,997.244 467.566,997.157L470.845,994.866ZM469.121,993.564L437.377,982.575L436.068,986.355L467.813,997.343L469.121,993.564ZM437.377,982.575C436.756,982.36 436.087,982.324 435.447,982.472L436.344,986.37C436.252,986.391 436.157,986.386 436.068,986.355L437.377,982.575ZM435.447,982.472C434.807,982.619 434.221,982.943 433.757,983.408L436.585,986.236C436.519,986.302 436.435,986.349 436.344,986.37L435.447,982.472ZM433.757,983.408C433.292,983.872 432.968,984.458 432.821,985.098L436.719,985.995C436.698,986.086 436.652,986.17 436.585,986.236L433.757,983.408ZM432.821,985.098C432.674,985.738 432.709,986.407 432.924,987.027L436.704,985.719C436.735,985.808 436.74,985.903 436.719,985.995L432.821,985.098Z" transform="rotate(-63.346 452.104 1001.755)" fill="#FF3E47"/>
</svg>
