<svg width="1686" height="1180" viewBox="0 0 1686 1180" fill="none" xmlns="http://www.w3.org/2000/svg" xmlns:xlink="http://www.w3.org/1999/xlink">
<mask id="mask_0_16302_187" style="mask-type:alpha" maskUnits="userSpaceOnUse" x="704" y="0" width="375" height="516">
<rect  x="704" y="0" width="750" height="1032" fill="#31333E"/>
</mask>
<g mask="url(#mask_0_16302_187)">
<path d="M0,274.194L22.48,248.08C44.96,218.234 85.424,162.275 130.384,177.197C170.848,192.12 215.808,274.194 260.768,263.002C301.232,248.08 346.192,136.16 391.152,87.661C431.616,35.432 476.576,50.355 517.04,57.816C562,65.277 606.96,65.277 647.424,87.661C692.384,106.315 732.848,151.083 777.808,169.736C822.768,192.12 863.232,192.12 908.192,162.275C953.152,136.16 993.616,80.2 1038.576,50.355C1079.04,24.24 1124,24.24 1168.96,57.816C1209.424,91.392 1254.384,162.275 1294.848,154.813C1339.808,151.083 1384.768,65.277 1425.232,27.971C1470.192,-5.605 1515.152,9.317 1555.616,27.971C1600.576,50.355 1641.04,80.2 1663.52,91.392L1686,106.315L1686,360L1663.52,360C1641.04,360 1648.96,1144 1604,1144C1563.536,1144 1294.96,1180 1250,1180C1209.536,1180 1248.96,1180 1204,1180C1163.536,1180 1209.424,1180 1168.96,1180C1124,1180 1079.04,1180 1038.576,1180C993.616,1180 953.152,1180 908.192,1180C863.232,1180 822.768,1180 777.808,1180C732.848,1180 692.384,1180 647.424,1180C606.96,1180 562,1180 517.04,1180C476.576,1180 431.616,1180 391.152,1180C346.192,1180 301.232,1180 260.768,1180C215.808,1180 170.848,1180 130.384,1180C85.424,1180 44.96,1180 22.48,1180L0,1180L0,274.194Z" clip-rule="evenodd" fill-rule="evenodd" fill="#202325"/>
</g>
</svg>
