<svg width="760" height="512" viewBox="0 0 760 512" fill="none" xmlns="http://www.w3.org/2000/svg" xmlns:xlink="http://www.w3.org/1999/xlink">
<mask id="mask_0_16417_2054" style="mask-type:alpha" maskUnits="userSpaceOnUse" x="60" y="0" width="334" height="219">
<rect  x="60" y="0" width="668" height="438" rx="40" fill="url(#pf_0_16417_2054)"/>
</mask>
<g mask="url(#mask_0_16417_2054)">
<g opacity="0.15" style="isolation:isolate">
<path d="M124.184,250.059C71,208 30,216 6.184,226.059C1.517,277.392 -5.016,385.658 6.184,408.058C20.184,436.058 146.184,448.058 232.184,462.058C300.984,473.258 600.85,484.726 732.184,462.058C746.184,376.058 765.784,107.659 732.184,106.059C690.184,104.059 592.094,153.016 524,267.016C435,416.016 400,214 301,191C244.37,177.844 177.462,292.192 124.184,250.059Z" fill="#FFFFFF"/>
</g>
<g opacity="0.15" style="isolation:isolate">
<path d="M124,274.059C80.765,255.563 42.851,272.725 14.184,274.059C9.517,325.392 2.984,433.658 14.184,456.058C28.184,484.058 154.184,496.058 240.184,510.058C308.984,521.258 608.85,478.726 740.184,456.058C754.184,370.058 773.784,155.659 740.184,154.059C698.184,152.059 600.094,201.016 532,315.016C443,464.016 302,428.016 252,376.016C211.704,334.108 180,298.016 124,274.059Z" fill="#FFFFFF"/>
</g>
</g>
</svg>
