<svg width="74" height="60" viewBox="0 0 74 60" fill="none" xmlns="http://www.w3.org/2000/svg" xmlns:xlink="http://www.w3.org/1999/xlink">
<g opacity="0.8">
<path d="M13.467,59.871L13.467,55.999C13.467,54.515 12.577,53.548 11.053,53.548C10.291,53.548 9.465,53.806 8.893,54.644C8.449,53.935 7.814,53.548 6.861,53.548C6.225,53.548 5.59,53.741 5.082,54.451L5.082,53.677L3.748,53.677L3.748,59.871L5.082,59.871L5.082,56.451C5.082,55.354 5.654,54.838 6.543,54.838C7.432,54.838 7.877,55.419 7.877,56.451L7.877,59.871L9.211,59.871L9.211,56.451C9.211,55.354 9.846,54.838 10.672,54.838C11.561,54.838 12.006,55.419 12.006,56.451L12.006,59.871L13.467,59.871L13.467,59.871ZM33.221,53.677L31.062,53.677L31.062,51.805L29.728,51.805L29.728,53.677L28.521,53.677L28.521,54.902L29.727,54.902L29.727,57.742C29.727,59.161 30.299,60 31.824,60C32.396,60 33.03,59.806 33.475,59.548L33.094,58.387C32.713,58.645 32.269,58.709 31.951,58.709C31.316,58.709 31.062,58.322 31.062,57.677L31.062,54.902L33.221,54.902L33.221,53.677L33.221,53.677ZM44.528,53.547C43.766,53.547 43.257,53.935 42.94,54.451L42.94,53.677L41.606,53.677L41.606,59.871L42.94,59.871L42.94,56.387C42.94,55.354 43.384,54.773 44.21,54.773C44.464,54.773 44.782,54.838 45.036,54.903L45.417,53.612C45.163,53.548 44.782,53.548 44.528,53.548L44.528,53.547ZM27.441,54.193C26.806,53.741 25.916,53.548 24.964,53.548C23.439,53.548 22.423,54.322 22.423,55.548C22.423,56.58 23.185,57.161 24.519,57.354L25.154,57.419C25.853,57.548 26.234,57.742 26.234,58.064C26.234,58.516 25.726,58.838 24.837,58.838C23.947,58.838 23.249,58.516 22.804,58.193L22.169,59.226C22.868,59.742 23.82,60 24.773,60C26.552,60 27.568,59.161 27.568,58C27.568,56.903 26.742,56.322 25.472,56.128L24.837,56.064C24.265,55.999 23.82,55.87 23.82,55.483C23.82,55.032 24.265,54.773 24.964,54.773C25.726,54.773 26.488,55.096 26.869,55.29L27.441,54.193L27.441,54.193ZM62.885,53.548C62.122,53.548 61.614,53.935 61.297,54.451L61.297,53.677L59.963,53.677L59.963,59.871L61.297,59.871L61.297,56.387C61.297,55.354 61.741,54.773 62.567,54.773C62.821,54.773 63.139,54.838 63.393,54.903L63.774,53.612C63.52,53.548 63.139,53.548 62.885,53.548L62.885,53.548ZM45.862,56.774C45.862,58.645 47.132,60 49.101,60C49.99,60 50.625,59.806 51.261,59.29L50.625,58.193C50.117,58.58 49.609,58.774 49.037,58.774C47.958,58.774 47.195,58 47.195,56.774C47.195,55.612 47.958,54.838 49.037,54.773C49.609,54.773 50.117,54.967 50.625,55.354L51.261,54.257C50.625,53.741 49.99,53.548 49.101,53.548C47.132,53.548 45.862,54.902 45.862,56.774ZM58.184,56.774L58.184,53.677L56.85,53.677L56.85,54.451C56.406,53.87 55.771,53.548 54.945,53.548C53.23,53.548 51.896,54.902 51.896,56.774C51.896,58.645 53.23,60 54.945,60C55.834,60 56.469,59.677 56.85,59.097L56.85,59.871L58.184,59.871L58.184,56.774L58.184,56.774ZM53.293,56.774C53.293,55.677 53.992,54.773 55.135,54.773C56.215,54.773 56.978,55.612 56.978,56.774C56.978,57.871 56.215,58.774 55.135,58.774C53.992,58.709 53.293,57.871 53.293,56.774L53.293,56.774ZM37.35,53.548C35.571,53.548 34.301,54.838 34.301,56.774C34.301,58.709 35.571,60 37.413,60C38.303,60 39.192,59.742 39.891,59.161L39.255,58.193C38.747,58.58 38.112,58.838 37.477,58.838C36.651,58.838 35.825,58.451 35.635,57.354L40.145,57.354L40.145,56.838C40.209,54.838 39.065,53.548 37.35,53.548L37.35,53.548ZM37.35,54.709C38.176,54.709 38.748,55.225 38.874,56.193L35.698,56.193C35.825,55.354 36.397,54.709 37.35,54.709ZM70.444,56.774L70.444,51.225L69.11,51.225L69.11,54.451C68.665,53.87 68.03,53.548 67.204,53.548C65.489,53.548 64.155,54.902 64.155,56.774C64.155,58.645 65.489,60 67.204,60C68.093,60 68.729,59.677 69.11,59.097L69.11,59.871L70.444,59.871L70.444,56.774L70.444,56.774ZM65.553,56.774C65.553,55.677 66.251,54.773 67.395,54.773C68.475,54.773 69.237,55.612 69.237,56.774C69.237,57.871 68.475,58.774 67.395,58.774C66.251,58.709 65.553,57.871 65.553,56.774L65.553,56.774ZM20.962,56.774L20.962,53.677L19.628,53.677L19.628,54.451C19.183,53.87 18.548,53.548 17.722,53.548C16.007,53.548 14.673,54.902 14.673,56.774C14.673,58.645 16.007,60 17.722,60C18.612,60 19.247,59.677 19.628,59.097L19.628,59.871L20.962,59.871L20.962,56.774L20.962,56.774ZM16.007,56.774C16.007,55.677 16.706,54.773 17.849,54.773C18.929,54.773 19.692,55.612 19.692,56.774C19.692,57.871 18.929,58.774 17.849,58.774C16.706,58.709 16.007,57.871 16.007,56.774L16.007,56.774Z" fill="#FFFFFF"/>
<path d="M28.266,23.229C28.266,15.809 31.696,9.227 36.968,4.968C33.094,1.871 28.203,0 22.867,0C10.226,0 0,10.388 0,23.229C0,36.069 10.226,46.457 22.867,46.457C28.203,46.457 33.093,44.586 36.968,41.489C31.696,37.295 28.266,30.649 28.266,23.229ZM74,23.229C74,36.069 63.773,46.457 51.133,46.457C45.797,46.457 40.906,44.586 37.032,41.489C42.367,37.23 45.734,30.649 45.734,23.229C45.734,15.809 42.303,9.227 37.032,4.968C40.906,1.871 45.797,0 51.133,0C63.773,0 74,10.453 74,23.229L74,23.229ZM37,6C47,15 48,31 37,40.438C26,31 27,15 37,6Z" clip-rule="evenodd" fill-rule="evenodd" fill="#FFFFFF" stroke="#FF3E47" stroke-width="0.833" stroke-miterlimit="3.999327"/>
</g>
</svg>
