<svg width="766" height="220" viewBox="0 0 766 220" fill="none" xmlns="http://www.w3.org/2000/svg" xmlns:xlink="http://www.w3.org/1999/xlink">
<g filter="url(#filter16302_731)">
<rect  x="16" y="0" width="750" height="220" fill="#202325"/>
<rect  x="284" y="44" width="7.752" height="38" rx="6" fill="#979C9E"/>
<rect  x="297.566" y="52" width="7.752" height="30" rx="6" fill="#979C9E"/>
<rect  x="311.132" y="66" width="7.752" height="16" rx="6" fill="#979C9E"/>
<path d="M125.499,72.999L123.499,72.999L125.499,72.999ZM123.999,74.499L123.999,72.499L123.999,72.499L123.999,74.499ZM115,74.5L115,76.5L115,76.5L115,74.5ZM113.5,73L115.5,73L113.5,73ZM113.5,55.664L115.5,55.664L115.5,55.664L113.5,55.664ZM113.991,54.554L112.645,53.074L112.645,53.074L113.991,54.554ZM128.99,40.916L130.335,42.396L130.335,42.396L128.99,40.916ZM131.008,40.916L132.353,39.436L132.353,39.436L131.008,40.916ZM146.009,54.554L147.354,53.074L147.354,53.074L146.009,54.554ZM146.5,55.664L144.5,55.664L144.5,55.664L146.5,55.664ZM146.5,73L144.5,73L146.5,73ZM145,74.5L145,76.5L145,76.5L145,74.5ZM135.999,74.499L135.999,72.499L135.999,72.499L135.999,74.499ZM136.499,72.999L136.499,63.999L132.499,63.999L132.499,72.999L136.499,72.999ZM136.499,63.999C136.499,63.07 136.13,62.18 135.474,61.524L132.645,64.352C132.552,64.258 132.499,64.131 132.499,63.999L136.499,63.999ZM135.474,61.524C134.817,60.867 133.927,60.498 132.999,60.498L132.999,64.499C132.866,64.499 132.739,64.446 132.645,64.352L135.474,61.524ZM132.999,60.498L126.999,60.498L126.999,64.499L132.999,64.499L132.999,60.498ZM126.999,60.498C126.071,60.498 125.18,60.867 124.524,61.524L127.352,64.352C127.259,64.446 127.132,64.499 126.999,64.499L126.999,60.498ZM124.524,61.524C123.868,62.18 123.499,63.07 123.499,63.999L127.499,63.999C127.499,64.131 127.446,64.258 127.352,64.352L124.524,61.524ZM123.499,63.999L123.499,72.999L127.499,72.999L127.499,63.999L123.499,63.999ZM123.499,72.999C123.499,72.866 123.552,72.739 123.645,72.645L126.474,75.473C127.13,74.817 127.499,73.927 127.499,72.999L123.499,72.999ZM123.645,72.645C123.739,72.551 123.866,72.499 123.999,72.499L123.999,76.499C124.928,76.499 125.818,76.13 126.474,75.473L123.645,72.645ZM123.999,72.499L115,72.5L115,76.5L123.999,76.499L123.999,72.499ZM115,72.5C115.066,72.5 115.131,72.513 115.191,72.538L113.661,76.234C114.086,76.409 114.541,76.5 115,76.5L115,72.5ZM115.191,72.538C115.252,72.563 115.307,72.6 115.354,72.646L112.525,75.475C112.85,75.8 113.236,76.058 113.661,76.234L115.191,72.538ZM115.354,72.646C115.4,72.693 115.437,72.748 115.462,72.809L111.766,74.339C111.942,74.764 112.2,75.15 112.525,75.475L115.354,72.646ZM115.462,72.809C115.487,72.869 115.5,72.934 115.5,73L111.5,73C111.5,73.46 111.591,73.915 111.766,74.339L115.462,72.809ZM115.5,73L115.5,55.664L111.5,55.664L111.5,73L115.5,73ZM115.5,55.664C115.5,55.733 115.485,55.802 115.457,55.866L111.799,54.248C111.602,54.694 111.5,55.176 111.5,55.664L115.5,55.664ZM115.457,55.866C115.429,55.929 115.388,55.987 115.336,56.033L112.645,53.074C112.285,53.402 111.996,53.802 111.799,54.248L115.457,55.866ZM115.336,56.033L130.335,42.396L127.644,39.436L112.645,53.074L115.336,56.033ZM130.335,42.396C130.243,42.479 130.123,42.526 129.999,42.526L129.999,38.526C129.128,38.526 128.289,38.85 127.644,39.436L130.335,42.396ZM129.999,42.526C129.875,42.526 129.755,42.479 129.663,42.396L132.353,39.436C131.709,38.85 130.87,38.526 129.999,38.526L129.999,42.526ZM129.663,42.396L144.664,56.034L147.354,53.074L132.353,39.436L129.663,42.396ZM144.664,56.034C144.612,55.987 144.571,55.93 144.543,55.866L148.201,54.248C148.004,53.802 147.715,53.402 147.354,53.074L144.664,56.034ZM144.543,55.866C144.515,55.802 144.5,55.733 144.5,55.664L148.5,55.664C148.5,55.176 148.398,54.694 148.201,54.248L144.543,55.866ZM144.5,55.664L144.5,73L148.5,73L148.5,55.664L144.5,55.664ZM144.5,73C144.5,72.934 144.513,72.869 144.538,72.809L148.234,74.339C148.409,73.915 148.5,73.46 148.5,73L144.5,73ZM144.538,72.809C144.563,72.748 144.6,72.693 144.646,72.646L147.475,75.475C147.8,75.15 148.058,74.764 148.234,74.339L144.538,72.809ZM144.646,72.646C144.693,72.6 144.748,72.563 144.809,72.538L146.339,76.234C146.764,76.058 147.15,75.8 147.475,75.475L144.646,72.646ZM144.809,72.538C144.869,72.513 144.934,72.5 145,72.5L145,76.5C145.459,76.5 145.914,76.409 146.339,76.234L144.809,72.538ZM145,72.5L135.999,72.499L135.998,76.499L145,76.5L145,72.5ZM135.999,72.499C136.132,72.499 136.259,72.551 136.352,72.645L133.524,75.473C134.18,76.13 135.07,76.499 135.998,76.499L135.999,72.499ZM136.352,72.645C136.446,72.739 136.499,72.866 136.499,72.999L132.499,72.999C132.499,73.927 132.868,74.817 133.524,75.473L136.352,72.645Z" fill="#FF3E47"/>
<path d="M660.885,56C660.885,61.523 656.407,66 650.885,66L650.885,70C658.617,70 664.885,63.732 664.885,56L660.885,56ZM650.885,66C645.362,66 640.885,61.523 640.885,56L636.885,56C636.885,63.732 643.153,70 650.885,70L650.885,66ZM640.885,56C640.885,50.477 645.362,46 650.885,46L650.885,42C643.153,42 636.885,48.268 636.885,56L640.885,56ZM650.885,46C656.407,46 660.885,50.477 660.885,56L664.885,56C664.885,48.268 658.617,42 650.885,42L650.885,46Z" fill="#979C9E"/>
<path d="M630.963,77.498C630.411,78.454 630.738,79.677 631.694,80.23C632.651,80.783 633.874,80.455 634.427,79.499L630.963,77.498ZM667.343,79.499C667.895,80.456 669.118,80.783 670.075,80.23C671.031,79.678 671.359,78.455 670.806,77.498L667.343,79.499ZM634.427,79.499C636.095,76.611 638.495,74.212 641.383,72.545L639.384,69.081C635.887,71.099 632.983,74.002 630.963,77.498L634.427,79.499ZM641.383,72.545C644.272,70.878 647.549,70 650.885,70L650.885,66C646.847,66 642.881,67.062 639.384,69.081L641.383,72.545ZM650.885,70C654.22,70 657.497,70.878 660.386,72.545L662.385,69.081C658.889,67.063 654.922,66 650.885,66L650.885,70ZM660.386,72.545C663.275,74.213 665.674,76.611 667.343,79.499L670.806,77.498C668.786,74.002 665.882,71.099 662.385,69.081L660.386,72.545Z" fill="#979C9E"/>
<path d="M476.885,53.5C476.885,55.709 475.094,57.5 472.885,57.5L472.885,61.5C477.303,61.5 480.885,57.918 480.885,53.5L476.885,53.5ZM472.885,57.5C470.675,57.5 468.885,55.709 468.885,53.5L464.885,53.5C464.885,57.918 468.466,61.5 472.885,61.5L472.885,57.5ZM468.885,53.5C468.885,51.291 470.675,49.5 472.885,49.5L472.885,45.5C468.466,45.5 464.885,49.082 464.885,53.5L468.885,53.5ZM472.885,49.5C475.094,49.5 476.885,51.291 476.885,53.5L480.885,53.5C480.885,49.082 477.303,45.5 472.885,45.5L472.885,49.5Z" fill="#979C9E"/>
<path d="M472.885,77.5L471.738,79.138C472.426,79.621 473.343,79.621 474.031,79.138L472.885,77.5ZM472.885,38.5L472.885,36.5L472.885,38.5ZM485.885,53.5C485.885,59.53 482.511,65.069 478.875,69.25C477.082,71.312 475.284,72.977 473.933,74.125C473.259,74.697 472.7,75.139 472.315,75.433C472.122,75.581 471.972,75.691 471.874,75.763C471.824,75.799 471.788,75.826 471.765,75.842C471.753,75.85 471.745,75.856 471.741,75.859C471.738,75.861 471.737,75.862 471.736,75.862C471.736,75.863 471.736,75.863 471.736,75.862C471.736,75.862 471.737,75.862 471.737,75.862C471.737,75.862 471.738,75.862 472.885,77.5C474.031,79.138 474.032,79.138 474.033,79.138C474.033,79.137 474.034,79.137 474.034,79.137C474.035,79.136 474.037,79.135 474.038,79.134C474.041,79.132 474.045,79.129 474.05,79.125C474.06,79.118 474.073,79.109 474.09,79.097C474.124,79.073 474.172,79.038 474.232,78.994C474.353,78.906 474.526,78.778 474.744,78.611C475.178,78.279 475.791,77.795 476.524,77.172C477.986,75.93 479.937,74.125 481.894,71.875C485.758,67.431 489.885,60.97 489.885,53.5L485.885,53.5ZM472.885,77.5C474.031,75.862 474.032,75.862 474.032,75.862C474.032,75.862 474.033,75.862 474.033,75.862C474.033,75.863 474.033,75.863 474.033,75.862C474.032,75.862 474.031,75.861 474.028,75.859C474.024,75.856 474.016,75.85 474.004,75.842C473.981,75.826 473.945,75.799 473.895,75.763C473.797,75.691 473.647,75.581 473.454,75.433C473.069,75.139 472.51,74.697 471.836,74.125C470.486,72.977 468.687,71.312 466.894,69.25C463.258,65.069 459.885,59.53 459.885,53.5L455.885,53.5C455.885,60.97 460.011,67.431 463.875,71.875C465.832,74.125 467.784,75.93 469.245,77.172C469.978,77.795 470.591,78.279 471.026,78.611C471.243,78.778 471.416,78.906 471.537,78.994C471.597,79.038 471.645,79.073 471.679,79.097C471.696,79.109 471.709,79.118 471.719,79.125C471.724,79.129 471.728,79.132 471.731,79.134C471.733,79.135 471.734,79.136 471.735,79.137C471.736,79.137 471.736,79.137 471.736,79.138C471.737,79.138 471.738,79.138 472.885,77.5ZM459.885,53.5C459.885,50.052 461.254,46.746 463.692,44.308L460.864,41.479C457.676,44.667 455.885,48.991 455.885,53.5L459.885,53.5ZM463.692,44.308C466.13,41.87 469.437,40.5 472.885,40.5L472.885,36.5C468.376,36.5 464.052,38.291 460.864,41.479L463.692,44.308ZM472.885,40.5C476.332,40.5 479.639,41.87 482.077,44.308L484.905,41.479C481.717,38.291 477.393,36.5 472.885,36.5L472.885,40.5ZM482.077,44.308C484.515,46.746 485.885,50.052 485.885,53.5L489.885,53.5C489.885,48.991 488.094,44.667 484.905,41.479L482.077,44.308Z" fill="#979C9E"/>
<rect  x="242" y="182" width="268" height="10" rx="200" fill="#F2F4F5"/>
</g>
<defs>
<filter id="filter16302_731" x="-16" y="-16" width="415" height="142" filterUnits="userSpaceOnUse" color-interpolation-filters="sRGB">
<feFlood flood-opacity="0" result="BackgroundImageFix"/>
<feColorMatrix in="SourceAlpha" type="matrix" values="0 0 0 0 0 0 0 0 0 0 0 0 0 0 0 0 0 0 127 0" result="hardAlpha"/>
<feMorphology radius="0" operator="dilate" in="SourceAlpha" result="0dropshadow"/>
<feOffset dx="0" dy="-4"/>
<feGaussianBlur stdDeviation="8"/>
<feComposite in2="hardAlpha" operator="out"/>
<feColorMatrix type="matrix" values="0 0 0 0 0 0 0 0 0 0 0 0 0 0 0 0 0 0 0.25 0"/>
<feBlend mode="normal" in2="BackgroundImageFix" result="0dropshadow"/>
<feBlend mode="normal" in="SourceGraphic" in2="0dropshadow" result="shape"/>
</filter>
</defs>
</svg>
