<svg width="766" height="220" viewBox="0 0 766 220" fill="none" xmlns="http://www.w3.org/2000/svg" xmlns:xlink="http://www.w3.org/1999/xlink">
<g filter="url(#filter16413_309)">
<rect  x="16" y="0" width="750" height="220" fill="#202325"/>
<rect  x="284.315" y="44" width="7.752" height="38" rx="6" fill="#FF3E47"/>
<rect  x="297.882" y="52" width="7.752" height="30" rx="6" fill="#FF3E47"/>
<rect  x="311.448" y="66" width="7.752" height="16" rx="6" fill="#FF3E47"/>
<path d="M125.499,72.999L123.499,72.999L125.499,72.999ZM123.999,74.499L123.999,72.499L123.999,72.499L123.999,74.499ZM115,74.5L115,76.5L115,76.5L115,74.5ZM113.5,73L115.5,73L113.5,73ZM113.5,55.663L115.5,55.663L115.5,55.663L113.5,55.663ZM113.991,54.554L112.645,53.074L112.645,53.074L113.991,54.554ZM128.99,40.916L130.335,42.396L130.335,42.396L128.99,40.916ZM131.008,40.916L132.353,39.436L132.353,39.436L131.008,40.916ZM146.009,54.554L147.354,53.074L147.354,53.074L146.009,54.554ZM146.5,55.663L144.5,55.663L144.5,55.663L146.5,55.663ZM146.5,73L144.5,73L146.5,73ZM145,74.5L145,76.5L145,76.5L145,74.5ZM135.999,74.499L135.999,72.499L135.999,72.499L135.999,74.499ZM136.499,72.999L136.499,63.998L132.499,63.998L132.499,72.999L136.499,72.999ZM136.499,63.998C136.499,63.07 136.13,62.18 135.474,61.523L132.645,64.352C132.552,64.258 132.499,64.131 132.499,63.998L136.499,63.998ZM135.474,61.523C134.817,60.867 133.927,60.498 132.999,60.498L132.999,64.498C132.866,64.498 132.739,64.446 132.645,64.352L135.474,61.523ZM132.999,60.498L126.999,60.498L126.999,64.498L132.999,64.498L132.999,60.498ZM126.999,60.498C126.071,60.498 125.18,60.867 124.524,61.523L127.352,64.352C127.259,64.446 127.132,64.498 126.999,64.498L126.999,60.498ZM124.524,61.523C123.868,62.18 123.499,63.07 123.499,63.998L127.499,63.998C127.499,64.131 127.446,64.258 127.352,64.352L124.524,61.523ZM123.499,63.998L123.499,72.999L127.499,72.999L127.499,63.998L123.499,63.998ZM123.499,72.999C123.499,72.866 123.552,72.739 123.645,72.645L126.474,75.473C127.13,74.817 127.499,73.927 127.499,72.999L123.499,72.999ZM123.645,72.645C123.739,72.551 123.866,72.499 123.999,72.499L123.999,76.499C124.928,76.498 125.818,76.13 126.474,75.473L123.645,72.645ZM123.999,72.499L115,72.5L115,76.5L123.999,76.499L123.999,72.499ZM115,72.5C115.066,72.5 115.131,72.513 115.191,72.538L113.661,76.233C114.086,76.409 114.541,76.5 115,76.5L115,72.5ZM115.191,72.538C115.252,72.563 115.307,72.6 115.354,72.646L112.525,75.475C112.85,75.8 113.236,76.058 113.661,76.233L115.191,72.538ZM115.354,72.646C115.4,72.693 115.437,72.748 115.462,72.808L111.766,74.339C111.942,74.764 112.2,75.15 112.525,75.475L115.354,72.646ZM115.462,72.808C115.487,72.869 115.5,72.934 115.5,73L111.5,73C111.5,73.459 111.591,73.915 111.766,74.339L115.462,72.808ZM115.5,73L115.5,55.663L111.5,55.663L111.5,73L115.5,73ZM115.5,55.663C115.5,55.733 115.485,55.802 115.457,55.866L111.799,54.248C111.602,54.694 111.5,55.176 111.5,55.663L115.5,55.663ZM115.457,55.866C115.429,55.929 115.388,55.986 115.336,56.033L112.645,53.074C112.285,53.402 111.996,53.802 111.799,54.248L115.457,55.866ZM115.336,56.033L130.335,42.396L127.644,39.436L112.645,53.074L115.336,56.033ZM130.335,42.396C130.243,42.479 130.123,42.526 129.999,42.526L129.999,38.526C129.128,38.526 128.289,38.85 127.644,39.436L130.335,42.396ZM129.999,42.526C129.875,42.526 129.755,42.479 129.663,42.396L132.353,39.436C131.709,38.85 130.87,38.526 129.999,38.526L129.999,42.526ZM129.663,42.396L144.664,56.033L147.354,53.074L132.353,39.436L129.663,42.396ZM144.664,56.033C144.612,55.987 144.571,55.929 144.543,55.866L148.201,54.248C148.004,53.802 147.715,53.402 147.354,53.074L144.664,56.033ZM144.543,55.866C144.515,55.802 144.5,55.733 144.5,55.663L148.5,55.663C148.5,55.176 148.398,54.694 148.201,54.248L144.543,55.866ZM144.5,55.663L144.5,73L148.5,73L148.5,55.663L144.5,55.663ZM144.5,73C144.5,72.934 144.513,72.869 144.538,72.808L148.234,74.339C148.409,73.915 148.5,73.459 148.5,73L144.5,73ZM144.538,72.808C144.563,72.748 144.6,72.693 144.646,72.646L147.475,75.475C147.8,75.15 148.058,74.764 148.234,74.339L144.538,72.808ZM144.646,72.646C144.693,72.6 144.748,72.563 144.809,72.538L146.339,76.233C146.764,76.058 147.15,75.8 147.475,75.475L144.646,72.646ZM144.809,72.538C144.869,72.513 144.934,72.5 145,72.5L145,76.5C145.459,76.5 145.914,76.409 146.339,76.233L144.809,72.538ZM145,72.5L135.999,72.499L135.998,76.499L145,76.5L145,72.5ZM135.999,72.499C136.132,72.499 136.259,72.551 136.352,72.645L133.524,75.473C134.18,76.13 135.07,76.498 135.998,76.499L135.999,72.499ZM136.352,72.645C136.446,72.739 136.499,72.866 136.499,72.999L132.499,72.999C132.499,73.927 132.868,74.817 133.524,75.473L136.352,72.645Z" fill="#979C9E"/>
<path d="M664.665,82.778L630.727,82.778C629.909,82.778 629.284,82.133 629.284,81.29C629.284,70.773 635.822,64.969 647.696,64.969C659.569,64.969 666.107,70.773 666.107,81.29C666.107,82.133 665.482,82.778 664.665,82.778Z" fill="#979C9E"/>
<path d="M647.696,62.786C642.408,62.786 638.13,57.974 638.13,52.07C638.13,46.316 642.264,42 647.696,42C653.128,42 657.262,46.316 657.262,52.07C657.262,57.974 652.983,62.786 647.696,62.786Z" fill="#979C9E"/>
<path d="M478,53.5C478,55.709 476.209,57.5 474,57.5L474,61.5C478.418,61.5 482,57.918 482,53.5L478,53.5ZM474,57.5C471.791,57.5 470,55.709 470,53.5L466,53.5C466,57.918 469.582,61.5 474,61.5L474,57.5ZM470,53.5C470,51.291 471.791,49.5 474,49.5L474,45.5C469.582,45.5 466,49.082 466,53.5L470,53.5ZM474,49.5C476.209,49.5 478,51.291 478,53.5L482,53.5C482,49.082 478.418,45.5 474,45.5L474,49.5Z" fill="#979C9E"/>
<path d="M474,77.5L472.853,79.138C473.542,79.621 474.458,79.621 475.147,79.138L474,77.5ZM474,38.5L474,36.5L474,38.5ZM487,53.5C487,59.53 483.626,65.069 479.991,69.25C478.197,71.312 476.399,72.977 475.048,74.125C474.375,74.697 473.816,75.139 473.43,75.433C473.237,75.581 473.088,75.691 472.989,75.763C472.94,75.799 472.903,75.826 472.88,75.842C472.869,75.85 472.861,75.856 472.856,75.859C472.854,75.861 472.852,75.862 472.852,75.862C472.852,75.863 472.852,75.863 472.852,75.862C472.852,75.862 472.852,75.862 472.852,75.862C472.853,75.862 472.853,75.862 474,77.5C475.147,79.138 475.147,79.138 475.148,79.138C475.148,79.137 475.149,79.137 475.15,79.137C475.151,79.136 475.152,79.135 475.154,79.134C475.157,79.132 475.161,79.129 475.166,79.125C475.175,79.118 475.189,79.109 475.206,79.097C475.24,79.073 475.287,79.038 475.348,78.994C475.469,78.906 475.642,78.778 475.859,78.611C476.294,78.279 476.907,77.795 477.639,77.172C479.101,75.93 481.053,74.125 483.009,71.875C486.874,67.431 491,60.97 491,53.5L487,53.5ZM474,77.5C475.147,75.862 475.147,75.862 475.148,75.862C475.148,75.862 475.148,75.862 475.148,75.862C475.148,75.863 475.148,75.863 475.148,75.862C475.148,75.862 475.146,75.861 475.144,75.859C475.139,75.856 475.131,75.85 475.12,75.842C475.097,75.826 475.06,75.799 475.011,75.763C474.912,75.691 474.763,75.581 474.57,75.433C474.184,75.139 473.625,74.697 472.952,74.125C471.601,72.977 469.803,71.312 468.009,69.25C464.374,65.069 461,59.53 461,53.5L457,53.5C457,60.97 461.126,67.431 464.991,71.875C466.947,74.125 468.899,75.93 470.361,77.172C471.093,77.795 471.707,78.279 472.141,78.611C472.358,78.778 472.531,78.906 472.652,78.994C472.713,79.038 472.76,79.073 472.794,79.097C472.811,79.109 472.825,79.118 472.834,79.125C472.839,79.129 472.843,79.132 472.846,79.134C472.848,79.135 472.849,79.136 472.85,79.137C472.851,79.137 472.852,79.137 472.852,79.138C472.853,79.138 472.853,79.138 474,77.5ZM461,53.5C461,50.052 462.37,46.746 464.808,44.308L461.979,41.479C458.791,44.667 457,48.991 457,53.5L461,53.5ZM464.808,44.308C467.246,41.87 470.552,40.5 474,40.5L474,36.5C469.491,36.5 465.167,38.291 461.979,41.479L464.808,44.308ZM474,40.5C477.448,40.5 480.754,41.87 483.192,44.308L486.021,41.479C482.833,38.291 478.509,36.5 474,36.5L474,40.5ZM483.192,44.308C485.63,46.746 487,50.052 487,53.5L491,53.5C491,48.991 489.209,44.667 486.021,41.479L483.192,44.308Z" fill="#979C9E"/>
<rect  x="242" y="182" width="268" height="10" rx="200" fill="#F2F4F5"/>
</g>
<defs>
<filter id="filter16413_309" x="-16" y="-16" width="415" height="142" filterUnits="userSpaceOnUse" color-interpolation-filters="sRGB">
<feFlood flood-opacity="0" result="BackgroundImageFix"/>
<feColorMatrix in="SourceAlpha" type="matrix" values="0 0 0 0 0 0 0 0 0 0 0 0 0 0 0 0 0 0 127 0" result="hardAlpha"/>
<feMorphology radius="0" operator="dilate" in="SourceAlpha" result="0dropshadow"/>
<feOffset dx="0" dy="-4"/>
<feGaussianBlur stdDeviation="8"/>
<feComposite in2="hardAlpha" operator="out"/>
<feColorMatrix type="matrix" values="0 0 0 0 0 0 0 0 0 0 0 0 0 0 0 0 0 0 0.25 0"/>
<feBlend mode="normal" in2="BackgroundImageFix" result="0dropshadow"/>
<feBlend mode="normal" in="SourceGraphic" in2="0dropshadow" result="shape"/>
</filter>
</defs>
</svg>
