<svg width="768" height="590" viewBox="0 0 768 590" fill="none" xmlns="http://www.w3.org/2000/svg" xmlns:xlink="http://www.w3.org/1999/xlink">
<g filter="url(#filter16414_1036)">
<rect  x="12.889" y="393.454" width="750" height="220" transform="rotate(-63.346 12.889 393.454)" fill="#202325"/>
<rect  x="264.344" y="290.015" width="7.752" height="38" rx="6" transform="rotate(-63.346 264.344 290.015)" fill="#979C9E"/>
<rect  x="280.09" y="289.7" width="7.752" height="30" rx="6" transform="rotate(-63.346 280.09 289.7)" fill="#979C9E"/>
<rect  x="298.987" y="294.492" width="7.752" height="16" rx="6" transform="rotate(-63.346 298.987 294.492)" fill="#979C9E"/>
<path d="M135.607,398.028L133.607,398.028L135.607,398.028ZM134.107,399.528L134.107,397.528L134.107,397.528L134.107,399.528ZM125.108,399.529L125.108,401.529L125.108,401.529L125.108,399.529ZM123.608,398.029L125.608,398.029L123.608,398.029ZM123.608,380.693L125.608,380.693L125.608,380.693L123.608,380.693ZM124.099,379.583L122.753,378.103L122.753,378.103L124.099,379.583ZM139.098,365.945L140.443,367.425L140.443,367.425L139.098,365.945ZM141.116,365.945L142.461,364.465L142.461,364.465L141.116,365.945ZM156.117,379.583L157.462,378.103L157.462,378.103L156.117,379.583ZM156.608,380.693L154.608,380.693L154.608,380.693L156.608,380.693ZM156.608,398.029L154.608,398.029L156.608,398.029ZM155.108,399.529L155.107,401.529L155.107,401.529L155.108,399.529ZM146.107,399.528L146.107,397.528L146.107,397.528L146.107,399.528ZM146.607,398.028L146.607,389.028L142.607,389.028L142.607,398.028L146.607,398.028ZM146.607,389.028C146.607,388.099 146.238,387.209 145.582,386.553L142.753,389.381C142.659,389.287 142.607,389.16 142.607,389.028L146.607,389.028ZM145.582,386.553C144.925,385.896 144.035,385.528 143.107,385.528L143.107,389.528C142.974,389.528 142.847,389.475 142.753,389.381L145.582,386.553ZM143.107,385.528L137.107,385.528L137.107,389.528L143.107,389.528L143.107,385.528ZM137.107,385.528C136.179,385.528 135.288,385.896 134.632,386.553L137.46,389.381C137.367,389.475 137.239,389.528 137.107,389.528L137.107,385.528ZM134.632,386.553C133.976,387.209 133.607,388.099 133.607,389.028L137.607,389.028C137.607,389.16 137.554,389.287 137.46,389.381L134.632,386.553ZM133.607,389.028L133.607,398.028L137.607,398.028L137.607,389.028L133.607,389.028ZM133.607,398.028C133.607,397.895 133.659,397.768 133.753,397.674L136.582,400.502C137.238,399.846 137.607,398.956 137.607,398.028L133.607,398.028ZM133.753,397.674C133.847,397.58 133.974,397.528 134.107,397.528L134.107,401.528C135.035,401.528 135.926,401.159 136.582,400.502L133.753,397.674ZM134.107,397.528L125.108,397.529L125.108,401.529L134.107,401.528L134.107,397.528ZM125.108,397.529C125.173,397.529 125.239,397.542 125.299,397.567L123.769,401.263C124.193,401.438 124.649,401.529 125.108,401.529L125.108,397.529ZM125.299,397.567C125.36,397.592 125.415,397.629 125.461,397.675L122.633,400.504C122.958,400.829 123.344,401.087 123.769,401.263L125.299,397.567ZM125.461,397.675C125.508,397.722 125.545,397.777 125.57,397.838L121.874,399.368C122.05,399.793 122.308,400.179 122.633,400.504L125.461,397.675ZM125.57,397.838C125.595,397.898 125.608,397.963 125.608,398.029L121.608,398.029C121.608,398.489 121.698,398.944 121.874,399.368L125.57,397.838ZM125.608,398.029L125.608,380.693L121.608,380.693L121.608,398.029L125.608,398.029ZM125.608,380.693C125.608,380.762 125.593,380.831 125.565,380.895L121.907,379.277C121.71,379.723 121.608,380.205 121.608,380.693L125.608,380.693ZM125.565,380.895C125.537,380.959 125.496,381.016 125.444,381.063L122.753,378.103C122.393,378.431 122.104,378.831 121.907,379.277L125.565,380.895ZM125.444,381.063L140.443,367.425L137.752,364.465L122.753,378.103L125.444,381.063ZM140.443,367.425C140.351,367.508 140.231,367.555 140.107,367.555L140.107,363.555C139.236,363.555 138.397,363.879 137.752,364.465L140.443,367.425ZM140.107,367.555C139.982,367.555 139.863,367.508 139.771,367.425L142.461,364.465C141.817,363.879 140.977,363.555 140.107,363.555L140.107,367.555ZM139.771,367.425L154.771,381.063L157.462,378.103L142.461,364.465L139.771,367.425ZM154.771,381.063C154.72,381.016 154.679,380.959 154.651,380.895L158.309,379.277C158.111,378.831 157.823,378.431 157.462,378.103L154.771,381.063ZM154.651,380.895C154.622,380.831 154.608,380.762 154.608,380.693L158.608,380.693C158.608,380.205 158.506,379.723 158.309,379.277L154.651,380.895ZM154.608,380.693L154.608,398.029L158.608,398.029L158.608,380.693L154.608,380.693ZM154.608,398.029C154.608,397.963 154.621,397.898 154.646,397.838L158.341,399.368C158.517,398.944 158.608,398.489 158.608,398.029L154.608,398.029ZM154.646,397.838C154.671,397.777 154.708,397.722 154.754,397.675L157.583,400.504C157.908,400.179 158.165,399.793 158.341,399.368L154.646,397.838ZM154.754,397.675C154.801,397.629 154.856,397.592 154.917,397.567L156.447,401.263C156.872,401.087 157.257,400.829 157.583,400.504L154.754,397.675ZM154.917,397.567C154.977,397.542 155.042,397.529 155.108,397.529L155.107,401.529C155.567,401.529 156.022,401.438 156.447,401.263L154.917,397.567ZM155.108,397.529L146.107,397.528L146.106,401.528L155.107,401.529L155.108,397.529ZM146.107,397.528C146.239,397.528 146.367,397.58 146.46,397.674L143.632,400.502C144.288,401.159 145.178,401.528 146.106,401.528L146.107,397.528ZM146.46,397.674C146.554,397.768 146.607,397.895 146.607,398.028L142.607,398.028C142.607,398.956 142.975,399.846 143.632,400.502L146.46,397.674Z" transform="rotate(-63.346 140.108 382.542)" fill="#979C9E"/>
<path d="M606.256,133.542L572.318,133.542C571.501,133.542 570.876,132.897 570.876,132.054C570.876,121.537 577.413,115.733 589.287,115.733C601.161,115.733 607.698,121.537 607.698,132.054C607.698,132.897 607.073,133.542 606.256,133.542Z" transform="rotate(-63.346 589.287 124.637)" fill="#FF3E47"/>
<path d="M578.008,116.749C572.72,116.749 568.442,111.937 568.442,106.034C568.442,100.279 572.576,95.963 578.008,95.963C583.44,95.963 587.574,100.279 587.574,106.034C587.574,111.937 583.296,116.749 578.008,116.749Z" transform="rotate(-63.346 578.008 106.356)" fill="#FF3E47"/>
<path d="M434.765,198.502C434.765,200.711 432.974,202.502 430.765,202.502L430.765,206.502C435.183,206.502 438.765,202.92 438.765,198.502L434.765,198.502ZM430.765,202.502C428.555,202.502 426.765,200.711 426.765,198.502L422.765,198.502C422.765,202.92 426.346,206.502 430.765,206.502L430.765,202.502ZM426.765,198.502C426.765,196.292 428.555,194.502 430.765,194.502L430.765,190.502C426.346,190.502 422.765,194.083 422.765,198.502L426.765,198.502ZM430.765,194.502C432.974,194.502 434.765,196.292 434.765,198.502L438.765,198.502C438.765,194.083 435.183,190.502 430.765,190.502L430.765,194.502Z" transform="rotate(-63.346 430.765 198.502)" fill="#979C9E"/>
<path d="M433.128,221.831L431.981,223.47C432.669,223.952 433.586,223.952 434.275,223.47L433.128,221.831ZM433.128,182.831L433.128,180.831L433.128,182.831ZM446.128,197.831C446.128,203.861 442.754,209.401 439.118,213.582C437.325,215.644 435.527,217.308 434.176,218.456C433.502,219.029 432.943,219.47 432.558,219.765C432.365,219.912 432.215,220.023 432.117,220.095C432.068,220.131 432.031,220.157 432.008,220.174C431.996,220.182 431.988,220.188 431.984,220.191C431.981,220.192 431.98,220.193 431.98,220.194C431.979,220.194 431.979,220.194 431.979,220.194C431.98,220.194 431.98,220.194 431.98,220.193C431.98,220.193 431.981,220.193 433.128,221.831C434.275,223.47 434.275,223.469 434.276,223.469C434.276,223.469 434.277,223.468 434.277,223.468C434.278,223.467 434.28,223.466 434.281,223.465C434.284,223.463 434.288,223.46 434.293,223.457C434.303,223.45 434.316,223.44 434.333,223.428C434.367,223.404 434.415,223.37 434.475,223.326C434.596,223.237 434.769,223.109 434.987,222.943C435.421,222.611 436.034,222.126 436.767,221.504C438.229,220.261 440.18,218.456 442.137,216.206C446.001,211.762 450.128,205.302 450.128,197.831L446.128,197.831ZM433.128,221.831C434.275,220.193 434.275,220.193 434.275,220.193C434.275,220.194 434.276,220.194 434.276,220.194C434.276,220.194 434.276,220.194 434.276,220.194C434.275,220.193 434.274,220.192 434.271,220.191C434.267,220.188 434.259,220.182 434.247,220.174C434.224,220.157 434.188,220.131 434.138,220.095C434.04,220.023 433.89,219.912 433.698,219.765C433.312,219.47 432.753,219.029 432.079,218.456C430.729,217.308 428.93,215.644 427.137,213.582C423.501,209.401 420.128,203.861 420.128,197.831L416.128,197.831C416.128,205.302 420.254,211.762 424.118,216.206C426.075,218.456 428.027,220.261 429.489,221.504C430.221,222.126 430.834,222.611 431.269,222.943C431.486,223.109 431.659,223.237 431.78,223.326C431.84,223.37 431.888,223.404 431.922,223.428C431.939,223.44 431.952,223.45 431.962,223.457C431.967,223.46 431.971,223.463 431.974,223.465C431.976,223.466 431.977,223.467 431.978,223.468C431.979,223.468 431.979,223.469 431.98,223.469C431.98,223.469 431.981,223.47 433.128,221.831ZM420.128,197.831C420.128,194.384 421.497,191.077 423.935,188.639L421.107,185.811C417.919,188.999 416.128,193.323 416.128,197.831L420.128,197.831ZM423.935,188.639C426.373,186.201 429.68,184.831 433.128,184.831L433.128,180.831C428.619,180.831 424.295,182.622 421.107,185.811L423.935,188.639ZM433.128,184.831C436.575,184.831 439.882,186.201 442.32,188.639L445.148,185.811C441.96,182.622 437.636,180.831 433.128,180.831L433.128,184.831ZM442.32,188.639C444.758,191.077 446.128,194.384 446.128,197.831L450.128,197.831C450.128,193.323 448.337,188.999 445.148,185.811L442.32,188.639Z" transform="rotate(-63.346 433.128 202.331)" fill="#979C9E"/>
<rect  x="300.791" y="429.679" width="268" height="10" rx="200" transform="rotate(-63.346 300.791 429.679)" fill="#F2F4F5"/>
</g>
<defs>
<filter id="filter16414_1036" x="-16.727783" y="-16.351495" width="415.712903" height="326.719385" filterUnits="userSpaceOnUse" color-interpolation-filters="sRGB">
<feFlood flood-opacity="0" result="BackgroundImageFix"/>
<feColorMatrix in="SourceAlpha" type="matrix" values="0 0 0 0 0 0 0 0 0 0 0 0 0 0 0 0 0 0 127 0" result="hardAlpha"/>
<feMorphology radius="0" operator="dilate" in="SourceAlpha" result="0dropshadow"/>
<feOffset dx="0" dy="-4"/>
<feGaussianBlur stdDeviation="8"/>
<feComposite in2="hardAlpha" operator="out"/>
<feColorMatrix type="matrix" values="0 0 0 0 0 0 0 0 0 0 0 0 0 0 0 0 0 0 0.25 0"/>
<feBlend mode="normal" in2="BackgroundImageFix" result="0dropshadow"/>
<feBlend mode="normal" in="SourceGraphic" in2="0dropshadow" result="shape"/>
</filter>
</defs>
</svg>
