<svg width="766" height="596" viewBox="0 0 766 596" fill="none" xmlns="http://www.w3.org/2000/svg" xmlns:xlink="http://www.w3.org/1999/xlink">
<g filter="url(#filter16414_858)">
<rect  x="14.049" y="399.723" width="750" height="220" transform="rotate(-64.389 14.049 399.723)" fill="#202325"/>
<rect  x="264.285" y="294.167" width="7.752" height="38" rx="6" transform="rotate(-64.389 264.285 294.167)" fill="#979C9E"/>
<rect  x="280.028" y="293.709" width="7.752" height="30" rx="6" transform="rotate(-64.389 280.028 293.709)" fill="#979C9E"/>
<rect  x="298.967" y="298.329" width="7.752" height="16" rx="6" transform="rotate(-64.389 298.967 298.329)" fill="#979C9E"/>
<path d="M136.662,403.14L134.662,403.14L136.662,403.14ZM135.162,404.64L135.162,402.64L135.162,402.64L135.162,404.64ZM126.163,404.641L126.164,406.641L126.164,406.641L126.163,404.641ZM124.663,403.141L126.663,403.141L124.663,403.141ZM124.663,385.804L126.663,385.804L126.663,385.804L124.663,385.804ZM125.154,384.694L123.809,383.215L123.809,383.215L125.154,384.694ZM140.153,371.057L141.498,372.536L141.498,372.536L140.153,371.057ZM142.171,371.057L143.516,369.577L143.516,369.577L142.171,371.057ZM157.172,384.694L158.517,383.215L158.517,383.215L157.172,384.694ZM157.663,385.804L155.663,385.804L155.663,385.804L157.663,385.804ZM157.663,403.141L155.663,403.141L157.663,403.141ZM156.163,404.641L156.163,406.641L156.163,406.641L156.163,404.641ZM147.162,404.64L147.162,402.64L147.162,402.64L147.162,404.64ZM147.662,403.14L147.662,394.139L143.662,394.139L143.662,403.14L147.662,403.14ZM147.662,394.139C147.662,393.211 147.293,392.321 146.637,391.664L143.808,394.493C143.715,394.399 143.662,394.272 143.662,394.139L147.662,394.139ZM146.637,391.664C145.98,391.008 145.09,390.639 144.162,390.639L144.162,394.639C144.029,394.639 143.902,394.587 143.808,394.493L146.637,391.664ZM144.162,390.639L138.162,390.639L138.162,394.639L144.162,394.639L144.162,390.639ZM138.162,390.639C137.234,390.639 136.343,391.008 135.687,391.664L138.516,394.493C138.422,394.587 138.295,394.639 138.162,394.639L138.162,390.639ZM135.687,391.664C135.031,392.321 134.662,393.211 134.662,394.139L138.662,394.139C138.662,394.272 138.609,394.399 138.516,394.493L135.687,391.664ZM134.662,394.139L134.662,403.14L138.662,403.14L138.662,394.139L134.662,394.139ZM134.662,403.14C134.662,403.007 134.715,402.88 134.808,402.786L137.637,405.614C138.293,404.958 138.662,404.068 138.662,403.14L134.662,403.14ZM134.808,402.786C134.902,402.692 135.029,402.64 135.162,402.64L135.162,406.64C136.091,406.639 136.981,406.271 137.637,405.614L134.808,402.786ZM135.162,402.64L126.163,402.641L126.164,406.641L135.162,406.64L135.162,402.64ZM126.163,402.641C126.229,402.641 126.294,402.654 126.354,402.679L124.824,406.374C125.249,406.55 125.704,406.641 126.164,406.641L126.163,402.641ZM126.354,402.679C126.415,402.704 126.47,402.741 126.517,402.787L123.688,405.616C124.013,405.941 124.399,406.199 124.824,406.374L126.354,402.679ZM126.517,402.787C126.563,402.834 126.6,402.889 126.625,402.949L122.93,404.48C123.105,404.905 123.363,405.291 123.688,405.616L126.517,402.787ZM126.625,402.949C126.65,403.01 126.663,403.075 126.663,403.141L122.663,403.141C122.663,403.6 122.754,404.056 122.93,404.48L126.625,402.949ZM126.663,403.141L126.663,385.804L122.663,385.804L122.663,403.141L126.663,403.141ZM126.663,385.804C126.663,385.874 126.649,385.943 126.62,386.007L122.962,384.388C122.765,384.834 122.663,385.317 122.663,385.804L126.663,385.804ZM126.62,386.007C126.592,386.07 126.551,386.127 126.499,386.174L123.809,383.215C123.448,383.543 123.159,383.943 122.962,384.388L126.62,386.007ZM126.499,386.174L141.498,372.536L138.807,369.577L123.809,383.215L126.499,386.174ZM141.498,372.536C141.406,372.62 141.286,372.667 141.162,372.667L141.162,368.667C140.291,368.667 139.452,368.991 138.807,369.577L141.498,372.536ZM141.162,372.667C141.038,372.667 140.918,372.62 140.826,372.536L143.516,369.577C142.872,368.991 142.033,368.666 141.162,368.667L141.162,372.667ZM140.826,372.536L155.827,386.174L158.517,383.215L143.516,369.577L140.826,372.536ZM155.827,386.174C155.775,386.127 155.734,386.07 155.706,386.007L159.364,384.388C159.167,383.942 158.878,383.543 158.517,383.215L155.827,386.174ZM155.706,386.007C155.678,385.943 155.663,385.874 155.663,385.804L159.663,385.804C159.663,385.317 159.561,384.834 159.364,384.388L155.706,386.007ZM155.663,385.804L155.663,403.141L159.663,403.141L159.663,385.804L155.663,385.804ZM155.663,403.141C155.663,403.075 155.676,403.01 155.701,402.949L159.397,404.48C159.572,404.056 159.663,403.6 159.663,403.141L155.663,403.141ZM155.701,402.949C155.726,402.889 155.763,402.834 155.809,402.787L158.638,405.616C158.963,405.291 159.221,404.905 159.397,404.48L155.701,402.949ZM155.809,402.787C155.856,402.741 155.911,402.704 155.972,402.679L157.502,406.374C157.927,406.199 158.313,405.941 158.638,405.616L155.809,402.787ZM155.972,402.679C156.032,402.654 156.097,402.641 156.163,402.641L156.163,406.641C156.622,406.641 157.077,406.55 157.502,406.374L155.972,402.679ZM156.163,402.641L147.162,402.64L147.161,406.64L156.163,406.641L156.163,402.641ZM147.162,402.64C147.295,402.64 147.422,402.692 147.515,402.786L144.687,405.614C145.343,406.271 146.233,406.639 147.161,406.64L147.162,402.64ZM147.515,402.786C147.609,402.88 147.662,403.007 147.662,403.14L143.662,403.14C143.662,404.068 144.031,404.958 144.687,405.614L147.515,402.786Z" transform="rotate(-64.389 141.163 387.654)" fill="#FF3E47"/>
<path d="M591.152,108.847C591.152,114.37 586.675,118.847 581.152,118.847L581.152,122.847C588.884,122.847 595.152,116.579 595.152,108.847L591.152,108.847ZM581.152,118.847C575.629,118.847 571.152,114.37 571.152,108.847L567.152,108.847C567.152,116.579 573.42,122.847 581.152,122.847L581.152,118.847ZM571.152,108.847C571.152,103.324 575.629,98.847 581.152,98.847L581.152,94.847C573.42,94.847 567.152,101.115 567.152,108.847L571.152,108.847ZM581.152,98.847C586.675,98.847 591.152,103.324 591.152,108.847L595.152,108.847C595.152,101.115 588.884,94.847 581.152,94.847L581.152,98.847Z" transform="rotate(-64.389 581.152 108.847)" fill="#979C9E"/>
<path d="M570.421,127.693C569.868,128.649 570.195,129.872 571.152,130.425C572.108,130.977 573.332,130.65 573.884,129.694L570.421,127.693ZM606.8,129.694C607.352,130.65 608.576,130.978 609.532,130.425C610.489,129.873 610.816,128.649 610.264,127.693L606.8,129.694ZM573.884,129.694C575.553,126.805 577.952,124.407 580.841,122.74L578.841,119.275C575.345,121.294 572.44,124.197 570.421,127.693L573.884,129.694ZM580.841,122.74C583.73,121.073 587.007,120.195 590.342,120.195L590.342,116.195C586.305,116.195 582.338,117.257 578.841,119.275L580.841,122.74ZM590.342,120.195C593.678,120.195 596.954,121.073 599.843,122.74L601.843,119.276C598.346,117.257 594.38,116.195 590.342,116.195L590.342,120.195ZM599.843,122.74C602.732,124.407 605.131,126.806 606.8,129.694L610.264,127.693C608.244,124.197 605.34,121.294 601.843,119.276L599.843,122.74Z" transform="rotate(-64.389 590.342 123.444)" fill="#979C9E"/>
<path d="M433.188,201.57C433.188,203.779 431.397,205.57 429.188,205.57L429.188,209.57C433.607,209.57 437.188,205.988 437.188,201.57L433.188,201.57ZM429.188,205.57C426.979,205.57 425.188,203.779 425.188,201.57L421.188,201.57C421.188,205.988 424.77,209.57 429.188,209.57L429.188,205.57ZM425.188,201.57C425.188,199.36 426.979,197.57 429.188,197.57L429.188,193.57C424.77,193.57 421.188,197.151 421.188,201.57L425.188,201.57ZM429.188,197.57C431.397,197.57 433.188,199.36 433.188,201.57L437.188,201.57C437.188,197.151 433.607,193.57 429.188,193.57L429.188,197.57Z" transform="rotate(-64.389 429.188 201.57)" fill="#979C9E"/>
<path d="M431.586,224.878L430.439,226.516C431.128,226.998 432.044,226.998 432.733,226.516L431.586,224.878ZM431.586,185.878L431.586,183.878L431.586,185.878ZM444.586,200.878C444.586,206.907 441.212,212.447 437.577,216.628C435.783,218.69 433.985,220.354 432.634,221.502C431.96,222.075 431.402,222.516 431.016,222.811C430.823,222.958 430.674,223.069 430.575,223.141C430.526,223.177 430.489,223.203 430.466,223.22C430.455,223.228 430.447,223.234 430.442,223.237C430.44,223.239 430.438,223.24 430.438,223.24C430.438,223.24 430.438,223.24 430.438,223.24C430.438,223.24 430.438,223.24 430.438,223.24C430.439,223.239 430.439,223.239 431.586,224.878C432.733,226.516 432.733,226.516 432.734,226.515C432.734,226.515 432.735,226.515 432.735,226.514C432.737,226.513 432.738,226.513 432.739,226.511C432.743,226.509 432.747,226.506 432.752,226.503C432.761,226.496 432.775,226.486 432.792,226.474C432.825,226.45 432.873,226.416 432.934,226.372C433.055,226.283 433.228,226.155 433.445,225.989C433.879,225.657 434.493,225.172 435.225,224.55C436.687,223.307 438.638,221.503 440.595,219.252C444.459,214.808 448.586,208.348 448.586,200.878L444.586,200.878ZM431.586,224.878C432.733,223.239 432.733,223.239 432.734,223.24C432.734,223.24 432.734,223.24 432.734,223.24C432.734,223.24 432.734,223.24 432.734,223.24C432.733,223.24 432.732,223.239 432.73,223.237C432.725,223.234 432.717,223.228 432.706,223.22C432.683,223.203 432.646,223.177 432.597,223.141C432.498,223.069 432.349,222.958 432.156,222.811C431.77,222.516 431.211,222.075 430.537,221.502C429.187,220.354 427.388,218.69 425.595,216.628C421.96,212.447 418.586,206.907 418.586,200.878L414.586,200.878C414.586,208.348 418.712,214.808 422.577,219.252C424.533,221.503 426.485,223.307 427.947,224.55C428.679,225.172 429.292,225.657 429.727,225.989C429.944,226.155 430.117,226.283 430.238,226.372C430.299,226.416 430.346,226.45 430.38,226.474C430.397,226.486 430.41,226.496 430.42,226.503C430.425,226.506 430.429,226.509 430.432,226.511C430.434,226.513 430.435,226.513 430.436,226.514C430.437,226.515 430.438,226.515 430.438,226.515C430.438,226.516 430.439,226.516 431.586,224.878ZM418.586,200.878C418.586,197.43 419.956,194.123 422.394,191.685L419.565,188.857C416.377,192.045 414.586,196.369 414.586,200.878L418.586,200.878ZM422.394,191.685C424.831,189.247 428.138,187.878 431.586,187.878L431.586,183.878C427.077,183.878 422.753,185.669 419.565,188.857L422.394,191.685ZM431.586,187.878C435.034,187.878 438.34,189.247 440.778,191.685L443.607,188.857C440.418,185.669 436.095,183.878 431.586,183.878L431.586,187.878ZM440.778,191.685C443.216,194.123 444.586,197.43 444.586,200.878L448.586,200.878C448.586,196.369 446.795,192.045 443.607,188.857L440.778,191.685Z" transform="rotate(-64.389 431.586 205.378)" fill="#979C9E"/>
<rect  x="302.269" y="433.326" width="268" height="10" rx="200" transform="rotate(-64.389 302.269 433.326)" fill="#F2F4F5"/>
</g>
<defs>
<filter id="filter16414_858" x="-15.491089" y="-15.875932" width="414.718616" height="329.148399" filterUnits="userSpaceOnUse" color-interpolation-filters="sRGB">
<feFlood flood-opacity="0" result="BackgroundImageFix"/>
<feColorMatrix in="SourceAlpha" type="matrix" values="0 0 0 0 0 0 0 0 0 0 0 0 0 0 0 0 0 0 127 0" result="hardAlpha"/>
<feMorphology radius="0" operator="dilate" in="SourceAlpha" result="0dropshadow"/>
<feOffset dx="0" dy="-4"/>
<feGaussianBlur stdDeviation="8"/>
<feComposite in2="hardAlpha" operator="out"/>
<feColorMatrix type="matrix" values="0 0 0 0 0 0 0 0 0 0 0 0 0 0 0 0 0 0 0.25 0"/>
<feBlend mode="normal" in2="BackgroundImageFix" result="0dropshadow"/>
<feBlend mode="normal" in="SourceGraphic" in2="0dropshadow" result="shape"/>
</filter>
</defs>
</svg>
