<svg width="52" height="52" viewBox="0 0 52 52" fill="none" xmlns="http://www.w3.org/2000/svg" xmlns:xlink="http://www.w3.org/1999/xlink">
<path d="M10.38,24.269C9.813,24.269 9.277,24.489 8.878,24.894L0.426,33.329C0.022,33.734 -0.199,34.264 -0.199,34.832C-0.199,35.399 0.022,35.935 0.426,36.334C0.831,36.738 1.366,36.959 1.934,36.959C2.501,36.959 3.042,36.738 3.441,36.334L11.882,27.893C12.287,27.488 12.507,26.958 12.507,26.391C12.507,25.823 12.287,25.288 11.882,24.888C11.483,24.489 10.947,24.269 10.38,24.269L10.38,24.269Z" fill="#979C9E"/>
<path d="M50.141,2.252C49.322,1.028 47.966,0.298 46.517,0.298C45.944,0.298 45.382,0.413 44.836,0.639L13.246,13.624C11.55,14.322 10.484,15.961 10.536,17.805C10.589,19.638 11.749,21.214 13.499,21.813L25.322,25.847L29.367,37.67C29.981,39.472 31.604,40.633 33.511,40.633C35.318,40.633 36.868,39.593 37.556,37.922L50.545,6.328C51.113,4.957 50.96,3.465 50.141,2.252L50.141,2.252ZM33.39,36.305L29.01,23.493C28.799,22.868 28.306,22.375 27.681,22.165L14.869,17.789C14.822,17.773 14.796,17.763 14.785,17.679C14.791,17.595 14.812,17.584 14.859,17.563L46.438,4.584C46.485,4.568 46.506,4.563 46.506,4.563C46.527,4.563 46.564,4.579 46.595,4.626C46.601,4.631 46.601,4.637 46.606,4.642C46.616,4.652 46.616,4.663 46.616,4.663C46.616,4.663 46.616,4.684 46.601,4.726C46.601,4.731 46.595,4.736 46.595,4.742L33.606,36.31C33.585,36.362 33.574,36.378 33.501,36.378C33.417,36.383 33.406,36.352 33.39,36.305L33.39,36.305Z" fill="#979C9E"/>
<path d="M23.256,39.266L14.82,47.702C14.411,48.106 14.185,48.642 14.185,49.22C14.185,49.787 14.405,50.323 14.81,50.717C15.214,51.116 15.745,51.337 16.317,51.337C16.89,51.337 17.426,51.116 17.825,50.712L26.266,42.271C27.096,41.441 27.096,40.091 26.266,39.261C25.436,38.436 24.086,38.436 23.256,39.266L23.256,39.266Z" fill="#979C9E"/>
<path d="M15.749,37.557C16.322,37.557 16.858,37.337 17.257,36.932L23.865,30.319C24.269,29.915 24.49,29.384 24.49,28.817C24.49,28.25 24.269,27.714 23.865,27.315C23.035,26.485 21.685,26.485 20.855,27.315L14.242,33.928C13.837,34.332 13.617,34.863 13.617,35.43C13.617,35.997 13.837,36.533 14.242,36.932C14.646,37.337 15.182,37.557 15.749,37.557L15.749,37.557Z" fill="#979C9E"/>
</svg>
