<svg width="18" height="46" viewBox="0 0 18 46" fill="none" xmlns="http://www.w3.org/2000/svg" xmlns:xlink="http://www.w3.org/1999/xlink">
<path d="M9,0.438L10.096,-0.261L7.904,-0.261L9,0.438ZM1.667,11.937L0.571,11.238L0.419,12.301L1.667,11.937ZM1.667,30.622L0.436,30.203L0.536,31.263L1.667,30.622ZM9,43.558L7.869,44.199L10.131,44.199L9,43.558ZM16.333,30.622L17.464,31.263L17.537,30.131L16.333,30.622ZM16.333,11.937L17.593,12.258L17.633,11.937L16.333,11.937ZM7.904,-0.261L0.571,11.238L2.763,12.636L10.096,1.137L7.904,-0.261ZM1.667,11.937C0.419,12.301 0.419,12.3 0.418,12.3C0.418,12.3 0.418,12.3 0.418,12.3C0.418,12.3 0.418,12.3 0.418,12.3C0.419,12.3 0.419,12.301 0.419,12.303C0.42,12.306 0.422,12.312 0.424,12.32C0.429,12.336 0.436,12.361 0.445,12.395C0.464,12.464 0.492,12.569 0.527,12.707C0.598,12.984 0.697,13.393 0.808,13.914C1.029,14.956 1.296,16.436 1.473,18.177C1.831,21.682 1.817,26.142 0.436,30.203L2.897,31.041C4.449,26.478 4.436,21.596 4.06,17.913C3.871,16.061 3.588,14.487 3.351,13.373C3.232,12.816 3.125,12.372 3.047,12.064C3.007,11.911 2.975,11.791 2.953,11.708C2.941,11.667 2.932,11.635 2.926,11.612C2.923,11.601 2.92,11.592 2.918,11.585C2.917,11.582 2.917,11.579 2.916,11.577C2.916,11.576 2.915,11.575 2.915,11.574C2.915,11.574 2.915,11.574 2.915,11.574C2.915,11.573 2.915,11.573 1.667,11.937ZM0.536,31.263L7.869,44.199L10.131,42.917L2.798,29.981L0.536,31.263ZM10.131,44.199L17.464,31.263L15.202,29.981L7.869,42.917L10.131,44.199ZM16.333,30.622C17.537,30.131 17.537,30.131 17.537,30.132C17.537,30.132 17.538,30.132 17.538,30.133C17.538,30.133 17.538,30.133 17.538,30.134C17.538,30.134 17.538,30.134 17.538,30.134C17.538,30.133 17.537,30.131 17.536,30.127C17.532,30.119 17.527,30.104 17.518,30.082C17.502,30.039 17.477,29.969 17.444,29.872C17.378,29.679 17.283,29.38 17.176,28.982C16.963,28.186 16.7,26.992 16.525,25.445C16.174,22.352 16.169,17.84 17.593,12.258L15.074,11.615C13.564,17.532 13.559,22.362 13.942,25.738C14.133,27.424 14.421,28.746 14.665,29.657C14.788,30.112 14.899,30.465 14.982,30.709C15.024,30.832 15.058,30.927 15.084,30.994C15.096,31.028 15.107,31.055 15.114,31.075C15.118,31.085 15.122,31.093 15.124,31.099C15.125,31.103 15.126,31.105 15.127,31.108C15.128,31.109 15.128,31.11 15.129,31.111C15.129,31.111 15.129,31.112 15.129,31.112C15.129,31.113 15.13,31.113 16.333,30.622ZM17.633,11.937C17.581,11.573 17.429,11.238 17.429,11.238C17.429,11.237 17.429,11.237 17.429,11.237C17.429,11.237 17.429,11.237 17.429,11.236C17.428,11.236 17.428,11.236 17.428,11.236C17.428,11.236 17.425,11.231 17.424,11.229C17.419,11.221 17.417,11.218 17.408,11.205C17.399,11.191 17.369,11.143 17.347,11.108C17.275,10.996 17.232,10.929 17.114,10.744C16.922,10.443 16.619,9.966 16.284,9.441C15.577,8.334 14.698,6.955 13.763,5.488C12.819,4.008 11.957,2.656 11.242,1.536C11.236,1.527 11.231,1.519 11.226,1.51C11.22,1.502 11.215,1.494 11.21,1.485C11.204,1.477 11.199,1.469 11.194,1.46C11.189,1.452 11.183,1.444 11.178,1.436C11.173,1.427 11.168,1.419 11.162,1.411C11.157,1.403 11.152,1.395 11.147,1.386C11.099,1.312 11.163,1.412 11.116,1.338C11.115,1.337 11.086,1.291 11.085,1.29C11.024,1.193 11.116,1.338 11.055,1.242C11.009,1.171 11.04,1.219 10.995,1.149C10.99,1.141 10.985,1.134 10.981,1.126C10.976,1.118 10.971,1.111 10.966,1.103C10.961,1.096 10.956,1.088 10.952,1.081C10.947,1.073 10.942,1.065 10.937,1.058C10.932,1.051 10.928,1.043 10.923,1.036C10.918,1.028 10.914,1.021 10.909,1.013C10.904,1.006 10.899,0.999 10.895,0.991C10.89,0.984 10.885,0.977 10.881,0.97C10.876,0.962 10.872,0.955 10.867,0.948C10.862,0.941 10.858,0.933 10.853,0.926C10.849,0.919 10.844,0.912 10.84,0.905C10.835,0.898 10.83,0.891 10.826,0.884C10.821,0.876 10.817,0.869 10.813,0.862C10.808,0.855 10.804,0.848 10.799,0.842C10.795,0.835 10.79,0.828 10.786,0.821C10.782,0.814 10.777,0.807 10.773,0.8C10.768,0.793 10.764,0.786 10.76,0.78C10.755,0.773 10.751,0.766 10.747,0.759C10.743,0.753 10.738,0.746 10.734,0.739C10.73,0.733 10.725,0.726 10.721,0.719C10.717,0.713 10.713,0.706 10.709,0.7C10.704,0.693 10.7,0.686 10.696,0.68C10.692,0.673 10.688,0.667 10.684,0.661C10.68,0.654 10.676,0.648 10.671,0.641C10.667,0.635 10.663,0.628 10.659,0.622C10.655,0.616 10.651,0.61 10.647,0.603C10.643,0.597 10.639,0.591 10.635,0.584C10.631,0.578 10.627,0.572 10.623,0.566C10.619,0.56 10.616,0.554 10.612,0.548C10.608,0.541 10.604,0.535 10.6,0.529C10.596,0.523 10.592,0.517 10.589,0.511C10.585,0.505 10.581,0.499 10.577,0.493C10.573,0.488 10.57,0.482 10.566,0.476C10.562,0.47 10.558,0.464 10.555,0.458C10.551,0.452 10.547,0.447 10.544,0.441C10.54,0.435 10.536,0.43 10.533,0.424C10.529,0.418 10.526,0.412 10.522,0.407C10.518,0.401 10.515,0.396 10.511,0.39C10.508,0.385 10.504,0.379 10.501,0.374C10.497,0.368 10.494,0.363 10.49,0.357C10.487,0.352 10.483,0.346 10.48,0.341C10.477,0.336 10.473,0.33 10.47,0.325C10.466,0.32 10.463,0.314 10.46,0.309C10.456,0.304 10.453,0.299 10.45,0.294C10.446,0.288 10.443,0.283 10.44,0.278C10.437,0.273 10.433,0.268 10.43,0.263C10.427,0.258 10.424,0.253 10.421,0.248C10.417,0.243 10.414,0.238 10.411,0.233C10.353,0.142 10.396,0.209 10.34,0.122C10.337,0.117 10.334,0.113 10.332,0.109C10.329,0.104 10.326,0.1 10.324,0.096C10.321,0.091 10.318,0.087 10.316,0.083C10.313,0.079 10.31,0.075 10.308,0.071C10.305,0.067 10.302,0.063 10.3,0.059C10.297,0.054 10.295,0.05 10.292,0.047C10.29,0.043 10.287,0.039 10.285,0.035C10.282,0.031 10.28,0.027 10.277,0.023C10.275,0.019 10.272,0.016 10.27,0.012C10.268,0.008 10.265,0.004 10.263,0.001C10.261,-0.003 10.258,-0.007 10.256,-0.01C10.254,-0.014 10.251,-0.017 10.249,-0.021C10.247,-0.024 10.245,-0.028 10.243,-0.031C10.24,-0.035 10.238,-0.038 10.236,-0.042C10.234,-0.045 10.232,-0.048 10.23,-0.052C10.227,-0.055 10.225,-0.058 10.223,-0.061C10.221,-0.065 10.219,-0.068 10.217,-0.071C10.215,-0.074 10.213,-0.077 10.211,-0.08C10.209,-0.084 10.207,-0.087 10.205,-0.09C10.203,-0.093 10.202,-0.096 10.2,-0.098C10.198,-0.101 10.196,-0.104 10.194,-0.107C10.192,-0.11 10.191,-0.113 10.189,-0.116C10.187,-0.118 10.185,-0.121 10.183,-0.124C10.182,-0.127 10.18,-0.129 10.178,-0.132C10.177,-0.135 10.175,-0.137 10.173,-0.14C10.172,-0.142 10.17,-0.145 10.169,-0.147C10.167,-0.15 10.165,-0.152 10.164,-0.155C10.162,-0.157 10.161,-0.159 10.159,-0.162C10.158,-0.164 10.156,-0.166 10.155,-0.168C10.154,-0.171 10.152,-0.173 10.151,-0.175C10.149,-0.177 10.148,-0.179 10.147,-0.181C10.145,-0.184 10.144,-0.186 10.143,-0.188C10.142,-0.19 10.14,-0.192 10.139,-0.194C10.138,-0.195 10.137,-0.197 10.135,-0.199C10.134,-0.201 10.133,-0.203 10.132,-0.205C10.131,-0.206 10.13,-0.208 10.129,-0.21C10.128,-0.211 10.127,-0.213 10.126,-0.215C10.125,-0.216 10.124,-0.218 10.123,-0.219C10.066,-0.308 10.173,-0.14 10.117,-0.228C10.116,-0.229 10.115,-0.231 10.115,-0.232C10.114,-0.233 10.113,-0.235 10.112,-0.236C10.111,-0.237 10.111,-0.238 10.11,-0.239C10.109,-0.24 10.109,-0.241 10.108,-0.242C10.107,-0.243 10.107,-0.244 10.106,-0.245C10.105,-0.246 10.105,-0.247 10.104,-0.248C10.104,-0.249 10.103,-0.25 10.103,-0.251C10.102,-0.251 10.102,-0.252 10.101,-0.253C10.071,-0.3 10.129,-0.209 10.099,-0.256C10.099,-0.257 10.098,-0.257 10.098,-0.258C10.098,-0.258 10.098,-0.259 10.097,-0.259C10.097,-0.259 10.097,-0.26 10.097,-0.26C10.097,-0.26 10.096,-0.26 10.096,-0.261C10.096,-0.261 10.096,-0.261 10.096,-0.261C10.096,-0.261 10.096,-0.261 9,0.438C7.904,1.137 7.904,1.137 7.904,1.137C7.904,1.137 7.904,1.137 7.904,1.138C7.904,1.138 7.904,1.138 7.905,1.138C7.905,1.138 7.905,1.139 7.905,1.139C7.905,1.139 7.906,1.14 7.906,1.14C7.906,1.141 7.907,1.141 7.907,1.142C7.937,1.189 7.879,1.098 7.909,1.145C7.91,1.146 7.91,1.147 7.911,1.148C7.911,1.148 7.912,1.149 7.912,1.15C7.913,1.151 7.913,1.152 7.914,1.153C7.915,1.154 7.915,1.155 7.916,1.156C7.916,1.157 7.917,1.158 7.918,1.159C7.919,1.16 7.919,1.161 7.92,1.162C7.921,1.164 7.922,1.165 7.922,1.166C7.923,1.167 7.924,1.169 7.925,1.17C7.97,1.241 7.89,1.116 7.937,1.188C7.938,1.19 7.939,1.192 7.94,1.193C7.941,1.195 7.942,1.197 7.943,1.199C7.945,1.201 7.946,1.203 7.947,1.205C7.948,1.206 7.949,1.208 7.951,1.21C7.952,1.212 7.953,1.214 7.955,1.217C7.956,1.219 7.957,1.221 7.959,1.223C7.96,1.225 7.961,1.227 7.963,1.23C7.964,1.232 7.966,1.234 7.967,1.236C7.969,1.239 7.97,1.241 7.972,1.244C7.973,1.246 7.975,1.248 7.976,1.251C7.978,1.253 7.98,1.256 7.981,1.258C7.983,1.261 7.985,1.264 7.986,1.266C7.988,1.269 7.99,1.271 7.991,1.274C7.993,1.277 7.995,1.28 7.997,1.282C7.998,1.285 8,1.288 8.002,1.291C8.004,1.294 8.006,1.297 8.008,1.3C8.025,1.328 8.001,1.289 8.019,1.318C8.021,1.321 8.023,1.324 8.025,1.327C8.027,1.33 8.029,1.333 8.031,1.337C8.033,1.34 8.035,1.343 8.037,1.346C8.04,1.35 8.042,1.353 8.044,1.356C8.046,1.36 8.048,1.363 8.05,1.367C8.053,1.37 8.055,1.374 8.057,1.377C8.059,1.381 8.062,1.384 8.064,1.388C8.066,1.391 8.068,1.395 8.071,1.399C8.119,1.474 8.037,1.346 8.085,1.421C8.088,1.425 8.09,1.429 8.093,1.433C8.095,1.437 8.098,1.441 8.1,1.445C8.103,1.449 8.105,1.453 8.108,1.457C8.11,1.461 8.113,1.465 8.115,1.469C8.118,1.473 8.121,1.477 8.123,1.481C8.126,1.485 8.129,1.49 8.131,1.494C8.134,1.498 8.137,1.502 8.14,1.507C8.142,1.511 8.145,1.515 8.148,1.52C8.151,1.524 8.153,1.528 8.156,1.533C8.159,1.537 8.162,1.542 8.165,1.546C8.168,1.551 8.171,1.555 8.174,1.56C8.177,1.564 8.179,1.569 8.182,1.574C8.185,1.578 8.188,1.583 8.191,1.588C8.194,1.592 8.197,1.597 8.2,1.602C8.204,1.607 8.207,1.612 8.21,1.616C8.213,1.621 8.216,1.626 8.219,1.631C8.222,1.636 8.225,1.641 8.228,1.646C8.232,1.651 8.235,1.656 8.238,1.661C8.241,1.666 8.245,1.671 8.248,1.676C8.251,1.681 8.254,1.686 8.258,1.692C8.261,1.697 8.264,1.702 8.268,1.707C8.271,1.712 8.274,1.718 8.278,1.723C8.281,1.728 8.284,1.734 8.288,1.739C8.291,1.744 8.295,1.75 8.298,1.755C8.319,1.787 8.299,1.756 8.319,1.788C8.345,1.829 8.314,1.781 8.341,1.822C8.373,1.872 8.353,1.841 8.385,1.891C8.389,1.897 8.393,1.903 8.396,1.909C8.4,1.915 8.404,1.921 8.408,1.927C8.412,1.933 8.416,1.939 8.42,1.946C8.423,1.952 8.427,1.958 8.431,1.964C8.435,1.97 8.439,1.976 8.443,1.983C8.447,1.989 8.451,1.995 8.455,2.001C8.459,2.008 8.463,2.014 8.467,2.02C8.471,2.027 8.475,2.033 8.479,2.039C8.483,2.046 8.488,2.052 8.492,2.059C8.496,2.065 8.5,2.071 8.504,2.078C8.508,2.085 8.512,2.091 8.517,2.098C8.521,2.104 8.525,2.111 8.529,2.117C8.533,2.124 8.538,2.131 8.542,2.137C8.546,2.144 8.55,2.151 8.555,2.157C8.559,2.164 8.563,2.171 8.568,2.178C8.572,2.185 8.576,2.191 8.581,2.198C8.585,2.205 8.589,2.212 8.594,2.219C8.598,2.226 8.603,2.233 8.607,2.24C8.611,2.247 8.616,2.253 8.62,2.26C8.625,2.267 8.629,2.275 8.634,2.282C8.638,2.289 8.643,2.296 8.647,2.303C8.652,2.31 8.656,2.317 8.661,2.324C8.666,2.331 8.67,2.339 8.675,2.346C8.679,2.353 8.684,2.36 8.689,2.368C8.693,2.375 8.698,2.382 8.703,2.389C8.707,2.397 8.712,2.404 8.717,2.412C8.761,2.48 8.701,2.387 8.745,2.456C8.75,2.464 8.755,2.471 8.759,2.479C8.764,2.486 8.769,2.494 8.774,2.501C8.779,2.509 8.784,2.516 8.788,2.524C8.793,2.532 8.798,2.539 8.803,2.547C8.808,2.555 8.813,2.562 8.818,2.57C8.823,2.578 8.828,2.586 8.833,2.593C8.838,2.601 8.843,2.609 8.848,2.617C8.853,2.625 8.858,2.632 8.863,2.64C8.868,2.648 8.873,2.656 8.878,2.664C8.883,2.672 8.888,2.68 8.893,2.688C8.898,2.696 8.903,2.704 8.908,2.712C8.913,2.72 8.918,2.728 8.924,2.736C8.968,2.805 8.91,2.715 8.955,2.784C8.96,2.793 8.965,2.801 8.97,2.809C8.975,2.817 8.981,2.825 8.986,2.834C8.991,2.842 8.996,2.85 9.002,2.858C9.007,2.867 9.012,2.875 9.018,2.883C9.023,2.892 9.028,2.9 9.034,2.908C9.039,2.917 9.044,2.925 9.05,2.934C9.097,3.008 9.067,2.961 9.115,3.036C9.12,3.044 9.126,3.053 9.131,3.062C9.137,3.07 9.142,3.079 9.148,3.088C9.153,3.096 9.159,3.105 9.165,3.114C9.17,3.122 9.176,3.131 9.181,3.14C9.187,3.149 9.192,3.157 9.198,3.166C9.204,3.175 9.209,3.184 9.215,3.193C9.221,3.202 9.226,3.21 9.232,3.219C9.238,3.228 9.243,3.237 9.249,3.246C9.255,3.255 9.26,3.264 9.266,3.273C9.272,3.282 9.277,3.291 9.283,3.3C9.289,3.309 9.295,3.318 9.301,3.327C9.306,3.336 9.312,3.345 9.318,3.354C9.339,3.387 9.332,3.376 9.353,3.409C9.359,3.418 9.364,3.427 9.37,3.436C9.376,3.445 9.382,3.455 9.388,3.464C9.394,3.473 9.4,3.482 9.406,3.492C9.412,3.501 9.417,3.51 9.423,3.52C9.429,3.529 9.435,3.538 9.441,3.548C9.447,3.557 9.453,3.566 9.459,3.576C9.521,3.673 9.541,3.704 9.605,3.804C9.633,3.848 9.614,3.818 9.642,3.862C9.648,3.872 9.654,3.881 9.66,3.891C9.667,3.901 9.673,3.911 9.679,3.921C9.685,3.93 9.692,3.94 9.698,3.95C9.704,3.96 9.71,3.97 9.717,3.979C9.723,3.989 9.729,3.999 9.735,4.009C9.742,4.019 9.748,4.029 9.754,4.039C9.798,4.106 9.749,4.03 9.792,4.098C9.799,4.108 9.805,4.118 9.811,4.128C9.818,4.138 9.824,4.148 9.831,4.158C9.837,4.168 9.843,4.178 9.85,4.188C9.856,4.198 9.863,4.208 9.869,4.218C9.876,4.229 9.882,4.239 9.888,4.249C9.895,4.259 9.901,4.269 9.908,4.279C9.914,4.289 9.921,4.299 9.927,4.31C9.934,4.32 9.94,4.33 9.947,4.34C9.953,4.35 9.96,4.36 9.966,4.371C9.973,4.381 9.979,4.391 9.986,4.401C9.992,4.412 9.999,4.422 10.005,4.432C10.012,4.442 10.018,4.453 10.025,4.463C10.032,4.473 10.038,4.483 10.045,4.494C10.051,4.504 10.058,4.514 10.064,4.525C10.098,4.577 10.071,4.535 10.104,4.587C10.111,4.597 10.117,4.608 10.124,4.618C10.131,4.629 10.137,4.639 10.144,4.649C10.151,4.66 10.157,4.67 10.164,4.681C10.171,4.691 10.177,4.702 10.184,4.712C10.191,4.723 10.197,4.733 10.204,4.744C10.211,4.754 10.217,4.765 10.224,4.775C10.257,4.827 10.231,4.787 10.265,4.839C10.291,4.881 10.278,4.86 10.305,4.902C10.312,4.913 10.319,4.923 10.325,4.934C10.332,4.945 10.339,4.955 10.346,4.966C10.353,4.977 10.359,4.987 10.366,4.998C10.373,5.009 10.38,5.019 10.387,5.03C10.413,5.071 10.525,5.247 10.551,5.288C10.558,5.299 10.565,5.31 10.572,5.321C10.579,5.332 10.586,5.343 10.593,5.353C10.612,5.383 10.616,5.389 10.635,5.419C10.713,5.542 10.639,5.426 10.718,5.55C10.725,5.561 10.732,5.572 10.739,5.583C10.746,5.594 10.753,5.605 10.76,5.616C10.813,5.699 10.749,5.599 10.802,5.682C10.809,5.693 10.816,5.704 10.823,5.715C10.83,5.726 10.837,5.737 10.844,5.748C10.851,5.759 10.858,5.77 10.866,5.781C10.873,5.792 10.88,5.803 10.887,5.814C10.894,5.825 10.901,5.836 10.908,5.847C10.915,5.858 10.922,5.869 10.929,5.88C10.936,5.891 10.943,5.903 10.95,5.914C10.957,5.925 10.964,5.936 10.971,5.947C11.037,6.05 10.948,5.911 11.014,6.013C11.021,6.025 11.028,6.036 11.035,6.047C11.042,6.058 11.049,6.069 11.056,6.08C11.064,6.091 11.071,6.102 11.078,6.114C11.085,6.125 11.092,6.136 11.099,6.147C11.106,6.158 11.113,6.169 11.12,6.18C11.128,6.192 11.135,6.203 11.142,6.214C11.156,6.236 11.17,6.259 11.184,6.281C11.192,6.292 11.199,6.303 11.206,6.315C11.213,6.326 11.22,6.337 11.227,6.348C11.247,6.379 11.293,6.451 11.313,6.482C11.32,6.494 11.327,6.505 11.334,6.516C11.342,6.527 11.349,6.538 11.356,6.55C11.363,6.561 11.37,6.572 11.377,6.583C11.384,6.594 11.392,6.606 11.399,6.617C11.406,6.628 11.413,6.639 11.42,6.651C11.427,6.662 11.435,6.673 11.442,6.684C11.449,6.695 11.456,6.707 11.463,6.718C11.47,6.729 11.477,6.74 11.485,6.752C11.543,6.844 11.512,6.794 11.571,6.886C12.521,8.376 13.37,9.709 14.091,10.839C14.437,11.382 14.719,11.824 14.922,12.142C15.008,12.276 15.116,12.445 15.155,12.507C15.183,12.551 15.201,12.579 15.216,12.603C15.221,12.61 15.231,12.626 15.232,12.627C15.234,12.631 15.235,12.632 15.236,12.634C15.237,12.635 15.236,12.634 15.237,12.635C15.237,12.635 15.237,12.635 15.237,12.636C15.237,12.636 15.085,12.301 15.033,11.937L17.633,11.937Z" fill="#FF3E47"/>
</svg>
