<svg width="48" height="40" viewBox="0 0 48 40" fill="none" xmlns="http://www.w3.org/2000/svg" xmlns:xlink="http://www.w3.org/1999/xlink">
<path d="M16.74,0.681C17.633,0.681 18.359,1.392 18.359,2.271C18.359,3.147 17.636,3.858 16.74,3.858L13.274,3.86C10.397,3.865 8.057,6.162 8.057,8.985L8.057,12.94C8.057,13.817 7.329,14.53 6.436,14.53C5.542,14.53 4.816,13.817 4.816,12.94L4.816,8.985C4.816,4.411 8.61,0.687 13.272,0.683L16.738,0.681L16.74,0.681ZM32.001,0.681L35.391,0.681C40.065,0.681 43.865,4.408 43.865,8.991L43.865,12.941C43.865,13.817 43.142,14.531 42.246,14.531C41.352,14.531 40.627,13.817 40.627,12.941L40.627,8.991C40.627,6.16 38.278,3.857 35.391,3.857L32.001,3.857C31.108,3.857 30.382,3.147 30.382,2.271C30.382,1.393 31.108,0.681 32.001,0.681ZM30.218,8.644L18.465,8.644C15.775,8.671 13.614,10.826 13.637,13.466L13.637,16.115C13.644,16.424 13.897,16.676 14.212,16.687L34.467,16.687C34.784,16.679 35.037,16.426 35.048,16.115L35.048,13.466C35.05,12.191 34.548,10.966 33.641,10.054C32.741,9.151 31.505,8.644 30.218,8.644ZM2.557,19.917L46.126,19.917C47.019,19.917 47.745,20.629 47.745,21.507C47.745,22.383 47.019,23.093 46.126,23.093L43.866,23.093L43.866,30.666C43.866,35.252 40.064,38.979 35.392,38.979L32.002,38.979C31.106,38.979 30.381,38.267 30.381,37.389C30.381,36.512 31.106,35.801 32.002,35.801L35.392,35.801C38.279,35.801 40.628,33.5 40.628,30.666L40.628,23.093L35.047,23.093L35.047,25.202C35.068,27.841 32.909,29.999 30.217,30.024L18.464,30.024C15.774,29.999 13.615,27.841 13.636,25.202L13.636,23.093L8.055,23.093L8.055,30.675C8.055,33.498 10.398,35.795 13.277,35.799L16.74,35.801C17.634,35.801 18.36,36.512 18.36,37.389C18.357,38.267 17.634,38.979 16.738,38.979L13.272,38.976C8.611,38.972 4.815,35.248 4.815,30.675L4.815,23.093L2.557,23.093C1.664,23.093 0.936,22.383 0.936,21.507C0.936,20.629 1.664,19.917 2.557,19.917Z" clip-rule="evenodd" fill-rule="evenodd" fill="#F2F4F5"/>
</svg>
