<svg width="24" height="24" viewBox="0 0 24 24" fill="none" xmlns="http://www.w3.org/2000/svg" xmlns:xlink="http://www.w3.org/1999/xlink">
<path d="M0.544,20.689C-0.176,21.409 -0.191,22.687 0.558,23.436C1.322,24.185 2.6,24.171 3.305,23.466L12.002,14.769L20.684,23.451C21.418,24.185 22.682,24.185 23.431,23.436C24.18,22.672 24.18,21.424 23.445,20.689L14.764,12.007L23.445,3.311C24.18,2.576 24.195,1.313 23.431,0.564C22.682,-0.185 21.418,-0.185 20.684,0.549L12.002,9.231L3.305,0.549C2.6,-0.171 1.307,-0.2 0.558,0.564C-0.191,1.313 -0.176,2.606 0.544,3.311L9.225,12.007L0.544,20.689Z" fill="#FFFFFF"/>
</svg>
