<svg width="64" height="64" viewBox="0 0 64 64" fill="none" xmlns="http://www.w3.org/2000/svg" xmlns:xlink="http://www.w3.org/1999/xlink">
<line x1="10" y1="40.998" x2="37" y2="40.998" stroke="#72777A" stroke-width="2" stroke-miterlimit="3.999327" stroke-linecap="round" stroke-linejoin="round"/>
<line x1="47" y1="40.998" x2="54" y2="40.998" stroke="#72777A" stroke-width="2" stroke-miterlimit="3.999327" stroke-linecap="round" stroke-linejoin="round"/>
<path d="M45,42.998C45,44.655 43.657,45.998 42,45.998L42,49.998C45.866,49.998 49,46.864 49,42.998L45,42.998ZM42,45.998C40.343,45.998 39,44.655 39,42.998L35,42.998C35,46.864 38.134,49.998 42,49.998L42,45.998ZM39,42.998C39,41.341 40.343,39.998 42,39.998L42,35.998C38.134,35.998 35,39.132 35,42.998L39,42.998ZM42,39.998C43.657,39.998 45,41.341 45,42.998L49,42.998C49,39.132 45.866,35.998 42,35.998L42,39.998Z" fill="#72777A"/>
<line x1="10" y1="18.998" x2="21" y2="18.998" stroke="#72777A" stroke-width="2" stroke-miterlimit="3.999327" stroke-linecap="round" stroke-linejoin="round"/>
<line x1="31" y1="18.998" x2="54" y2="18.998" stroke="#72777A" stroke-width="2" stroke-miterlimit="3.999327" stroke-linecap="round" stroke-linejoin="round"/>
<path d="M29,20.998C29,22.655 27.657,23.998 26,23.998L26,27.998C29.866,27.998 33,24.864 33,20.998L29,20.998ZM26,23.998C24.343,23.998 23,22.655 23,20.998L19,20.998C19,24.864 22.134,27.998 26,27.998L26,23.998ZM23,20.998C23,19.341 24.343,17.998 26,17.998L26,13.998C22.134,13.998 19,17.132 19,20.998L23,20.998ZM26,17.998C27.657,17.998 29,19.341 29,20.998L33,20.998C33,17.132 29.866,13.998 26,13.998L26,17.998Z" fill="#72777A"/>
</svg>
