<svg width="140" height="200" viewBox="0 0 140 200" fill="none" xmlns="http://www.w3.org/2000/svg" xmlns:xlink="http://www.w3.org/1999/xlink">
<path d="M0,130.518C0,84.197 70,0 70,0C70,0 103.856,40.723 124.478,81.107C86.515,86.571 54.933,111.779 40.475,145.989C39.842,141.867 39.457,138.07 39.457,135.073C39.457,114.164 48.127,86.342 55.035,64.176C59.144,50.994 62.628,39.812 63.296,33.274C57.887,44.368 51.112,55.74 44.476,66.879C31.139,89.265 18.363,110.71 18.363,127.067C18.363,139.01 21.966,154.926 34.051,166.946C32.705,173.756 32,180.795 32,188C32,188.295 32.001,188.59 32.003,188.885C12.743,176.507 0,154.991 0,130.518ZM135.932,108.102C138.497,116.131 140,123.731 140,130.518C140,168.895 108.663,200 70,200C66.884,200 63.815,199.798 60.807,199.406C60.275,195.681 60,191.872 60,188C60,145.181 93.639,110.22 135.932,108.102Z" clip-rule="evenodd" fill-rule="evenodd" fill="#FF3E47"/>
</svg>
