<svg width="750" height="1624" viewBox="0 0 750 1624" fill="none" xmlns="http://www.w3.org/2000/svg" xmlns:xlink="http://www.w3.org/1999/xlink">
<path d="M80,0L0,0L0,80C0,35.817 35.817,0 80,0ZM156,0L157.784,0.432C161.559,1.348 164.667,4.172 166.009,7.8C166.075,7.979 166.091,8.171 166.091,8.362L166.078,15.922C166.078,41.405 186.673,62 212.078,62L537.922,62C563.328,62 583.922,41.405 583.922,16L583.908,8.362C583.908,8.169 583.938,7.981 584.004,7.8C585.336,4.146 588.422,1.352 592.216,0.432L594,0L156,0ZM670,0C714.182,0 750,35.817 750,80L750,0L670,0ZM750,1544C750,1588.182 714.182,1624 670,1624L750,1624L750,1544ZM80,1624C35.817,1624 0,1588.182 0,1544L0,1624L80,1624Z" clip-rule="evenodd" fill-rule="evenodd" fill="#000000"/>
</svg>
