<svg width="110" height="158" viewBox="0 0 110 158" fill="none" xmlns="http://www.w3.org/2000/svg" xmlns:xlink="http://www.w3.org/1999/xlink">
<path d="M0,101.911C0,65.743 54.658,0 54.658,0C54.658,0 81.093,31.797 97.195,63.33C67.553,67.597 42.893,87.28 31.604,113.992C31.109,110.773 30.809,107.808 30.809,105.468C30.809,89.142 37.579,67.418 42.973,50.11C46.181,39.818 48.902,31.086 49.423,25.981C45.199,34.644 39.909,43.523 34.728,52.221C24.314,69.7 14.338,86.445 14.338,99.217C14.338,108.542 17.152,120.969 26.588,130.355C25.537,135.672 24.986,141.169 24.986,146.794C24.986,147.025 24.987,147.255 24.989,147.485C9.95,137.82 0,121.02 0,101.911ZM107.836,90.485C108.787,94.519 109.315,98.358 109.315,101.911C109.315,131.877 84.847,156.164 54.658,156.164C54.358,156.164 54.059,156.162 53.761,156.157C53.251,153.112 52.986,149.984 52.986,146.794C52.986,116.179 77.41,91.269 107.836,90.485Z" clip-rule="evenodd" fill-rule="evenodd" fill="#FFFFFF"/>
</svg>
