<svg width="32" height="36" viewBox="0 0 32 36" fill="none" xmlns="http://www.w3.org/2000/svg" xmlns:xlink="http://www.w3.org/1999/xlink">
<path d="M16,2.254C8.956,2.254 3.246,7.979 3.246,15.04C3.246,19.62 5.575,23.371 8.423,26.247C11.269,29.122 14.496,30.978 15.939,31.728C15.969,31.743 15.988,31.746 16,31.746C16.012,31.746 16.031,31.743 16.061,31.728C17.504,30.978 20.731,29.122 23.577,26.247C26.425,23.371 28.754,19.62 28.754,15.04C28.754,7.979 23.044,2.254 16,2.254ZM0,15.04C0,6.181 7.163,-1 16,-1C24.837,-1 32,6.181 32,15.04C32,20.801 29.061,25.328 25.881,28.54C22.701,31.753 19.143,33.792 17.554,34.618C16.573,35.127 15.427,35.127 14.446,34.618C12.857,33.792 9.299,31.753 6.119,28.54C2.94,25.328 0,20.801 0,15.04ZM16,10.49C13.494,10.49 11.462,12.527 11.462,15.04C11.462,17.553 13.494,19.59 16,19.59C18.506,19.59 20.538,17.553 20.538,15.04C20.538,12.527 18.506,10.49 16,10.49ZM8.215,15.04C8.215,10.73 11.701,7.236 16,7.236C20.299,7.236 23.785,10.73 23.785,15.04C23.785,19.35 20.299,22.844 16,22.844C11.701,22.844 8.215,19.35 8.215,15.04Z" clip-rule="evenodd" fill-rule="evenodd" fill="#EC3535"/>
</svg>
