<svg width="32" height="36" viewBox="0 0 32 36" fill="none" xmlns="http://www.w3.org/2000/svg" xmlns:xlink="http://www.w3.org/1999/xlink">
<path d="M16,3.254C8.956,3.254 3.246,8.979 3.246,16.04C3.246,20.62 5.575,24.371 8.423,27.247C11.269,30.122 14.496,31.978 15.939,32.728C15.969,32.743 15.988,32.746 16,32.746C16.012,32.746 16.031,32.743 16.061,32.728C17.504,31.978 20.731,30.122 23.577,27.247C26.425,24.371 28.754,20.62 28.754,16.04C28.754,8.979 23.044,3.254 16,3.254ZM0,16.04C0,7.181 7.163,0 16,0C24.837,0 32,7.181 32,16.04C32,21.801 29.061,26.328 25.881,29.54C22.701,32.753 19.143,34.792 17.554,35.618C16.573,36.127 15.427,36.127 14.446,35.618C12.857,34.792 9.299,32.753 6.119,29.54C2.939,26.328 0,21.801 0,16.04ZM16,11.49C13.494,11.49 11.462,13.527 11.462,16.04C11.462,18.553 13.494,20.59 16,20.59C18.506,20.59 20.538,18.553 20.538,16.04C20.538,13.527 18.506,11.49 16,11.49ZM8.215,16.04C8.215,11.73 11.701,8.236 16,8.236C20.299,8.236 23.785,11.73 23.785,16.04C23.785,20.35 20.299,23.844 16,23.844C11.701,23.844 8.215,20.35 8.215,16.04Z" clip-rule="evenodd" fill-rule="evenodd" fill="#EC3535"/>
</svg>
