<svg width="1886" height="902" viewBox="0 0 1886 902" fill="none" xmlns="http://www.w3.org/2000/svg" xmlns:xlink="http://www.w3.org/1999/xlink">
<path d="M1433.765,332.054C1430.764,332.101 1427.903,333.276 1425.799,335.326C1423.694,337.376 1422.515,340.136 1422.515,343.011C1422.515,345.886 1423.694,348.646 1425.799,350.696C1427.903,352.746 1430.764,353.921 1433.765,353.968L1720.513,353.968C1722.015,353.993 1723.509,353.734 1724.907,353.206C1726.307,352.678 1727.583,351.891 1728.663,350.89C1729.743,349.889 1730.607,348.694 1731.207,347.373C1731.805,346.052 1732.125,344.631 1732.149,343.191C1732.175,341.751 1731.903,340.32 1731.349,338.981C1730.797,337.642 1729.975,336.42 1728.929,335.386C1727.883,334.352 1726.635,333.525 1725.255,332.953C1723.875,332.381 1722.391,332.076 1720.889,332.054C1720.763,332.052 1720.639,332.052 1720.513,332.054L1433.765,332.054Z" fill="#3F3D56"/>
<path d="M1785.54,329.003C1785.331,329.203 1785.165,329.441 1785.052,329.702C1784.939,329.964 1784.881,330.244 1784.881,330.527C1784.881,330.81 1784.939,331.091 1785.052,331.352C1785.165,331.614 1785.331,331.852 1785.54,332.052L1795.201,341.308L1771.378,341.308C1770.782,341.308 1770.209,341.535 1769.787,341.939C1769.365,342.344 1769.128,342.892 1769.128,343.464C1769.128,344.036 1769.365,344.584 1769.787,344.989C1770.209,345.393 1770.782,345.62 1771.378,345.62L1795.201,345.62L1785.54,354.876C1785.331,355.076 1785.165,355.314 1785.052,355.576C1784.939,355.837 1784.881,356.118 1784.881,356.401C1784.881,356.684 1784.939,356.964 1785.052,357.226C1785.165,357.487 1785.331,357.725 1785.54,357.925C1785.749,358.126 1785.997,358.284 1786.27,358.393C1786.543,358.501 1786.836,358.557 1787.131,358.557C1787.427,358.557 1787.72,358.501 1787.993,358.393C1788.266,358.284 1788.514,358.126 1788.723,357.925L1802.225,344.989C1802.648,344.584 1802.885,344.036 1802.885,343.464C1802.885,342.892 1802.648,342.344 1802.225,341.939L1788.723,329.003C1788.514,328.802 1788.266,328.644 1787.993,328.535C1787.72,328.427 1787.427,328.371 1787.131,328.371C1786.836,328.371 1786.543,328.427 1786.27,328.535C1785.997,328.644 1785.749,328.802 1785.54,329.003Z" fill="#FFFFFF"/>
<path d="M1368.616,329.003C1368.825,329.203 1368.991,329.441 1369.104,329.702C1369.217,329.964 1369.275,330.244 1369.275,330.527C1369.275,330.81 1369.217,331.091 1369.104,331.352C1368.991,331.614 1368.825,331.852 1368.616,332.052L1358.955,341.308L1382.778,341.308C1383.074,341.307 1383.367,341.362 1383.641,341.47C1383.915,341.578 1384.164,341.737 1384.373,341.937C1384.583,342.138 1384.749,342.375 1384.863,342.637C1384.976,342.899 1385.035,343.18 1385.035,343.464C1385.035,343.748 1384.976,344.029 1384.863,344.291C1384.749,344.553 1384.583,344.791 1384.373,344.991C1384.164,345.191 1383.915,345.35 1383.641,345.458C1383.367,345.566 1383.074,345.621 1382.778,345.62L1358.955,345.62L1368.616,354.876C1369.038,355.28 1369.275,355.829 1369.275,356.401C1369.275,356.973 1369.038,357.521 1368.616,357.925C1368.194,358.33 1367.622,358.557 1367.025,358.557C1366.428,358.557 1365.856,358.33 1365.433,357.925L1351.931,344.989C1351.509,344.584 1351.272,344.036 1351.272,343.464C1351.272,342.892 1351.509,342.344 1351.931,341.939L1365.433,329.003C1365.642,328.802 1365.89,328.644 1366.164,328.535C1366.437,328.427 1366.729,328.371 1367.025,328.371C1367.32,328.371 1367.613,328.427 1367.886,328.535C1368.159,328.644 1368.407,328.802 1368.616,329.003Z" fill="#FFFFFF"/>
<g opacity="0.4">
<path d="M1445.344,104.632C1452.132,104.632 1457.634,99.36 1457.634,92.857C1457.634,86.354 1452.132,81.082 1445.344,81.082C1438.556,81.082 1433.054,86.354 1433.054,92.857C1433.054,99.36 1438.556,104.632 1445.344,104.632Z" fill="#FFFFFF"/>
<path d="M1496.553,104.632C1503.341,104.632 1508.844,99.36 1508.844,92.857C1508.844,86.354 1503.341,81.082 1496.553,81.082C1489.766,81.082 1484.263,86.354 1484.263,92.857C1484.263,99.36 1489.766,104.632 1496.553,104.632Z" fill="#FFFFFF"/>
<path d="M1547.762,104.632C1554.55,104.632 1560.053,99.36 1560.053,92.857C1560.053,86.354 1554.55,81.082 1547.762,81.082C1540.975,81.082 1535.472,86.354 1535.472,92.857C1535.472,99.36 1540.975,104.632 1547.762,104.632Z" fill="#FFFFFF"/>
<path d="M1598.972,104.632C1605.759,104.632 1611.262,99.36 1611.262,92.857C1611.262,86.354 1605.759,81.082 1598.972,81.082C1592.184,81.082 1586.681,86.354 1586.681,92.857C1586.681,99.36 1592.184,104.632 1598.972,104.632Z" fill="#FFFFFF"/>
<path d="M1650.181,104.632C1656.968,104.632 1662.471,99.36 1662.471,92.857C1662.471,86.354 1656.968,81.082 1650.181,81.082C1643.393,81.082 1637.891,86.354 1637.891,92.857C1637.891,99.36 1643.393,104.632 1650.181,104.632Z" fill="#FFFFFF"/>
<path d="M1701.39,104.632C1708.178,104.632 1713.68,99.36 1713.68,92.857C1713.68,86.354 1708.178,81.082 1701.39,81.082C1694.602,81.082 1689.1,86.354 1689.1,92.857C1689.1,99.36 1694.602,104.632 1701.39,104.632Z" fill="#FFFFFF"/>
<path d="M1752.599,104.632C1759.387,104.632 1764.889,99.36 1764.889,92.857C1764.889,86.354 1759.387,81.082 1752.599,81.082C1745.811,81.082 1740.309,86.354 1740.309,92.857C1740.309,99.36 1745.811,104.632 1752.599,104.632Z" fill="#FFFFFF"/>
<path d="M1445.344,141.92C1452.132,141.92 1457.634,136.648 1457.634,130.145C1457.634,123.642 1452.132,118.37 1445.344,118.37C1438.557,118.37 1433.054,123.642 1433.054,130.145C1433.054,136.648 1438.557,141.92 1445.344,141.92Z" fill="#FFFFFF"/>
<path d="M1496.553,141.92C1503.341,141.92 1508.844,136.648 1508.844,130.145C1508.844,123.642 1503.341,118.37 1496.553,118.37C1489.766,118.37 1484.263,123.642 1484.263,130.145C1484.263,136.648 1489.766,141.92 1496.553,141.92Z" fill="#FFFFFF"/>
<path d="M1547.762,141.92C1554.55,141.92 1560.053,136.648 1560.053,130.145C1560.053,123.642 1554.55,118.37 1547.762,118.37C1540.975,118.37 1535.472,123.642 1535.472,130.145C1535.472,136.648 1540.975,141.92 1547.762,141.92Z" fill="#FFFFFF"/>
<path d="M1598.972,141.92C1605.759,141.92 1611.262,136.648 1611.262,130.145C1611.262,123.642 1605.759,118.37 1598.972,118.37C1592.184,118.37 1586.681,123.642 1586.681,130.145C1586.681,136.648 1592.184,141.92 1598.972,141.92Z" fill="#FFFFFF"/>
<path d="M1650.181,141.92C1656.968,141.92 1662.471,136.648 1662.471,130.145C1662.471,123.642 1656.968,118.37 1650.181,118.37C1643.393,118.37 1637.891,123.642 1637.891,130.145C1637.891,136.648 1643.393,141.92 1650.181,141.92Z" fill="#FFFFFF"/>
<path d="M1701.39,141.92C1708.178,141.92 1713.68,136.648 1713.68,130.145C1713.68,123.642 1708.178,118.37 1701.39,118.37C1694.602,118.37 1689.1,123.642 1689.1,130.145C1689.1,136.648 1694.602,141.92 1701.39,141.92Z" fill="#FFFFFF"/>
<path d="M1752.599,141.92C1759.387,141.92 1764.889,136.648 1764.889,130.145C1764.889,123.642 1759.387,118.37 1752.599,118.37C1745.811,118.37 1740.309,123.642 1740.309,130.145C1740.309,136.648 1745.811,141.92 1752.599,141.92Z" fill="#FFFFFF"/>
<path d="M1445.344,179.208C1452.132,179.208 1457.634,173.936 1457.634,167.433C1457.634,160.93 1452.132,155.658 1445.344,155.658C1438.557,155.658 1433.054,160.93 1433.054,167.433C1433.054,173.936 1438.557,179.208 1445.344,179.208Z" fill="#FFFFFF"/>
<path d="M1496.553,179.208C1503.341,179.208 1508.844,173.936 1508.844,167.433C1508.844,160.93 1503.341,155.658 1496.553,155.658C1489.766,155.658 1484.263,160.93 1484.263,167.433C1484.263,173.936 1489.766,179.208 1496.553,179.208Z" fill="#FFFFFF"/>
<path d="M1547.762,179.208C1554.55,179.208 1560.053,173.936 1560.053,167.433C1560.053,160.93 1554.55,155.658 1547.762,155.658C1540.975,155.658 1535.472,160.93 1535.472,167.433C1535.472,173.936 1540.975,179.208 1547.762,179.208Z" fill="#FFFFFF"/>
<path d="M1598.972,179.208C1605.759,179.208 1611.262,173.936 1611.262,167.433C1611.262,160.93 1605.759,155.658 1598.972,155.658C1592.184,155.658 1586.681,160.93 1586.681,167.433C1586.681,173.936 1592.184,179.208 1598.972,179.208Z" fill="#FFFFFF"/>
<path d="M1650.181,179.208C1656.968,179.208 1662.471,173.936 1662.471,167.433C1662.471,160.93 1656.968,155.658 1650.181,155.658C1643.393,155.658 1637.891,160.93 1637.891,167.433C1637.891,173.936 1643.393,179.208 1650.181,179.208Z" fill="#FFFFFF"/>
<path d="M1701.39,179.208C1708.178,179.208 1713.68,173.936 1713.68,167.433C1713.68,160.93 1708.178,155.658 1701.39,155.658C1694.602,155.658 1689.1,160.93 1689.1,167.433C1689.1,173.936 1694.602,179.208 1701.39,179.208Z" fill="#FFFFFF"/>
<path d="M1752.599,179.208C1759.387,179.208 1764.889,173.936 1764.889,167.433C1764.889,160.93 1759.387,155.658 1752.599,155.658C1745.811,155.658 1740.309,160.93 1740.309,167.433C1740.309,173.936 1745.811,179.208 1752.599,179.208Z" fill="#FFFFFF"/>
<path d="M1445.344,216.496C1452.132,216.496 1457.634,211.224 1457.634,204.721C1457.634,198.217 1452.132,192.946 1445.344,192.946C1438.557,192.946 1433.054,198.217 1433.054,204.721C1433.054,211.224 1438.557,216.496 1445.344,216.496Z" fill="#FFFFFF"/>
<path d="M1496.553,216.496C1503.341,216.496 1508.844,211.224 1508.844,204.721C1508.844,198.217 1503.341,192.946 1496.553,192.946C1489.766,192.946 1484.263,198.217 1484.263,204.721C1484.263,211.224 1489.766,216.496 1496.553,216.496Z" fill="#FFFFFF"/>
<path d="M1445.344,253.784C1452.132,253.784 1457.634,248.512 1457.634,242.009C1457.634,235.505 1452.132,230.233 1445.344,230.233C1438.557,230.233 1433.054,235.505 1433.054,242.009C1433.054,248.512 1438.557,253.784 1445.344,253.784Z" fill="#FFFFFF"/>
<path d="M1496.553,253.784C1503.341,253.784 1508.844,248.512 1508.844,242.009C1508.844,235.505 1503.341,230.233 1496.553,230.233C1489.766,230.233 1484.263,235.505 1484.263,242.009C1484.263,248.512 1489.766,253.784 1496.553,253.784Z" fill="#FFFFFF"/>
<path d="M1547.762,253.784C1554.55,253.784 1560.053,248.512 1560.053,242.009C1560.053,235.505 1554.55,230.233 1547.762,230.233C1540.975,230.233 1535.472,235.505 1535.472,242.009C1535.472,248.512 1540.975,253.784 1547.762,253.784Z" fill="#FFFFFF"/>
<path d="M1547.762,216.496C1554.55,216.496 1560.053,211.224 1560.053,204.721C1560.053,198.217 1554.55,192.946 1547.762,192.946C1540.975,192.946 1535.472,198.217 1535.472,204.721C1535.472,211.224 1540.975,216.496 1547.762,216.496Z" fill="#FFFFFF"/>
<path d="M1598.972,216.496C1605.759,216.496 1611.262,211.224 1611.262,204.721C1611.262,198.217 1605.759,192.946 1598.972,192.946C1592.184,192.946 1586.681,198.217 1586.681,204.721C1586.681,211.224 1592.184,216.496 1598.972,216.496Z" fill="#FFFFFF"/>
<path d="M1650.181,216.496C1656.968,216.496 1662.471,211.224 1662.471,204.721C1662.471,198.217 1656.968,192.946 1650.181,192.946C1643.393,192.946 1637.891,198.217 1637.891,204.721C1637.891,211.224 1643.393,216.496 1650.181,216.496Z" fill="#FFFFFF"/>
<path d="M1701.39,216.496C1708.178,216.496 1713.68,211.224 1713.68,204.721C1713.68,198.217 1708.178,192.946 1701.39,192.946C1694.602,192.946 1689.1,198.217 1689.1,204.721C1689.1,211.224 1694.602,216.496 1701.39,216.496Z" fill="#FFFFFF"/>
<path d="M1752.599,216.496C1759.387,216.496 1764.889,211.224 1764.889,204.721C1764.889,198.217 1759.387,192.946 1752.599,192.946C1745.811,192.946 1740.309,198.217 1740.309,204.721C1740.309,211.224 1745.811,216.496 1752.599,216.496Z" fill="#FFFFFF"/>
</g>
<path d="M1269.042,691.885C1255.624,691.885 1242.507,688.073 1231.351,680.93C1220.194,673.788 1211.499,663.637 1206.364,651.76C1201.229,639.883 1199.886,626.814 1202.503,614.205C1205.121,601.596 1211.582,590.015 1221.07,580.924C1230.558,571.834 1242.647,565.644 1255.807,563.136C1268.967,560.628 1282.607,561.915 1295.004,566.834C1307.401,571.754 1317.996,580.085 1325.451,590.774C1332.905,601.463 1336.884,614.03 1336.884,626.886C1336.864,644.118 1329.71,660.64 1316.991,672.825C1304.273,685.011 1287.029,691.865 1269.042,691.885ZM1269.042,565.572C1256.385,565.572 1244.012,569.168 1233.488,575.905C1222.964,582.643 1214.762,592.218 1209.918,603.422C1205.074,614.626 1203.807,626.954 1206.276,638.847C1208.745,650.741 1214.84,661.666 1223.79,670.241C1232.74,678.816 1244.143,684.655 1256.557,687.021C1268.971,689.387 1281.838,688.173 1293.532,683.532C1305.226,678.891 1315.22,671.033 1322.252,660.95C1329.284,650.867 1333.037,639.012 1333.037,626.886C1333.018,610.63 1326.27,595.045 1314.273,583.551C1302.275,572.056 1286.009,565.59 1269.042,565.572Z" fill="#3F3D56"/>
<path d="M1295.053,620.656L1275.545,620.656L1275.545,601.966C1275.545,600.313 1274.86,598.729 1273.641,597.56C1272.422,596.392 1270.768,595.736 1269.043,595.736C1267.318,595.736 1265.664,596.392 1264.445,597.56C1263.226,598.729 1262.54,600.313 1262.54,601.966L1262.54,620.656L1243.033,620.656C1241.308,620.656 1239.654,621.312 1238.435,622.48C1237.215,623.649 1236.53,625.233 1236.53,626.886C1236.53,628.538 1237.215,630.122 1238.435,631.291C1239.654,632.459 1241.308,633.116 1243.033,633.116L1262.54,633.116L1262.54,651.806C1262.54,653.458 1263.226,655.042 1264.445,656.211C1265.664,657.379 1267.318,658.036 1269.043,658.036C1270.768,658.036 1272.422,657.379 1273.641,656.211C1274.86,655.042 1275.545,653.458 1275.545,651.806L1275.545,633.116L1295.053,633.116C1296.777,633.116 1298.431,632.459 1299.651,631.291C1300.87,630.122 1301.555,628.538 1301.555,626.886C1301.555,625.233 1300.87,623.649 1299.651,622.48C1298.431,621.312 1296.777,620.656 1295.053,620.656Z" fill="#FFFFFF"/>
<g opacity="0.4">
<path d="M103.219,699.865C108.555,699.865 112.882,695.72 112.882,690.607C112.882,685.494 108.555,681.349 103.219,681.349C97.882,681.349 93.556,685.494 93.556,690.607C93.556,695.72 97.882,699.865 103.219,699.865Z" fill="#FFFFFF"/>
<path d="M103.219,661.29C108.555,661.29 112.882,657.145 112.882,652.032C112.882,646.919 108.555,642.774 103.219,642.774C97.882,642.774 93.556,646.919 93.556,652.032C93.556,657.145 97.882,661.29 103.219,661.29Z" fill="#FFFFFF"/>
<path d="M103.219,622.715C108.555,622.715 112.882,618.57 112.882,613.457C112.882,608.344 108.555,604.2 103.219,604.2C97.882,604.2 93.556,608.344 93.556,613.457C93.556,618.57 97.882,622.715 103.219,622.715Z" fill="#FFFFFF"/>
<path d="M103.219,584.141C108.555,584.141 112.882,579.996 112.882,574.883C112.882,569.77 108.555,565.625 103.219,565.625C97.882,565.625 93.556,569.77 93.556,574.883C93.556,579.996 97.882,584.141 103.219,584.141Z" fill="#FFFFFF"/>
<path d="M103.219,545.566C108.555,545.566 112.882,541.421 112.882,536.308C112.882,531.195 108.555,527.05 103.219,527.05C97.882,527.05 93.556,531.195 93.556,536.308C93.556,541.421 97.882,545.566 103.219,545.566Z" fill="#FFFFFF"/>
<path d="M103.219,506.991C108.555,506.991 112.882,502.847 112.882,497.734C112.882,492.621 108.555,488.476 103.219,488.476C97.882,488.476 93.556,492.621 93.556,497.734C93.556,502.847 97.882,506.991 103.219,506.991Z" fill="#FFFFFF"/>
<path d="M103.219,468.417C108.555,468.417 112.882,464.272 112.882,459.159C112.882,454.046 108.555,449.901 103.219,449.901C97.882,449.901 93.556,454.046 93.556,459.159C93.556,464.272 97.882,468.417 103.219,468.417Z" fill="#FFFFFF"/>
<path d="M133.818,699.865C139.155,699.865 143.481,695.72 143.481,690.607C143.481,685.494 139.155,681.349 133.818,681.349C128.481,681.349 124.155,685.494 124.155,690.607C124.155,695.72 128.481,699.865 133.818,699.865Z" fill="#FFFFFF"/>
<path d="M133.818,661.29C139.155,661.29 143.481,657.145 143.481,652.032C143.481,646.919 139.155,642.774 133.818,642.774C128.481,642.774 124.155,646.919 124.155,652.032C124.155,657.145 128.481,661.29 133.818,661.29Z" fill="#FFFFFF"/>
<path d="M133.818,622.715C139.155,622.715 143.481,618.57 143.481,613.457C143.481,608.344 139.155,604.2 133.818,604.2C128.481,604.2 124.155,608.344 124.155,613.457C124.155,618.57 128.481,622.715 133.818,622.715Z" fill="#FFFFFF"/>
<path d="M133.818,584.141C139.155,584.141 143.481,579.996 143.481,574.883C143.481,569.77 139.155,565.625 133.818,565.625C128.481,565.625 124.155,569.77 124.155,574.883C124.155,579.996 128.481,584.141 133.818,584.141Z" fill="#FFFFFF"/>
<path d="M133.818,545.566C139.155,545.566 143.481,541.421 143.481,536.308C143.481,531.195 139.155,527.05 133.818,527.05C128.481,527.05 124.155,531.195 124.155,536.308C124.155,541.421 128.481,545.566 133.818,545.566Z" fill="#FFFFFF"/>
<path d="M133.818,506.991C139.155,506.991 143.481,502.847 143.481,497.734C143.481,492.621 139.155,488.476 133.818,488.476C128.481,488.476 124.155,492.621 124.155,497.734C124.155,502.847 128.481,506.991 133.818,506.991Z" fill="#FFFFFF"/>
<path d="M133.818,468.417C139.155,468.417 143.481,464.272 143.481,459.159C143.481,454.046 139.155,449.901 133.818,449.901C128.481,449.901 124.155,454.046 124.155,459.159C124.155,464.272 128.481,468.417 133.818,468.417Z" fill="#FFFFFF"/>
<path d="M164.417,699.865C169.754,699.865 174.08,695.72 174.08,690.607C174.08,685.494 169.754,681.349 164.417,681.349C159.08,681.349 154.754,685.494 154.754,690.607C154.754,695.72 159.08,699.865 164.417,699.865Z" fill="#FFFFFF"/>
<path d="M164.417,661.29C169.754,661.29 174.08,657.145 174.08,652.032C174.08,646.919 169.754,642.774 164.417,642.774C159.08,642.774 154.754,646.919 154.754,652.032C154.754,657.145 159.08,661.29 164.417,661.29Z" fill="#FFFFFF"/>
<path d="M164.417,622.715C169.754,622.715 174.08,618.57 174.08,613.457C174.08,608.344 169.754,604.2 164.417,604.2C159.08,604.2 154.754,608.344 154.754,613.457C154.754,618.57 159.08,622.715 164.417,622.715Z" fill="#FFFFFF"/>
<path d="M164.417,584.141C169.754,584.141 174.08,579.996 174.08,574.883C174.08,569.77 169.754,565.625 164.417,565.625C159.08,565.625 154.754,569.77 154.754,574.883C154.754,579.996 159.08,584.141 164.417,584.141Z" fill="#FFFFFF"/>
<path d="M164.417,545.566C169.754,545.566 174.08,541.421 174.08,536.308C174.08,531.195 169.754,527.05 164.417,527.05C159.08,527.05 154.754,531.195 154.754,536.308C154.754,541.421 159.08,545.566 164.417,545.566Z" fill="#FFFFFF"/>
<path d="M164.417,506.991C169.754,506.991 174.08,502.847 174.08,497.734C174.08,492.621 169.754,488.476 164.417,488.476C159.08,488.476 154.754,492.621 154.754,497.734C154.754,502.847 159.08,506.991 164.417,506.991Z" fill="#FFFFFF"/>
<path d="M164.417,468.417C169.754,468.417 174.08,464.272 174.08,459.159C174.08,454.046 169.754,449.901 164.417,449.901C159.08,449.901 154.754,454.046 154.754,459.159C154.754,464.272 159.08,468.417 164.417,468.417Z" fill="#FFFFFF"/>
<path d="M195.016,699.865C200.353,699.865 204.679,695.72 204.679,690.607C204.679,685.494 200.353,681.349 195.016,681.349C189.679,681.349 185.353,685.494 185.353,690.607C185.353,695.72 189.679,699.865 195.016,699.865Z" fill="#FFFFFF"/>
<path d="M195.016,661.29C200.353,661.29 204.679,657.145 204.679,652.032C204.679,646.919 200.353,642.774 195.016,642.774C189.679,642.774 185.353,646.919 185.353,652.032C185.353,657.145 189.679,661.29 195.016,661.29Z" fill="#FFFFFF"/>
<path d="M225.615,699.865C230.952,699.865 235.278,695.72 235.278,690.607C235.278,685.494 230.952,681.349 225.615,681.349C220.279,681.349 215.952,685.494 215.952,690.607C215.952,695.72 220.279,699.865 225.615,699.865Z" fill="#FFFFFF"/>
<path d="M225.615,661.29C230.952,661.29 235.278,657.145 235.278,652.032C235.278,646.919 230.952,642.774 225.615,642.774C220.279,642.774 215.952,646.919 215.952,652.032C215.952,657.145 220.279,661.29 225.615,661.29Z" fill="#FFFFFF"/>
<path d="M225.615,622.715C230.952,622.715 235.278,618.57 235.278,613.457C235.278,608.344 230.952,604.2 225.615,604.2C220.279,604.2 215.952,608.344 215.952,613.457C215.952,618.57 220.279,622.715 225.615,622.715Z" fill="#FFFFFF"/>
<path d="M195.016,622.715C200.353,622.715 204.679,618.57 204.679,613.457C204.679,608.344 200.353,604.2 195.016,604.2C189.679,604.2 185.353,608.344 185.353,613.457C185.353,618.57 189.679,622.715 195.016,622.715Z" fill="#FFFFFF"/>
<path d="M195.016,584.141C200.353,584.141 204.679,579.996 204.679,574.883C204.679,569.77 200.353,565.625 195.016,565.625C189.679,565.625 185.353,569.77 185.353,574.883C185.353,579.996 189.679,584.141 195.016,584.141Z" fill="#FFFFFF"/>
<path d="M195.016,545.566C200.353,545.566 204.679,541.421 204.679,536.308C204.679,531.195 200.353,527.05 195.016,527.05C189.679,527.05 185.353,531.195 185.353,536.308C185.353,541.421 189.679,545.566 195.016,545.566Z" fill="#FFFFFF"/>
<path d="M195.016,506.991C200.353,506.991 204.679,502.847 204.679,497.734C204.679,492.621 200.353,488.476 195.016,488.476C189.679,488.476 185.353,492.621 185.353,497.734C185.353,502.847 189.679,506.991 195.016,506.991Z" fill="#FFFFFF"/>
<path d="M195.016,468.417C200.353,468.417 204.679,464.272 204.679,459.159C204.679,454.046 200.353,449.901 195.016,449.901C189.679,449.901 185.353,454.046 185.353,459.159C185.353,464.272 189.679,468.417 195.016,468.417Z" fill="#FFFFFF"/>
</g>
<path d="M956.016,60.816L314.103,60.816C310.95,60.819 307.927,62.02 305.698,64.156C303.469,66.292 302.215,69.188 302.212,72.208L302.212,598.104C302.215,601.124 303.469,604.02 305.698,606.156C307.927,608.292 310.95,609.494 314.103,609.498L956.016,609.498C959.168,609.494 962.19,608.292 964.42,606.156C966.65,604.02 967.902,601.124 967.906,598.104L967.906,72.208C967.902,69.188 966.65,66.292 964.42,64.156C962.19,62.02 959.168,60.819 956.016,60.816ZM963.14,598.104C963.14,599.916 962.39,601.654 961.054,602.938C959.718,604.222 957.906,604.946 956.016,604.952L314.103,604.952C312.21,604.95 310.396,604.226 309.059,602.942C307.723,601.658 306.974,599.918 306.977,598.104L306.977,72.208C306.974,70.395 307.723,68.654 309.059,67.37C310.396,66.086 312.21,65.363 314.103,65.36L956.016,65.36C957.906,65.366 959.718,66.091 961.054,67.374C962.39,68.658 963.14,70.396 963.14,72.208L963.14,598.104Z" fill="#3F3D56"/>
<path d="M462.272,515.987C462.272,516.798 462.25,517.609 462.205,518.398C461.558,530.267 456.181,541.444 447.184,549.626C438.187,557.807 426.255,562.369 413.851,562.369C401.446,562.369 389.515,557.807 380.518,549.626C371.521,541.444 366.144,530.267 365.497,518.398C365.452,517.609 365.43,516.798 365.43,515.987C365.426,509.893 366.675,503.857 369.107,498.225C371.538,492.593 375.105,487.475 379.601,483.164C384.098,478.853 389.437,475.434 395.314,473.1C401.191,470.767 407.49,469.566 413.851,469.566C420.212,469.566 426.511,470.767 432.388,473.1C438.265,475.434 443.604,478.853 448.101,483.164C452.597,487.475 456.164,492.593 458.595,498.225C461.027,503.857 462.276,509.893 462.272,515.987Z" fill="#FFFFFF"/>
<path d="M906.135,485.052L525.668,485.052C523.53,485.055 521.48,485.872 519.969,487.322C518.457,488.772 517.609,490.737 517.609,492.786C517.609,494.835 518.457,496.8 519.969,498.25C521.48,499.7 523.53,500.517 525.668,500.52L906.135,500.52C908.273,500.517 910.323,499.7 911.835,498.25C913.347,496.8 914.195,494.835 914.195,492.786C914.195,490.737 913.347,488.772 911.835,487.322C910.323,485.872 908.273,485.055 906.135,485.052Z" fill="#3F3D56"/>
<path d="M689.381,531.455L525.668,531.455C523.53,531.455 521.48,532.268 519.968,533.717C518.457,535.165 517.607,537.13 517.607,539.178C517.607,541.226 518.457,543.191 519.968,544.639C521.48,546.087 523.53,546.901 525.668,546.901L689.381,546.901C691.519,546.901 693.569,546.087 695.081,544.639C696.592,543.191 697.442,541.226 697.442,539.178C697.442,537.13 696.592,535.165 695.081,533.717C693.569,532.268 691.519,531.455 689.381,531.455Z" fill="#FFFFFF"/>
<path d="M1108.52,430.437L466.61,430.437C462.251,430.431 458.071,428.769 454.989,425.817C451.906,422.863 450.173,418.857 450.168,414.681L450.168,144.785C450.173,140.608 451.907,136.604 454.989,133.651C458.072,130.697 462.251,129.036 466.61,129.031L1108.52,129.031C1112.878,129.036 1117.058,130.697 1120.14,133.651C1123.224,136.604 1124.956,140.608 1124.962,144.785L1124.962,414.681C1124.958,418.857 1123.224,422.863 1120.14,425.817C1117.058,428.769 1112.878,430.431 1108.52,430.437ZM466.61,134.559C463.781,134.562 461.068,135.641 459.067,137.558C457.066,139.475 455.941,142.074 455.938,144.785L455.938,414.681C455.941,417.393 457.066,419.991 459.067,421.909C461.068,423.827 463.781,424.905 466.61,424.909L1108.52,424.909C1111.348,424.905 1114.062,423.827 1116.062,421.909C1118.064,419.991 1119.188,417.393 1119.192,414.681L1119.192,144.785C1119.188,142.074 1118.064,139.475 1116.062,137.558C1114.062,135.641 1111.348,134.562 1108.52,134.559L466.61,134.559Z" fill="#FFFFFF"/>
<path d="M597.335,227.471C595.195,227.471 593.142,228.285 591.629,229.735C590.115,231.185 589.265,233.152 589.265,235.203C589.265,237.253 590.115,239.22 591.629,240.67C593.142,242.12 595.195,242.935 597.335,242.935L977.793,242.935C979.933,242.935 981.987,242.12 983.501,240.67C985.013,239.22 985.863,237.253 985.863,235.203C985.863,233.152 985.013,231.185 983.501,229.735C981.987,228.285 979.933,227.471 977.793,227.471L597.335,227.471Z" fill="#FFFFFF"/>
<path d="M597.335,272.273C595.195,272.273 593.142,273.088 591.629,274.538C590.115,275.988 589.265,277.954 589.265,280.005C589.265,282.056 590.115,284.022 591.629,285.472C593.142,286.923 595.195,287.737 597.335,287.737L977.793,287.737C979.931,287.734 981.981,286.918 983.493,285.468C985.003,284.019 985.851,282.054 985.851,280.005C985.851,277.956 985.003,275.992 983.493,274.542C981.981,273.092 979.931,272.276 977.793,272.273L597.335,272.273Z" fill="#FFFFFF"/>
<path d="M597.335,316.532C595.195,316.532 593.142,317.347 591.629,318.797C590.115,320.247 589.265,322.214 589.265,324.264C589.265,326.315 590.115,328.282 591.629,329.732C593.142,331.182 595.195,331.996 597.335,331.996L761.048,331.996C763.186,331.993 765.235,331.177 766.746,329.728C768.257,328.278 769.105,326.313 769.105,324.264C769.105,322.216 768.257,320.251 766.746,318.801C765.235,317.351 763.186,316.535 761.048,316.532L597.335,316.532Z" fill="#FFFFFF"/>
<path d="M1214.354,544.783L1149.883,457.607L1170.753,461.773C1171.124,461.848 1171.507,461.851 1171.88,461.783C1172.252,461.715 1172.607,461.578 1172.924,461.379C1173.241,461.18 1173.515,460.923 1173.728,460.623C1173.942,460.323 1174.091,459.985 1174.168,459.629C1174.246,459.274 1174.249,458.907 1174.179,458.55C1174.108,458.193 1173.965,457.853 1173.757,457.549C1173.549,457.245 1173.281,456.984 1172.967,456.779C1172.654,456.575 1172.302,456.431 1171.931,456.357L1140.829,450.154L1136.63,480.321C1136.579,480.682 1136.603,481.049 1136.7,481.401C1136.797,481.752 1136.965,482.083 1137.195,482.372C1137.426,482.661 1137.713,482.904 1138.042,483.087C1138.371,483.27 1138.734,483.389 1139.11,483.437C1139.487,483.485 1139.869,483.461 1140.236,483.367C1140.604,483.273 1140.947,483.111 1141.249,482.889C1141.55,482.668 1141.803,482.391 1141.993,482.076C1142.183,481.761 1142.305,481.413 1142.355,481.052L1145.169,460.794L1209.647,547.98C1209.866,548.276 1210.143,548.528 1210.464,548.721C1210.785,548.914 1211.142,549.045 1211.515,549.106C1211.889,549.167 1212.271,549.157 1212.64,549.076C1213.01,548.996 1213.359,548.846 1213.668,548.636C1213.977,548.427 1214.24,548.16 1214.442,547.853C1214.643,547.546 1214.78,547.204 1214.844,546.846C1214.908,546.488 1214.897,546.122 1214.813,545.768C1214.729,545.414 1214.573,545.079 1214.354,544.783Z" fill="#FFFFFF"/>
<path d="M864.187,798.51L405.929,798.51C403.68,798.508 401.523,797.65 399.932,796.126C398.341,794.602 397.446,792.535 397.443,790.379L397.443,681.469C397.446,679.314 398.341,677.247 399.932,675.723C401.523,674.199 403.68,673.341 405.929,673.339L864.187,673.339C866.437,673.341 868.595,674.199 870.185,675.723C871.777,677.247 872.671,679.314 872.673,681.469L872.673,790.379C872.671,792.535 871.777,794.602 870.185,796.126C868.595,797.65 866.437,798.508 864.187,798.51ZM405.929,676.591C404.579,676.592 403.285,677.107 402.331,678.021C401.376,678.936 400.839,680.176 400.838,681.469L400.838,790.379C400.839,791.673 401.376,792.913 402.331,793.827C403.285,794.742 404.579,795.257 405.929,795.258L864.187,795.258C865.537,795.257 866.831,794.742 867.787,793.827C868.741,792.913 869.279,791.673 869.279,790.379L869.279,681.469C869.279,680.176 868.741,678.936 867.787,678.021C866.831,677.107 865.537,676.592 864.187,676.591L405.929,676.591Z" fill="#3F3D56"/>
<path d="M477.134,764.865C496.225,764.865 511.702,750.037 511.702,731.746C511.702,713.454 496.225,698.626 477.134,698.626C458.042,698.626 442.565,713.454 442.565,731.746C442.565,750.037 458.042,764.865 477.134,764.865Z" fill="#FFFFFF"/>
<path d="M556.97,709.666C556.213,709.664 555.462,709.806 554.762,710.083C554.062,710.36 553.426,710.766 552.89,711.279C552.353,711.792 551.928,712.401 551.638,713.071C551.348,713.741 551.198,714.46 551.198,715.186C551.198,715.911 551.348,716.63 551.638,717.3C551.928,717.971 552.353,718.58 552.89,719.092C553.426,719.605 554.062,720.012 554.762,720.288C555.462,720.565 556.213,720.707 556.97,720.706L828.58,720.706C830.108,720.706 831.574,720.124 832.654,719.089C833.734,718.054 834.342,716.65 834.342,715.186C834.342,713.722 833.734,712.318 832.654,711.283C831.574,710.247 830.108,709.666 828.58,709.666L556.97,709.666Z" fill="#FFFFFF"/>
<path d="M556.97,742.786C556.213,742.784 555.462,742.926 554.762,743.203C554.062,743.48 553.426,743.886 552.89,744.399C552.353,744.911 551.928,745.52 551.638,746.191C551.348,746.861 551.198,747.58 551.198,748.305C551.198,749.031 551.348,749.75 551.638,750.42C551.928,751.091 552.353,751.699 552.89,752.212C553.426,752.725 554.062,753.131 554.762,753.408C555.462,753.685 556.213,753.827 556.97,753.825L673.845,753.825C675.373,753.825 676.838,753.244 677.919,752.209C678.999,751.174 679.606,749.769 679.606,748.305C679.606,746.841 678.999,745.437 677.919,744.402C676.838,743.367 675.373,742.786 673.845,742.786L556.97,742.786Z" fill="#FFFFFF"/>
<path d="M1468.818,410.488L1672.49,410.488C1674.74,410.49 1676.896,411.348 1678.488,412.872C1680.078,414.396 1680.972,416.463 1680.976,418.618L1680.976,621.844C1680.972,624 1680.078,626.066 1678.488,627.59C1676.896,629.114 1674.74,629.972 1672.49,629.974L1468.818,629.974C1466.568,629.972 1464.411,629.114 1462.82,627.59C1461.229,626.066 1460.334,624 1460.332,621.844L1460.332,418.618C1460.334,416.463 1461.229,414.396 1462.82,412.872C1464.411,411.348 1466.568,410.49 1468.818,410.488ZM1672.49,626.722C1673.84,626.72 1675.134,626.206 1676.088,625.292C1677.042,624.378 1677.58,623.138 1677.58,621.844L1677.58,418.618C1677.58,417.325 1677.042,416.085 1676.088,415.17C1675.134,414.256 1673.84,413.741 1672.49,413.74L1468.818,413.74C1467.468,413.741 1466.174,414.256 1465.219,415.17C1464.265,416.085 1463.728,417.325 1463.726,418.618L1463.726,621.844C1463.728,623.138 1464.265,624.378 1465.219,625.292C1466.174,626.206 1467.468,626.72 1468.818,626.722L1672.49,626.722Z" fill="#3F3D56"/>
<path d="M1629.091,588.065C1630.619,588.065 1632.084,587.484 1633.165,586.449C1634.245,585.414 1634.852,584.009 1634.852,582.546C1634.852,581.082 1634.245,579.678 1633.165,578.642C1632.084,577.607 1630.619,577.026 1629.091,577.026L1512.217,577.026C1510.688,577.026 1509.223,577.607 1508.143,578.642C1507.062,579.678 1506.455,581.082 1506.455,582.546C1506.455,584.009 1507.062,585.414 1508.143,586.449C1509.223,587.484 1510.688,588.065 1512.217,588.065L1629.091,588.065Z" fill="#FFFFFF"/>
<path d="M1629.091,555.543C1629.848,555.544 1630.599,555.403 1631.299,555.126C1631.999,554.849 1632.636,554.443 1633.172,553.93C1633.708,553.417 1634.133,552.808 1634.423,552.138C1634.714,551.467 1634.863,550.749 1634.863,550.023C1634.863,549.297 1634.714,548.579 1634.423,547.908C1634.133,547.238 1633.708,546.629 1633.172,546.116C1632.636,545.604 1631.999,545.197 1631.299,544.92C1630.599,544.644 1629.848,544.502 1629.091,544.503L1512.216,544.503C1511.459,544.502 1510.709,544.644 1510.008,544.92C1509.308,545.197 1508.672,545.604 1508.136,546.116C1507.6,546.629 1507.174,547.238 1506.884,547.908C1506.594,548.579 1506.444,549.297 1506.444,550.023C1506.444,550.749 1506.594,551.467 1506.884,552.138C1507.174,552.808 1507.6,553.417 1508.136,553.93C1508.672,554.443 1509.308,554.849 1510.008,555.126C1510.709,555.403 1511.459,555.544 1512.216,555.543L1629.091,555.543Z" fill="#FFFFFF"/>
<path d="M1570.653,452.396C1577.826,452.396 1584.838,454.434 1590.801,458.252C1596.765,462.07 1601.413,467.497 1604.158,473.845C1606.903,480.194 1607.621,487.181 1606.222,493.921C1604.823,500.661 1601.369,506.852 1596.297,511.711C1591.225,516.57 1584.763,519.879 1577.728,521.22C1570.694,522.561 1563.402,521.873 1556.775,519.243C1550.148,516.613 1544.485,512.159 1540.5,506.446C1536.515,500.732 1534.388,494.014 1534.388,487.142C1534.399,477.93 1538.223,469.099 1545.022,462.585C1551.821,456.071 1561.039,452.407 1570.653,452.396Z" fill="#FFFFFF"/>
</svg>
