<svg width="32" height="32" viewBox="0 0 32 32" fill="none" xmlns="http://www.w3.org/2000/svg" xmlns:xlink="http://www.w3.org/1999/xlink">
<path d="M22,12C22,15.314 19.314,18 16,18L16,22C21.523,22 26,17.523 26,12L22,12ZM16,18C12.686,18 10,15.314 10,12L6,12C6,17.523 10.477,22 16,22L16,18ZM10,12C10,8.686 12.686,6 16,6L16,2C10.477,2 6,6.477 6,12L10,12ZM16,6C19.314,6 22,8.686 22,12L26,12C26,6.477 21.523,2 16,2L16,6Z" fill="#72777A"/>
<path d="M2.142,25.998C1.589,26.955 1.917,28.178 2.873,28.731C3.83,29.283 5.053,28.956 5.605,27.999L2.142,25.998ZM26.395,28C26.947,28.956 28.171,29.283 29.127,28.731C30.083,28.178 30.411,26.955 29.858,25.999L26.395,28ZM5.605,27.999C6.659,26.175 8.175,24.66 9.999,23.607L8,20.143C5.567,21.547 3.547,23.566 2.142,25.998L5.605,27.999ZM9.999,23.607C11.824,22.554 13.893,22 16,22L16,18C13.192,18 10.432,18.739 8,20.143L9.999,23.607ZM16,22C18.107,22 20.176,22.554 22.001,23.608L24.001,20.143C21.568,18.739 18.809,18 16,18L16,22ZM22.001,23.608C23.826,24.661 25.341,26.175 26.395,28L29.858,25.999C28.453,23.567 26.433,21.547 24.001,20.143L22.001,23.608Z" fill="#72777A"/>
</svg>
