<svg width="1686" height="1172" viewBox="0 0 1686 1172" fill="none" xmlns="http://www.w3.org/2000/svg" xmlns:xlink="http://www.w3.org/1999/xlink">
<path d="M0,266.194L22.48,240.08C44.96,210.234 85.424,154.275 130.384,169.197C170.848,184.12 215.808,266.194 260.768,255.002C301.232,240.08 346.192,128.16 391.152,79.661C431.616,27.432 476.576,42.355 517.04,49.816C562,57.277 606.96,57.277 647.424,79.661C692.384,98.315 732.848,143.083 777.808,161.736C822.768,184.12 863.232,184.12 908.192,154.275C953.152,128.16 993.616,72.2 1038.576,42.355C1079.04,16.24 1124,16.24 1168.96,49.816C1209.424,83.392 1254.384,154.275 1294.848,146.813C1339.808,143.083 1384.768,57.277 1425.232,19.971C1470.192,-13.605 1515.152,1.317 1555.616,19.971C1600.576,42.355 1641.04,72.2 1663.52,83.392L1686,98.315L1686,352L1663.52,352C1641.04,352 1648.96,1136 1604,1136C1563.536,1136 1294.96,1172 1250,1172C1209.536,1172 1248.96,1172 1204,1172C1163.536,1172 1209.424,1172 1168.96,1172C1124,1172 1079.04,1172 1038.576,1172C993.616,1172 953.152,1172 908.192,1172C863.232,1172 822.768,1172 777.808,1172C732.848,1172 692.384,1172 647.424,1172C606.96,1172 562,1172 517.04,1172C476.576,1172 431.616,1172 391.152,1172C346.192,1172 301.232,1172 260.768,1172C215.808,1172 170.848,1172 130.384,1172C85.424,1172 44.96,1172 22.48,1172L0,1172L0,266.194Z" clip-rule="evenodd" fill-rule="evenodd" transform="rotate(360 843 586)" fill="#202325"/>
</svg>
