<svg width="516" height="204" viewBox="0 0 516 204" fill="none" xmlns="http://www.w3.org/2000/svg" xmlns:xlink="http://www.w3.org/1999/xlink">
<path d="M0,27.823L12.585,18.788C25.171,14.271 50.341,-3.798 72.366,0.719C97.537,5.236 122.707,27.823 147.878,54.927C173.049,77.514 195.073,109.135 220.244,100.101C245.414,95.583 270.586,50.41 295.756,59.445C320.926,72.997 342.952,136.24 368.122,149.792C393.292,158.826 418.464,113.653 443.634,95.583C465.658,72.997 490.83,72.997 503.414,72.997L516,72.997L516,204L503.414,204C490.83,204 465.658,204 443.634,204C418.464,204 393.292,204 368.122,204C342.952,204 320.926,204 295.756,204C270.586,204 245.414,204 220.244,204C195.073,204 173.049,204 147.878,204C122.707,204 97.537,204 72.366,204C50.341,204 25.171,204 12.585,204L0,204L0,27.823Z" clip-rule="evenodd" fill-rule="evenodd" fill="url(#pf_0_16302_706)"/>
<defs>
<linearGradient id="pf_0_16302_706" x1="258" y1="0" x2="258" y2="204" gradientUnits="userSpaceOnUse">
<stop stop-color="#FFFFFF" stop-opacity="0.36"/>
<stop offset="1" stop-color="#FA6F48" stop-opacity="0"/>
</linearGradient>
</defs>
</svg>
