<svg width="32" height="32" viewBox="0 0 32 32" fill="none" xmlns="http://www.w3.org/2000/svg" xmlns:xlink="http://www.w3.org/1999/xlink">
<path d="M8.167,17.915C7.467,17.915 6.932,17.381 6.932,16.681C6.932,15.993 7.467,15.459 8.167,15.459L14.761,15.459L14.761,6.537C14.761,5.847 15.295,5.315 15.982,5.315C16.673,5.315 17.217,5.847 17.217,6.537L17.217,16.681C17.217,17.381 16.673,17.915 15.982,17.915L8.167,17.915ZM15.995,31.99C24.758,31.99 31.993,24.745 31.993,15.995C31.993,7.232 24.745,0 15.982,0C7.235,0 0,7.232 0,15.995C0,24.745 7.247,31.99 15.995,31.99Z" fill="#757880"/>
</svg>
