<svg width="36" height="28" viewBox="0 0 36 28" fill="none" xmlns="http://www.w3.org/2000/svg" xmlns:xlink="http://www.w3.org/1999/xlink">
<path d="M6.53,7.826C6.852,6.336 7.525,4.351 7.974,3.549C8.404,2.767 8.894,2.434 9.808,2.314C10.878,2.173 13.43,2.079 17.999,2.079C22.579,2.079 25.134,2.145 26.195,2.314C27.103,2.447 27.581,2.767 28.026,3.549C28.485,4.339 29.126,6.336 29.482,7.826C29.635,8.462 29.359,8.749 28.697,8.722C26.388,8.582 23.48,8.435 17.999,8.435C12.535,8.435 9.627,8.582 7.315,8.722C6.641,8.749 6.374,8.462 6.53,7.826ZM7.076,19.222C5.664,19.222 4.578,18.139 4.578,16.726C4.578,15.301 5.664,14.228 7.076,14.228C8.489,14.228 9.572,15.301 9.572,16.726C9.572,18.139 8.489,19.222 7.076,19.222ZM13.976,18.592C12.908,18.592 12.171,17.855 12.171,16.787C12.171,15.729 12.908,14.992 13.976,14.992L22.034,14.992C23.092,14.992 23.829,15.729 23.829,16.787C23.829,17.855 23.092,18.592 22.034,18.592L13.976,18.592ZM28.924,19.222C27.511,19.222 26.438,18.139 26.438,16.726C26.438,15.301 27.511,14.228 28.924,14.228C30.349,14.228 31.422,15.301 31.422,16.726C31.422,18.139 30.349,19.222 28.924,19.222ZM17.999,23.377C23.099,23.377 29.79,23.123 32.621,22.795C34.781,22.549 36,21.327 36,19.284L36,16.75C36,14.124 35.514,12.672 34.121,10.859L32.798,9.199C32.255,6.511 31.257,3.692 30.744,2.584C29.911,0.827 28.311,-0.225 26.25,-0.502C25.179,-0.647 21.971,-0.727 17.999,-0.727C14.041,-0.727 10.833,-0.635 9.762,-0.502C7.698,-0.25 6.089,0.827 5.268,2.584C4.743,3.692 3.757,6.511 3.199,9.199L1.888,10.859C0.486,12.672 0,14.124 0,16.75L0,19.284C0,21.327 1.232,22.552 3.379,22.795C6.222,23.121 12.901,23.377 17.999,23.377ZM2.024,27.597L3.811,27.597C4.95,27.597 5.835,26.714 5.835,25.585L5.835,21.792L0,18.899L0,25.585C0,26.714 0.885,27.597 2.024,27.597ZM32.189,27.597L33.989,27.597C35.127,27.597 36,26.714 36,25.585L36,18.899L30.177,21.792L30.177,25.585C30.177,26.714 31.05,27.597 32.189,27.597Z" fill="#757880"/>
</svg>
