<svg width="512" height="184" viewBox="0 0 512 184" fill="none" xmlns="http://www.w3.org/2000/svg" xmlns:xlink="http://www.w3.org/1999/xlink">
<path d="M0,25.095L12.488,16.946C24.976,12.872 49.951,-3.426 71.805,0.648C96.78,4.723 121.756,25.095 146.732,49.542C171.707,69.915 193.561,98.436 218.536,90.287C243.512,86.213 268.488,45.468 293.464,53.617C318.44,65.84 340.292,122.883 365.268,135.106C390.244,143.255 415.22,102.51 440.196,86.213C462.048,65.84 487.024,65.84 499.512,65.84L512,65.84L512,184L499.512,184C487.024,184 462.048,184 440.196,184C415.22,184 390.244,184 365.268,184C340.292,184 318.44,184 293.464,184C268.488,184 243.512,184 218.536,184C193.561,184 171.707,184 146.732,184C121.756,184 96.78,184 71.805,184C49.951,184 24.976,184 12.488,184L0,184L0,25.095Z" clip-rule="evenodd" fill-rule="evenodd" fill="url(#pf_0_16302_707)"/>
<defs>
<linearGradient id="pf_0_16302_707" x1="256" y1="0" x2="256" y2="184" gradientUnits="userSpaceOnUse">
<stop stop-color="#FFFFFF" stop-opacity="0.36"/>
<stop offset="1" stop-color="#FA6F48" stop-opacity="0"/>
</linearGradient>
</defs>
</svg>
