<svg width="30" height="34" viewBox="0 0 30 34" fill="none" xmlns="http://www.w3.org/2000/svg" xmlns:xlink="http://www.w3.org/1999/xlink">
<path d="M21.635,31.84L21.635,2.984C21.635,0.418 20.217,-1 17.663,-1L5.405,-1C2.827,-1 1.448,0.418 1.448,2.984L1.448,31.84L21.635,31.84ZM5.976,15.113C4.911,15.113 4.256,14.521 4.256,13.552L4.256,3.396C4.256,2.424 4.908,1.823 5.976,1.823L17.093,1.823C18.16,1.823 18.825,2.424 18.825,3.396L18.825,13.552C18.825,14.521 18.158,15.113 17.093,15.113L5.976,15.113ZM-1,31.572C-1,32.356 -0.383,33 0.388,33L22.668,33C23.44,33 24.081,32.356 24.081,31.572C24.081,30.816 23.437,30.184 22.668,30.184L0.388,30.184C-0.368,30.184 -1,30.803 -1,31.572ZM20.453,19.131L21.881,19.131C22.506,19.131 22.9,19.49 22.9,20.165L22.9,25.13C22.9,27.321 24.253,28.674 26.449,28.674C28.63,28.674 29.971,27.321 29.971,25.13L29.971,6.632C29.971,5.701 29.719,4.967 29.263,4.239L27.199,0.894C26.349,-0.465 24.35,0.73 25.216,2.126L26.911,4.883C27.101,5.189 27.083,5.555 26.878,5.856L24.959,8.534C24.281,9.467 24.366,10.375 25.087,11.225L27.619,14.158L27.619,25.13C27.619,25.868 27.177,26.325 26.449,26.325C25.694,26.325 25.252,25.868 25.252,25.13L25.252,20.165C25.252,18.034 23.96,16.781 21.881,16.781L20.453,16.781L20.453,19.131Z" fill="#757880"/>
</svg>
