<svg width="34" height="24" viewBox="0 0 34 24" fill="none" xmlns="http://www.w3.org/2000/svg" xmlns:xlink="http://www.w3.org/1999/xlink">
<path d="M17.001,5.175C21.934,5.175 26.679,7.11 30.254,10.58C30.523,10.847 30.953,10.844 31.218,10.572L33.792,7.921C33.926,7.783 34.001,7.596 34,7.402C33.999,7.207 33.922,7.021 33.786,6.885C24.402,-2.295 9.598,-2.295 0.214,6.885C0.078,7.021 0.001,7.207 0,7.401C-0.001,7.596 0.073,7.783 0.208,7.921L2.782,10.572C3.047,10.845 3.478,10.848 3.747,10.58C7.322,7.11 12.067,5.175 17.001,5.175ZM17.072,13.179C19.782,13.179 22.396,14.207 24.405,16.064C24.677,16.328 25.105,16.322 25.37,16.051L27.94,13.4C28.076,13.261 28.151,13.072 28.149,12.876C28.147,12.68 28.068,12.493 27.93,12.357C21.812,6.548 12.337,6.548 6.219,12.357C6.081,12.493 6.002,12.68 6,12.876C5.998,13.072 6.074,13.261 6.209,13.4L8.779,16.051C9.044,16.322 9.472,16.328 9.744,16.064C11.752,14.208 14.363,13.18 17.072,13.179ZM22.299,18.353C22.303,18.55 22.227,18.74 22.09,18.877L17.643,23.458C17.513,23.592 17.335,23.668 17.15,23.668C16.964,23.668 16.787,23.592 16.656,23.458L12.209,18.877C12.072,18.739 11.996,18.55 12,18.353C12.004,18.157 12.088,17.971 12.231,17.839C15.07,15.387 19.229,15.387 22.069,17.839C22.212,17.971 22.295,18.157 22.299,18.353Z" clip-rule="evenodd" fill-rule="evenodd" fill="#FFFFFF"/>
</svg>
