<svg width="32" height="34" viewBox="0 0 32 34" fill="none" xmlns="http://www.w3.org/2000/svg" xmlns:xlink="http://www.w3.org/1999/xlink">
<path d="M0.921,16.163C1.724,16.163 2.376,15.512 2.376,14.709L2.376,8.89C2.376,5.95 4.768,3.557 7.709,3.557C10.65,3.557 13.042,5.95 13.042,8.89L13.042,13.254L10.618,13.254C9.815,13.254 9.164,13.905 9.164,14.709L9.164,31.193C9.164,31.997 9.815,32.648 10.618,32.648L30.012,32.648C30.815,32.648 31.467,31.997 31.467,31.193L31.467,14.709C31.467,13.905 30.815,13.254 30.012,13.254L15.951,13.254L15.951,8.89C15.951,4.346 12.254,0.648 7.709,0.648C3.164,0.648 -0.533,4.346 -0.533,8.89L-0.533,14.709C-0.533,15.512 0.118,16.163 0.921,16.163Z" transform="rotate(-63.346 15.467 16.648)" fill="#838990"/>
</svg>
