<svg width="32" height="32" viewBox="0 0 32 32" fill="none" xmlns="http://www.w3.org/2000/svg" xmlns:xlink="http://www.w3.org/1999/xlink">
<path d="M1.455,15.515C2.258,15.515 2.909,14.864 2.909,14.061L2.909,8.242C2.909,5.302 5.302,2.909 8.242,2.909C11.183,2.909 13.576,5.302 13.576,8.242L13.576,12.606L11.152,12.606C10.348,12.606 9.697,13.257 9.697,14.061L9.697,30.545C9.697,31.349 10.348,32 11.152,32L30.545,32C31.349,32 32,31.349 32,30.545L32,14.061C32,13.257 31.349,12.606 30.545,12.606L16.485,12.606L16.485,8.242C16.485,3.698 12.787,0 8.242,0C3.698,0 0,3.698 0,8.242L0,14.061C0,14.864 0.651,15.515 1.455,15.515Z" fill="#838990"/>
</svg>
